<?xml version="1.0" encoding="utf-8" standalone="no"?><!DOCTYPE svg PUBLIC "-//W3C//DTD SVG 1.1//EN" "http://www.w3.org/Graphics/SVG/1.1/DTD/svg11.dtd">
<svg preserveAspectRatio="xMinYMin meet" width="100%" height="100%" viewBox="0 0 355.000 298.750"  version="1.1" xmlns="http://www.w3.org/2000/svg" xmlns:xlink="http://www.w3.org/1999/xlink">
  <desc>Matlab Figure Converted by PLOT2SVG written by Juerg Schwizer</desc>
  <g id="topgroup">
  <rect x="0" y="0" width="355.000" height="298.750" fill="#ffffff" stroke="none" />
  <g id ="ID000000">
  <clipPath id="ID000001">
    <rect x="46.150" y="22.406" width="275.125" height="239.731"/>
  </clipPath>
      <polygon fill="#ffffff" fill-opacity="1.00" stroke="none" stroke-width="3.0pt" stroke-opacity="1.00" stroke-dasharray="none" points="46.150,262.137 321.275,262.137 321.275,22.406 46.150,22.406 "/>
      <polygon fill="#ffffff" fill-opacity="1.00" stroke="none" stroke-width="3.0pt" stroke-opacity="1.00" stroke-dasharray="none" points="46.150,262.137 321.275,262.137 321.275,262.137 46.150,262.137 "/>
      <polygon fill="#ffffff" fill-opacity="1.00" stroke="none" stroke-width="3.0pt" stroke-opacity="1.00" stroke-dasharray="none" points="46.150,262.137 46.150,262.137 46.150,22.406 46.150,22.406 "/>
    <g>
<g id="ID000002" clip-path="url(#ID000001)" >
      <polygon fill="#69bd45" fill-opacity="0.15" stroke="none" stroke-width="0.5pt" stroke-opacity="1.00" stroke-dasharray="none" points="44.854,186.929 49.391,186.224 53.927,186.189 58.464,185.506 63.001,184.846 67.538,182.574 72.075,182.014 76.611,182.335 81.148,182.107 85.685,183.708 90.222,183.452 94.759,183.451 99.295,183.916 103.832,183.711 108.369,183.592 112.906,184.036 117.443,183.795 121.980,184.461 126.516,183.103 131.053,182.348 135.590,178.251 140.127,177.938 144.664,175.182 149.200,174.100 153.737,172.952 158.274,172.722 162.811,173.674 167.348,176.043 171.884,177.441 176.421,179.866 180.958,183.238 185.495,183.157 190.032,183.124 194.568,183.372 199.105,184.104 203.642,183.794 208.179,182.628 212.716,182.079 217.252,178.935 221.789,175.543 226.326,171.777 230.863,169.869 235.400,168.251 239.937,166.851 244.473,164.276 249.010,163.964 253.547,161.410 258.084,160.766 262.621,159.312 267.157,158.944 271.694,157.944 276.231,157.687 280.768,155.357 285.305,153.645 289.841,154.550 294.378,156.063 298.915,157.394 303.452,157.926 307.989,160.721 312.525,160.554 317.062,161.865 321.599,164.522 326.136,165.120 330.673,168.532 335.209,170.922 339.746,172.587 344.283,174.939 348.820,176.913 353.357,179.229 357.894,180.412 362.430,182.779 366.967,184.604 371.504,185.964 376.041,186.809 380.578,188.067 385.114,189.061 389.651,188.839 394.188,190.811 398.725,192.340 403.262,192.544 407.798,194.575 412.335,194.283 416.872,197.206 421.409,199.646 425.946,201.485 430.482,203.721 435.019,204.061 439.556,205.749 444.093,205.704 448.630,206.771 453.166,207.083 457.703,208.104 462.240,209.553 466.777,209.383 471.314,209.179 475.851,211.183 480.387,211.842 484.924,213.180 489.461,214.323 493.998,214.577 498.535,214.368 503.071,213.797 507.608,216.185 507.608,186.179 503.071,183.946 498.535,183.591 493.998,184.198 489.461,183.846 484.924,182.158 480.387,180.316 475.851,179.940 471.314,177.613 466.777,177.108 462.240,177.594 457.703,176.447 453.166,175.885 448.630,174.887 444.093,173.869 439.556,173.832 435.019,171.662 430.482,171.051 425.946,168.593 421.409,167.161 416.872,164.397 412.335,161.983 407.798,162.478 403.262,160.494 398.725,159.954 394.188,158.246 389.651,156.974 385.114,156.964 380.578,156.338 376.041,155.643 371.504,155.083 366.967,154.054 362.430,152.519 357.894,151.239 353.357,150.341 348.820,148.590 344.283,147.498 339.746,145.434 335.209,144.413 330.673,142.645 326.136,140.555 321.599,140.119 317.062,137.275 312.525,135.567 307.989,134.425 303.452,131.112 298.915,128.824 294.378,126.291 289.841,123.879 285.305,121.763 280.768,122.480 276.231,122.856 271.694,122.277 267.157,124.043 262.621,124.614 258.084,125.439 253.547,127.369 249.010,129.865 244.473,131.342 239.937,135.554 235.400,138.480 230.863,141.249 226.326,144.490 221.789,149.041 217.252,152.043 212.716,154.851 208.179,156.395 203.642,157.572 199.105,157.514 194.568,157.243 190.032,157.602 185.495,157.234 180.958,156.480 176.421,153.528 171.884,150.777 167.348,149.425 162.811,147.079 158.274,146.232 153.737,145.887 149.200,146.601 144.664,148.164 140.127,150.393 135.590,151.530 131.053,154.224 126.516,155.391 121.980,156.727 117.443,156.626 112.906,157.092 108.369,157.131 103.832,157.453 99.295,157.533 94.759,157.555 90.222,157.291 85.685,157.443 81.148,156.246 76.611,156.530 72.075,156.322 67.538,156.891 63.001,158.312 58.464,158.762 53.927,159.297 49.391,159.205 44.854,159.675 "/>
</g>
<g id="ID000003" clip-path="url(#ID000001)" >
      <polyline fill="none" stroke="#69bd45" stroke-width="2.0pt" stroke-dasharray="none" points="44.854,173.302 49.391,172.715 53.927,172.743 58.464,172.134 63.001,171.579 67.538,169.732 72.075,169.168 76.611,169.433 81.148,169.177 85.685,170.575 90.222,170.372 94.759,170.503 99.295,170.724 103.832,170.582 108.369,170.362 112.906,170.564 117.443,170.210 121.980,170.594 126.516,169.247 131.053,168.286 135.590,164.890 140.127,164.165 144.664,161.673 149.200,160.351 153.737,159.419 158.274,159.477 162.811,160.377 167.348,162.734 171.884,164.109 176.421,166.697 180.958,169.859 185.495,170.195 190.032,170.363 194.568,170.307 199.105,170.809 203.642,170.683 208.179,169.511 212.716,168.465 217.252,165.489 221.789,162.292 226.326,158.133 230.863,155.559 235.400,153.365 239.937,151.202 244.473,147.809 249.010,146.914 253.547,144.390 258.084,143.102 262.621,141.963 267.157,141.493 271.694,140.110 276.231,140.271 280.768,138.918 285.305,137.704 289.841,139.214 294.378,141.177 298.915,143.109 303.452,144.519 307.989,147.573 312.525,148.060 317.062,149.570 321.599,152.321 326.136,152.838 330.673,155.589 335.209,157.667 339.746,159.010 344.283,161.219 348.820,162.751 353.357,164.785 357.894,165.825 362.430,167.649 366.967,169.329 371.504,170.523 376.041,171.226 380.578,172.203 385.114,173.012 389.651,172.907 394.188,174.529 398.725,176.147 403.262,176.519 407.798,178.526 412.335,178.133 416.872,180.802 421.409,183.404 425.946,185.039 430.482,187.386 435.019,187.862 439.556,189.790 444.093,189.787 448.630,190.829 453.166,191.484 457.703,192.276 462.240,193.573 466.777,193.245 471.314,193.396 475.851,195.562 480.387,196.079 484.924,197.669 489.461,199.084 493.998,199.388 498.535,198.980 503.071,198.871 507.608,201.182 "/>
<g>
</g>
</g>
<g id="ID000004" clip-path="url(#ID000001)" >
<rect x="137.858" y="94.326" width="91.708" height="7.991" rx="0.000" ry="0.000" fill="#ffff00" stroke="#000000" stroke-width="0.5pt" stroke-dasharray="none" />
</g>
<g id="ID000005" >
  <g transform="translate(229.567,25.781)">
    <g transform="rotate(-0.0)">
      <text x="0.000" y="0.000" font-family="Helvetica" text-anchor="start" font-size="8pt" fill="#e5e5e5" >n = 7 mice</text>
    </g>
  </g>
</g>
<g id="ID000006" >
  <g transform="translate(229.567,41.763)">
    <g transform="rotate(-0.0)">
      <text x="0.000" y="0.000" font-family="Helvetica" text-anchor="start" font-size="8pt" fill="#e5e5e5" >n = 1688 trials</text>
    </g>
  </g>
</g>
<g id="ID000007" >
  <g transform="translate(229.567,57.745)">
    <g transform="rotate(-0.0)">
      <text x="0.000" y="0.000" font-family="Helvetica" text-anchor="start" font-size="8pt" fill="#e5e5e5" >Across 12 sessions</text>
    </g>
  </g>
</g>
<g id="ID000008" clip-path="url(#ID000001)" >
      <polygon fill="#b32800" fill-opacity="0.15" stroke="none" stroke-width="0.5pt" stroke-opacity="1.00" stroke-dasharray="none" points="44.854,160.998 49.391,164.750 53.927,163.517 58.464,163.562 63.001,165.194 67.538,169.086 72.075,168.291 76.611,173.264 81.148,174.857 85.685,175.837 90.222,173.681 94.759,176.359 99.295,176.469 103.832,176.001 108.369,176.189 112.906,177.358 117.443,175.633 121.980,175.549 126.516,176.189 131.053,172.792 135.590,175.609 140.127,178.462 144.664,176.032 149.200,175.938 153.737,179.400 158.274,178.528 162.811,179.358 167.348,174.955 171.884,172.450 176.421,166.460 180.958,165.835 185.495,160.482 190.032,159.803 194.568,154.243 199.105,157.208 203.642,159.029 208.179,155.977 212.716,154.599 217.252,154.352 221.789,153.403 226.326,152.202 230.863,149.499 235.400,149.360 239.937,150.159 244.473,153.098 249.010,152.866 253.547,156.705 258.084,157.331 262.621,156.528 267.157,157.962 271.694,154.142 276.231,152.363 280.768,152.207 285.305,151.158 289.841,150.528 294.378,150.726 298.915,148.881 303.452,149.375 307.989,146.760 312.525,142.532 317.062,144.056 321.599,143.840 326.136,146.535 330.673,149.988 335.209,150.942 339.746,149.376 344.283,152.060 348.820,148.870 353.357,156.369 357.894,149.370 362.430,151.321 366.967,153.122 371.504,153.550 376.041,154.716 380.578,151.016 385.114,147.450 389.651,149.964 394.188,148.159 398.725,152.314 403.262,147.227 407.798,150.014 412.335,154.075 416.872,153.670 421.409,154.252 425.946,154.603 430.482,153.565 435.019,147.516 439.556,145.046 444.093,144.624 448.630,145.797 453.166,147.921 457.703,146.181 462.240,151.078 466.777,148.199 471.314,147.245 475.851,144.847 480.387,144.524 484.924,142.789 489.461,148.607 493.998,145.853 498.535,151.371 503.071,151.513 507.608,150.127 507.608,110.102 503.071,108.491 498.535,108.532 493.998,108.531 489.461,108.725 484.924,107.733 480.387,108.307 475.851,111.669 471.314,112.115 466.777,113.161 462.240,114.971 457.703,113.971 453.166,117.753 448.630,114.455 444.093,113.346 439.556,114.741 435.019,115.100 430.482,119.278 425.946,120.422 421.409,121.571 416.872,120.028 412.335,120.068 407.798,118.961 403.262,118.526 398.725,119.797 394.188,117.613 389.651,118.549 385.114,116.067 380.578,115.584 376.041,118.014 371.504,117.144 366.967,117.493 362.430,116.461 357.894,116.059 353.357,117.701 348.820,115.769 344.283,117.219 339.746,117.849 335.209,117.411 330.673,116.218 326.136,113.941 321.599,111.120 317.062,110.059 312.525,107.649 307.989,109.172 303.452,110.167 298.915,110.520 294.378,111.529 289.841,111.641 285.305,110.061 280.768,109.154 276.231,110.534 271.694,110.003 267.157,112.933 262.621,111.038 258.084,109.266 253.547,108.894 249.010,107.370 244.473,107.866 239.937,107.761 235.400,107.326 230.863,108.061 226.326,109.353 221.789,109.164 217.252,110.612 212.716,110.483 208.179,112.191 203.642,116.233 199.105,116.577 194.568,116.243 190.032,120.732 185.495,123.442 180.958,129.022 176.421,131.037 171.884,135.956 167.348,138.704 162.811,140.145 158.274,139.641 153.737,141.026 149.200,141.628 144.664,144.121 140.127,146.304 135.590,147.024 131.053,147.292 126.516,146.881 121.980,148.922 117.443,148.854 112.906,150.075 108.369,148.967 103.832,149.937 99.295,149.894 94.759,148.782 90.222,149.742 85.685,148.510 81.148,149.146 76.611,148.596 72.075,145.562 67.538,144.230 63.001,141.873 58.464,140.220 53.927,140.444 49.391,139.405 44.854,137.592 "/>
</g>
<g id="ID000009" clip-path="url(#ID000001)" >
      <polyline fill="none" stroke="#b32800" stroke-width="2.0pt" stroke-dasharray="none" points="44.854,149.295 49.391,152.077 53.927,151.981 58.464,151.891 63.001,153.534 67.538,156.658 72.075,156.926 76.611,160.930 81.148,162.001 85.685,162.173 90.222,161.712 94.759,162.571 99.295,163.181 103.832,162.969 108.369,162.578 112.906,163.717 117.443,162.243 121.980,162.236 126.516,161.535 131.053,160.042 135.590,161.316 140.127,162.383 144.664,160.076 149.200,158.783 153.737,160.213 158.274,159.085 162.811,159.752 167.348,156.830 171.884,154.203 176.421,148.749 180.958,147.429 185.495,141.962 190.032,140.268 194.568,135.243 199.105,136.893 203.642,137.631 208.179,134.084 212.716,132.541 217.252,132.482 221.789,131.284 226.326,130.777 230.863,128.780 235.400,128.343 239.937,128.960 244.473,130.482 249.010,130.118 253.547,132.799 258.084,133.299 262.621,133.783 267.157,135.447 271.694,132.073 276.231,131.448 280.768,130.681 285.305,130.609 289.841,131.084 294.378,131.128 298.915,129.701 303.452,129.771 307.989,127.966 312.525,125.091 317.062,127.057 321.599,127.480 326.136,130.238 330.673,133.103 335.209,134.176 339.746,133.612 344.283,134.639 348.820,132.320 353.357,137.035 357.894,132.715 362.430,133.891 366.967,135.308 371.504,135.347 376.041,136.365 380.578,133.300 385.114,131.758 389.651,134.257 394.188,132.886 398.725,136.055 403.262,132.876 407.798,134.487 412.335,137.072 416.872,136.849 421.409,137.911 425.946,137.513 430.482,136.422 435.019,131.308 439.556,129.894 444.093,128.985 448.630,130.126 453.166,132.837 457.703,130.076 462.240,133.025 466.777,130.680 471.314,129.680 475.851,128.258 480.387,126.416 484.924,125.261 489.461,128.666 493.998,127.192 498.535,129.952 503.071,130.002 507.608,130.114 "/>
<g>
</g>
</g>
<g id="ID000010" clip-path="url(#ID000001)" >
<rect x="137.858" y="94.326" width="91.708" height="7.991" rx="0.000" ry="0.000" fill="#ffff00" stroke="#000000" stroke-width="0.5pt" stroke-dasharray="none" />
</g>
<g id="ID000011" >
  <g transform="translate(229.567,25.781)">
    <g transform="rotate(-0.0)">
      <text x="0.000" y="0.000" font-family="Helvetica" text-anchor="start" font-size="8pt" fill="#e5e5e5" >n = 7 mice</text>
    </g>
  </g>
</g>
<g id="ID000012" >
  <g transform="translate(229.567,41.763)">
    <g transform="rotate(-0.0)">
      <text x="0.000" y="0.000" font-family="Helvetica" text-anchor="start" font-size="8pt" fill="#e5e5e5" >n = 1688 trials</text>
    </g>
  </g>
</g>
<g id="ID000013" >
  <g transform="translate(229.567,57.745)">
    <g transform="rotate(-0.0)">
      <text x="0.000" y="0.000" font-family="Helvetica" text-anchor="start" font-size="8pt" fill="#e5e5e5" >Across 12 sessions</text>
    </g>
  </g>
</g>
<g id="ID000014" clip-path="url(#ID000001)" >
      <polygon fill="#000000" fill-opacity="0.15" stroke="none" stroke-width="0.5pt" stroke-opacity="1.00" stroke-dasharray="none" points="44.854,157.766 49.391,160.335 53.927,159.307 58.464,159.205 63.001,159.277 67.538,160.076 72.075,160.319 76.611,161.629 81.148,161.107 85.685,162.192 90.222,162.484 94.759,164.151 99.295,162.425 103.832,163.386 108.369,162.791 112.906,162.923 117.443,162.035 121.980,162.571 126.516,162.782 131.053,161.485 135.590,161.148 140.127,161.851 144.664,161.576 149.200,161.375 153.737,163.848 158.274,162.376 162.811,162.749 167.348,163.373 171.884,161.919 176.421,161.015 180.958,161.845 185.495,163.637 190.032,163.440 194.568,161.711 199.105,162.169 203.642,161.872 208.179,159.858 212.716,160.203 217.252,159.375 221.789,158.057 226.326,158.640 230.863,157.925 235.400,157.837 239.937,158.461 244.473,159.323 249.010,158.705 253.547,158.398 258.084,158.137 262.621,158.413 267.157,158.021 271.694,157.603 276.231,156.718 280.768,157.063 285.305,157.064 289.841,156.447 294.378,155.736 298.915,154.370 303.452,154.147 307.989,153.252 312.525,153.958 317.062,154.856 321.599,154.092 326.136,155.768 330.673,155.307 335.209,154.567 339.746,155.918 344.283,156.191 348.820,156.962 353.357,156.315 357.894,157.699 362.430,155.682 366.967,156.723 371.504,157.030 376.041,157.119 380.578,158.587 385.114,158.666 389.651,159.741 394.188,160.572 398.725,158.662 403.262,160.145 407.798,159.989 412.335,159.228 416.872,159.438 421.409,160.002 425.946,161.011 430.482,161.168 435.019,160.202 439.556,160.942 444.093,160.362 448.630,160.845 453.166,161.357 457.703,159.647 462.240,159.739 466.777,158.591 471.314,157.996 475.851,157.234 480.387,157.022 484.924,155.873 489.461,156.882 493.998,155.665 498.535,156.077 503.071,154.428 507.608,153.703 507.608,133.574 503.071,134.364 498.535,134.593 493.998,134.552 489.461,135.141 484.924,135.628 480.387,136.031 475.851,136.091 471.314,136.587 466.777,137.306 462.240,137.884 457.703,137.317 453.166,138.302 448.630,137.074 444.093,137.522 439.556,137.917 435.019,137.403 430.482,137.254 425.946,137.492 421.409,136.860 416.872,136.644 412.335,136.484 407.798,136.278 403.262,136.006 398.725,134.767 394.188,136.750 389.651,136.027 385.114,134.846 380.578,134.996 376.041,134.597 371.504,134.662 366.967,134.360 362.430,133.409 357.894,134.356 353.357,133.993 348.820,134.181 344.283,133.962 339.746,133.800 335.209,133.084 330.673,132.866 326.136,133.682 321.599,132.563 317.062,133.266 312.525,132.883 307.989,132.776 303.452,133.319 298.915,133.533 294.378,134.039 289.841,134.474 285.305,135.134 280.768,135.573 276.231,135.312 271.694,136.491 267.157,137.199 262.621,137.900 258.084,137.575 253.547,138.202 249.010,138.029 244.473,138.271 239.937,137.913 235.400,138.050 230.863,137.664 226.326,137.973 221.789,138.071 217.252,139.354 212.716,140.474 208.179,140.746 203.642,141.379 199.105,141.991 194.568,142.197 190.032,143.769 185.495,143.777 180.958,142.918 176.421,142.790 171.884,143.507 167.348,144.348 162.811,144.466 158.274,143.834 153.737,144.056 149.200,142.848 144.664,142.999 140.127,142.645 135.590,142.392 131.053,143.132 126.516,143.169 121.980,143.082 117.443,143.281 112.906,143.066 108.369,143.014 103.832,143.708 99.295,143.528 94.759,144.317 90.222,143.844 85.685,143.629 81.148,142.899 76.611,143.308 72.075,142.761 67.538,142.128 63.001,141.012 58.464,140.616 53.927,140.378 49.391,140.759 44.854,138.871 "/>
</g>
<g id="ID000015" clip-path="url(#ID000001)" >
      <polyline fill="none" stroke="#000000" stroke-width="2.0pt" stroke-dasharray="none" points="44.854,148.319 49.391,150.547 53.927,149.843 58.464,149.910 63.001,150.144 67.538,151.102 72.075,151.540 76.611,152.468 81.148,152.003 85.685,152.910 90.222,153.164 94.759,154.234 99.295,152.976 103.832,153.547 108.369,152.902 112.906,152.994 117.443,152.658 121.980,152.827 126.516,152.976 131.053,152.308 135.590,151.770 140.127,152.248 144.664,152.287 149.200,152.111 153.737,153.952 158.274,153.105 162.811,153.608 167.348,153.860 171.884,152.713 176.421,151.902 180.958,152.381 185.495,153.707 190.032,153.604 194.568,151.954 199.105,152.080 203.642,151.625 208.179,150.302 212.716,150.338 217.252,149.364 221.789,148.064 226.326,148.307 230.863,147.794 235.400,147.943 239.937,148.187 244.473,148.797 249.010,148.367 253.547,148.300 258.084,147.856 262.621,148.156 267.157,147.610 271.694,147.047 276.231,146.015 280.768,146.318 285.305,146.099 289.841,145.461 294.378,144.887 298.915,143.952 303.452,143.733 307.989,143.014 312.525,143.421 317.062,144.061 321.599,143.328 326.136,144.725 330.673,144.086 335.209,143.825 339.746,144.859 344.283,145.076 348.820,145.572 353.357,145.154 357.894,146.027 362.430,144.546 366.967,145.542 371.504,145.846 376.041,145.858 380.578,146.792 385.114,146.756 389.651,147.884 394.188,148.661 398.725,146.715 403.262,148.076 407.798,148.134 412.335,147.856 416.872,148.041 421.409,148.431 425.946,149.251 430.482,149.211 435.019,148.802 439.556,149.429 444.093,148.942 448.630,148.959 453.166,149.829 457.703,148.482 462.240,148.811 466.777,147.948 471.314,147.291 475.851,146.663 480.387,146.527 484.924,145.751 489.461,146.011 493.998,145.109 498.535,145.335 503.071,144.396 507.608,143.639 "/>
<g>
</g>
</g>
<g id="ID000016" clip-path="url(#ID000001)" >
<rect x="137.858" y="94.326" width="91.708" height="7.991" rx="0.000" ry="0.000" fill="#ffff00" stroke="#000000" stroke-width="0.5pt" stroke-dasharray="none" />
</g>
<g id="ID000017" >
  <g transform="translate(229.567,25.781)">
    <g transform="rotate(-0.0)">
      <text x="0.000" y="0.000" font-family="Helvetica" text-anchor="start" font-size="8pt" fill="#e5e5e5" >n = 7 mice</text>
    </g>
  </g>
</g>
<g id="ID000018" >
  <g transform="translate(229.567,41.763)">
    <g transform="rotate(-0.0)">
      <text x="0.000" y="0.000" font-family="Helvetica" text-anchor="start" font-size="8pt" fill="#e5e5e5" >n = 1688 trials</text>
    </g>
  </g>
</g>
<g id="ID000019" >
  <g transform="translate(229.567,57.745)">
    <g transform="rotate(-0.0)">
      <text x="0.000" y="0.000" font-family="Helvetica" text-anchor="start" font-size="8pt" fill="#e5e5e5" >Across 12 sessions</text>
    </g>
  </g>
</g>
<g id="ID000020" clip-path="url(#ID000001)" >
<g>
</g>
</g>
<g id="ID000021" clip-path="url(#ID000001)" >
<rect x="137.858" y="94.326" width="91.708" height="7.991" rx="0.000" ry="0.000" fill="#ffff00" stroke="#000000" stroke-width="0.5pt" stroke-dasharray="none" />
</g>
<g id="ID000022" >
  <g transform="translate(229.567,25.781)">
    <g transform="rotate(-0.0)">
      <text x="0.000" y="0.000" font-family="Helvetica" text-anchor="start" font-size="8pt" fill="#e5e5e5" >n = 7 mice</text>
    </g>
  </g>
</g>
<g id="ID000023" >
  <g transform="translate(229.567,41.763)">
    <g transform="rotate(-0.0)">
      <text x="0.000" y="0.000" font-family="Helvetica" text-anchor="start" font-size="8pt" fill="#e5e5e5" >n = 1688 trials</text>
    </g>
  </g>
</g>
<g id="ID000024" >
  <g transform="translate(229.567,57.745)">
    <g transform="rotate(-0.0)">
      <text x="0.000" y="0.000" font-family="Helvetica" text-anchor="start" font-size="8pt" fill="#e5e5e5" >Across 12 sessions</text>
    </g>
  </g>
</g>
    </g>
    <g>
      <polyline fill="none" stroke="#262626" stroke-width="3.0pt" stroke-dasharray="none" points="46.150,262.137 46.150,267.640 "/>
      <polyline fill="none" stroke="#262626" stroke-width="3.0pt" stroke-dasharray="none" points="137.858,262.137 137.858,267.640 "/>
      <polyline fill="none" stroke="#262626" stroke-width="3.0pt" stroke-dasharray="none" points="229.567,262.137 229.567,267.640 "/>
      <polyline fill="none" stroke="#262626" stroke-width="3.0pt" stroke-dasharray="none" points="321.275,262.137 321.275,267.640 "/>
      <polyline fill="none" stroke="#262626" stroke-width="3.0pt" stroke-dasharray="none" points="46.150,262.137 321.275,262.137 "/>
  <g transform="translate(46.150,298.277)">
    <g transform="rotate(-0.0)">
      <text x="0.000" y="0.000" font-family="Helvetica" text-anchor="middle" font-size="22pt" fill="#262626" >-1</text>
    </g>
  </g>
  <g transform="translate(137.858,298.277)">
    <g transform="rotate(-0.0)">
      <text x="0.000" y="0.000" font-family="Helvetica" text-anchor="middle" font-size="22pt" fill="#262626" >0</text>
    </g>
  </g>
  <g transform="translate(229.567,298.277)">
    <g transform="rotate(-0.0)">
      <text x="0.000" y="0.000" font-family="Helvetica" text-anchor="middle" font-size="22pt" fill="#262626" >1</text>
    </g>
  </g>
  <g transform="translate(321.275,298.277)">
    <g transform="rotate(-0.0)">
      <text x="0.000" y="0.000" font-family="Helvetica" text-anchor="middle" font-size="22pt" fill="#262626" >2</text>
    </g>
  </g>
      <polyline fill="none" stroke="#262626" stroke-width="3.0pt" stroke-dasharray="none" points="46.150,262.137 40.648,262.137 "/>
      <polyline fill="none" stroke="#262626" stroke-width="3.0pt" stroke-dasharray="none" points="46.150,182.227 40.648,182.227 "/>
      <polyline fill="none" stroke="#262626" stroke-width="3.0pt" stroke-dasharray="none" points="46.150,102.317 40.648,102.317 "/>
      <polyline fill="none" stroke="#262626" stroke-width="3.0pt" stroke-dasharray="none" points="46.150,22.406 40.648,22.406 "/>
      <polyline fill="none" stroke="#262626" stroke-width="3.0pt" stroke-dasharray="none" points="46.150,262.137 46.150,22.406 "/>
  <g transform="translate(35.145,272.262)">
    <g transform="rotate(-0.0)">
      <text x="0.000" y="0.000" font-family="Helvetica" text-anchor="end" font-size="22pt" fill="#262626" >-1</text>
    </g>
  </g>
  <g transform="translate(35.145,192.352)">
    <g transform="rotate(-0.0)">
      <text x="0.000" y="0.000" font-family="Helvetica" text-anchor="end" font-size="22pt" fill="#262626" >0</text>
    </g>
  </g>
  <g transform="translate(35.145,112.442)">
    <g transform="rotate(-0.0)">
      <text x="0.000" y="0.000" font-family="Helvetica" text-anchor="end" font-size="22pt" fill="#262626" >1</text>
    </g>
  </g>
  <g transform="translate(35.145,32.531)">
    <g transform="rotate(-0.0)">
      <text x="0.000" y="0.000" font-family="Helvetica" text-anchor="end" font-size="22pt" fill="#262626" >2</text>
    </g>
  </g>
      <polyline fill="none" stroke="#262626" stroke-width="3.0pt" stroke-dasharray="none" points="46.150,262.137 46.150,266.932 "/>
      <polyline fill="none" stroke="#262626" stroke-width="3.0pt" stroke-dasharray="none" points="46.150,262.137 46.150,266.932 "/>
      <polyline fill="none" stroke="#262626" stroke-width="3.0pt" stroke-dasharray="none" points="46.150,262.137 46.150,266.932 "/>
      <polyline fill="none" stroke="#262626" stroke-width="3.0pt" stroke-dasharray="none" points="46.150,262.137 46.150,262.137 "/>
    </g>
  </g>
  </g>
</svg>
