<?xml version="1.0" encoding="utf-8" standalone="no"?><!DOCTYPE svg PUBLIC "-//W3C//DTD SVG 1.1//EN" "http://www.w3.org/Graphics/SVG/1.1/DTD/svg11.dtd">
<svg preserveAspectRatio="xMinYMin meet" width="100%" height="100%" viewBox="0 0 355.000 298.750"  version="1.1" xmlns="http://www.w3.org/2000/svg" xmlns:xlink="http://www.w3.org/1999/xlink">
  <desc>Matlab Figure Converted by PLOT2SVG written by Juerg Schwizer</desc>
  <g id="topgroup">
  <rect x="0" y="0" width="355.000" height="298.750" fill="#ffffff" stroke="none" />
  <g id ="ID000000">
  <clipPath id="ID000001">
    <rect x="46.150" y="22.406" width="275.125" height="239.731"/>
  </clipPath>
      <polygon fill="#ffffff" fill-opacity="1.00" stroke="none" stroke-width="3.0pt" stroke-opacity="1.00" stroke-dasharray="none" points="46.150,262.137 321.275,262.137 321.275,22.406 46.150,22.406 "/>
      <polygon fill="#ffffff" fill-opacity="1.00" stroke="none" stroke-width="3.0pt" stroke-opacity="1.00" stroke-dasharray="none" points="46.150,262.137 321.275,262.137 321.275,262.137 46.150,262.137 "/>
      <polygon fill="#ffffff" fill-opacity="1.00" stroke="none" stroke-width="3.0pt" stroke-opacity="1.00" stroke-dasharray="none" points="46.150,262.137 46.150,262.137 46.150,22.406 46.150,22.406 "/>
    <g>
<g id="ID000002" clip-path="url(#ID000001)" >
      <polygon fill="#69bd45" fill-opacity="0.15" stroke="none" stroke-width="0.5pt" stroke-opacity="1.00" stroke-dasharray="none" points="45.372,177.743 48.094,176.649 50.816,179.204 53.539,179.631 56.261,181.615 58.983,184.084 61.705,185.432 64.427,188.169 67.149,187.302 69.871,187.877 72.593,189.328 75.315,189.881 78.037,189.442 80.759,189.502 83.481,187.565 86.204,185.207 88.926,182.343 91.648,180.506 94.370,177.558 97.092,174.458 99.814,172.008 102.536,167.028 105.258,163.771 107.980,162.378 110.702,158.772 113.424,153.312 116.146,147.487 118.869,142.958 121.591,144.201 124.313,145.444 127.035,150.974 129.757,154.109 132.479,160.117 135.201,165.272 137.923,167.123 140.645,170.172 143.367,173.986 146.089,178.138 148.811,181.279 151.534,185.422 154.256,188.956 156.978,190.044 159.700,193.311 162.422,194.624 165.144,196.406 167.866,199.190 170.588,202.017 173.310,204.052 176.032,203.631 178.754,205.271 181.477,206.702 184.199,208.000 186.921,208.018 189.643,209.809 192.365,210.471 195.087,210.749 197.809,210.867 200.531,212.452 203.253,212.783 205.975,214.172 208.697,215.077 211.419,216.006 214.142,216.233 216.864,217.373 219.586,218.690 222.308,219.198 225.030,220.657 227.752,221.360 230.474,223.187 233.196,225.366 235.918,225.313 238.640,227.064 241.362,227.813 244.084,229.846 246.807,228.475 249.529,230.456 252.251,231.072 254.973,232.104 257.695,232.008 260.417,232.772 263.139,232.583 265.861,232.743 268.583,232.877 271.305,233.176 274.027,234.498 276.749,234.549 279.472,233.354 282.194,234.613 284.916,234.203 287.638,234.639 290.360,234.560 293.082,236.080 295.804,236.342 298.526,236.672 301.248,237.104 303.970,237.495 306.692,238.422 309.414,238.822 312.137,239.226 314.859,240.309 317.581,240.613 320.303,241.900 323.025,241.942 323.025,207.211 320.303,207.176 317.581,204.421 314.859,203.894 312.137,202.925 309.414,201.243 306.692,201.325 303.970,198.053 301.248,197.825 298.526,197.164 295.804,197.573 293.082,198.009 290.360,197.235 287.638,197.751 284.916,198.058 282.194,197.920 279.472,198.089 276.749,199.003 274.027,200.158 271.305,199.001 268.583,201.018 265.861,202.880 263.139,202.441 260.417,203.683 257.695,203.703 254.973,202.975 252.251,201.738 249.529,200.622 246.807,197.485 244.084,199.789 241.362,196.980 238.640,195.493 235.918,193.993 233.196,193.135 230.474,190.498 227.752,188.966 225.030,188.574 222.308,187.408 219.586,186.741 216.864,185.983 214.142,185.338 211.419,185.356 208.697,183.866 205.975,183.417 203.253,182.969 200.531,182.264 197.809,182.087 195.087,181.775 192.365,182.285 189.643,180.636 186.921,179.196 184.199,179.039 181.477,177.666 178.754,176.852 176.032,175.680 173.310,175.268 170.588,172.922 167.866,170.283 165.144,167.834 162.422,165.453 159.700,163.144 156.978,159.508 154.256,157.961 151.534,154.510 148.811,149.910 146.089,145.973 143.367,141.384 140.645,136.792 137.923,132.763 135.201,128.582 132.479,123.428 129.757,117.061 127.035,112.907 124.313,108.579 121.591,105.374 118.869,104.004 116.146,105.804 113.424,108.226 110.702,110.060 107.980,112.432 105.258,112.425 102.536,116.322 99.814,123.021 97.092,128.851 94.370,133.852 91.648,139.614 88.926,144.334 86.204,149.882 83.481,153.769 80.759,157.849 78.037,159.313 75.315,160.544 72.593,160.552 69.871,160.366 67.149,160.081 64.427,159.977 61.705,158.891 58.983,157.826 56.261,156.244 53.539,153.682 50.816,152.649 48.094,151.106 45.372,151.162 "/>
</g>
<g id="ID000003" clip-path="url(#ID000001)" >
      <polyline fill="none" stroke="#69bd45" stroke-width="2.0pt" stroke-dasharray="none" points="45.372,164.452 48.094,163.878 50.816,165.927 53.539,166.657 56.261,168.930 58.983,170.955 61.705,172.162 64.427,174.073 67.149,173.691 69.871,174.122 72.593,174.940 75.315,175.212 78.037,174.377 80.759,173.676 83.481,170.667 86.204,167.544 88.926,163.338 91.648,160.060 94.370,155.705 97.092,151.654 99.814,147.514 102.536,141.675 105.258,138.098 107.980,137.405 110.702,134.416 113.424,130.769 116.146,126.645 118.869,123.481 121.591,124.788 124.313,127.011 127.035,131.940 129.757,135.585 132.479,141.773 135.201,146.927 137.923,149.943 140.645,153.482 143.367,157.685 146.089,162.056 148.811,165.594 151.534,169.966 154.256,173.459 156.978,174.776 159.700,178.227 162.422,180.038 165.144,182.120 167.866,184.737 170.588,187.470 173.310,189.660 176.032,189.655 178.754,191.062 181.477,192.184 184.199,193.520 186.921,193.607 189.643,195.222 192.365,196.378 195.087,196.262 197.809,196.477 200.531,197.358 203.253,197.876 205.975,198.795 208.697,199.471 211.419,200.681 214.142,200.785 216.864,201.678 219.586,202.715 222.308,203.303 225.030,204.615 227.752,205.163 230.474,206.843 233.196,209.251 235.918,209.653 238.640,211.279 241.362,212.396 244.084,214.817 246.807,212.980 249.529,215.539 252.251,216.405 254.973,217.540 257.695,217.856 260.417,218.228 263.139,217.512 265.861,217.812 268.583,216.948 271.305,216.089 274.027,217.328 276.749,216.776 279.472,215.721 282.194,216.267 284.916,216.131 287.638,216.195 290.360,215.898 293.082,217.044 295.804,216.958 298.526,216.918 301.248,217.465 303.970,217.774 306.692,219.874 309.414,220.032 312.137,221.076 314.859,222.101 317.581,222.517 320.303,224.538 323.025,224.576 "/>
<g>
</g>
</g>
<g id="ID000004" clip-path="url(#ID000001)" >
      <polyline fill="none" stroke="#000000" stroke-width="1.5pt" stroke-dasharray="8.0,2.0" points="101.175,581.779 101.175,-1415.981 "/>
<g>
</g>
</g>
<g id="ID000005" >
  <g transform="translate(156.200,25.781)">
    <g transform="rotate(-0.0)">
      <text x="0.000" y="0.000" font-family="Helvetica" text-anchor="start" font-size="8pt" fill="#e5e5e5" >n = 7 mice</text>
    </g>
  </g>
</g>
<g id="ID000006" >
  <g transform="translate(156.200,41.763)">
    <g transform="rotate(-0.0)">
      <text x="0.000" y="0.000" font-family="Helvetica" text-anchor="start" font-size="8pt" fill="#e5e5e5" >n = 1688 trials</text>
    </g>
  </g>
</g>
<g id="ID000007" >
  <g transform="translate(156.200,57.745)">
    <g transform="rotate(-0.0)">
      <text x="0.000" y="0.000" font-family="Helvetica" text-anchor="start" font-size="8pt" fill="#e5e5e5" >Across 12 sessions</text>
    </g>
  </g>
</g>
<g id="ID000008" clip-path="url(#ID000001)" >
<g>
</g>
</g>
<g id="ID000009" clip-path="url(#ID000001)" >
      <polyline fill="none" stroke="#000000" stroke-width="1.5pt" stroke-dasharray="8.0,2.0" points="101.175,581.779 101.175,-1415.981 "/>
<g>
</g>
</g>
<g id="ID000010" >
  <g transform="translate(156.200,25.781)">
    <g transform="rotate(-0.0)">
      <text x="0.000" y="0.000" font-family="Helvetica" text-anchor="start" font-size="8pt" fill="#e5e5e5" >n = 7 mice</text>
    </g>
  </g>
</g>
<g id="ID000011" >
  <g transform="translate(156.200,41.763)">
    <g transform="rotate(-0.0)">
      <text x="0.000" y="0.000" font-family="Helvetica" text-anchor="start" font-size="8pt" fill="#e5e5e5" >n = 1688 trials</text>
    </g>
  </g>
</g>
<g id="ID000012" >
  <g transform="translate(156.200,57.745)">
    <g transform="rotate(-0.0)">
      <text x="0.000" y="0.000" font-family="Helvetica" text-anchor="start" font-size="8pt" fill="#e5e5e5" >Across 12 sessions</text>
    </g>
  </g>
</g>
<g id="ID000013" clip-path="url(#ID000001)" >
<g>
</g>
</g>
<g id="ID000014" clip-path="url(#ID000001)" >
      <polyline fill="none" stroke="#000000" stroke-width="1.5pt" stroke-dasharray="8.0,2.0" points="101.175,581.779 101.175,-1415.981 "/>
<g>
</g>
</g>
<g id="ID000015" >
  <g transform="translate(156.200,25.781)">
    <g transform="rotate(-0.0)">
      <text x="0.000" y="0.000" font-family="Helvetica" text-anchor="start" font-size="8pt" fill="#e5e5e5" >n = 7 mice</text>
    </g>
  </g>
</g>
<g id="ID000016" >
  <g transform="translate(156.200,41.763)">
    <g transform="rotate(-0.0)">
      <text x="0.000" y="0.000" font-family="Helvetica" text-anchor="start" font-size="8pt" fill="#e5e5e5" >n = 1688 trials</text>
    </g>
  </g>
</g>
<g id="ID000017" >
  <g transform="translate(156.200,57.745)">
    <g transform="rotate(-0.0)">
      <text x="0.000" y="0.000" font-family="Helvetica" text-anchor="start" font-size="8pt" fill="#e5e5e5" >Across 12 sessions</text>
    </g>
  </g>
</g>
<g id="ID000018" clip-path="url(#ID000001)" >
<g>
</g>
</g>
<g id="ID000019" clip-path="url(#ID000001)" >
      <polyline fill="none" stroke="#000000" stroke-width="1.5pt" stroke-dasharray="8.0,2.0" points="101.175,581.779 101.175,-1415.981 "/>
<g>
</g>
</g>
<g id="ID000020" >
  <g transform="translate(156.200,25.781)">
    <g transform="rotate(-0.0)">
      <text x="0.000" y="0.000" font-family="Helvetica" text-anchor="start" font-size="8pt" fill="#e5e5e5" >n = 7 mice</text>
    </g>
  </g>
</g>
<g id="ID000021" >
  <g transform="translate(156.200,41.763)">
    <g transform="rotate(-0.0)">
      <text x="0.000" y="0.000" font-family="Helvetica" text-anchor="start" font-size="8pt" fill="#e5e5e5" >n = 1688 trials</text>
    </g>
  </g>
</g>
<g id="ID000022" >
  <g transform="translate(156.200,57.745)">
    <g transform="rotate(-0.0)">
      <text x="0.000" y="0.000" font-family="Helvetica" text-anchor="start" font-size="8pt" fill="#e5e5e5" >Across 12 sessions</text>
    </g>
  </g>
</g>
    </g>
    <g>
      <polyline fill="none" stroke="#262626" stroke-width="3.0pt" stroke-dasharray="none" points="101.175,262.137 101.175,267.640 "/>
      <polyline fill="none" stroke="#262626" stroke-width="3.0pt" stroke-dasharray="none" points="211.225,262.137 211.225,267.640 "/>
      <polyline fill="none" stroke="#262626" stroke-width="3.0pt" stroke-dasharray="none" points="321.275,262.137 321.275,267.640 "/>
      <polyline fill="none" stroke="#262626" stroke-width="3.0pt" stroke-dasharray="none" points="46.150,262.137 321.275,262.137 "/>
  <g transform="translate(101.175,298.277)">
    <g transform="rotate(-0.0)">
      <text x="0.000" y="0.000" font-family="Helvetica" text-anchor="middle" font-size="22pt" fill="#262626" >0</text>
    </g>
  </g>
  <g transform="translate(211.225,298.277)">
    <g transform="rotate(-0.0)">
      <text x="0.000" y="0.000" font-family="Helvetica" text-anchor="middle" font-size="22pt" fill="#262626" >2</text>
    </g>
  </g>
  <g transform="translate(321.275,298.277)">
    <g transform="rotate(-0.0)">
      <text x="0.000" y="0.000" font-family="Helvetica" text-anchor="middle" font-size="22pt" fill="#262626" >4</text>
    </g>
  </g>
      <polyline fill="none" stroke="#262626" stroke-width="3.0pt" stroke-dasharray="none" points="46.150,262.137 40.648,262.137 "/>
      <polyline fill="none" stroke="#262626" stroke-width="3.0pt" stroke-dasharray="none" points="46.150,182.227 40.648,182.227 "/>
      <polyline fill="none" stroke="#262626" stroke-width="3.0pt" stroke-dasharray="none" points="46.150,102.317 40.648,102.317 "/>
      <polyline fill="none" stroke="#262626" stroke-width="3.0pt" stroke-dasharray="none" points="46.150,22.406 40.648,22.406 "/>
      <polyline fill="none" stroke="#262626" stroke-width="3.0pt" stroke-dasharray="none" points="46.150,262.137 46.150,22.406 "/>
  <g transform="translate(35.145,272.262)">
    <g transform="rotate(-0.0)">
      <text x="0.000" y="0.000" font-family="Helvetica" text-anchor="end" font-size="22pt" fill="#262626" >-1</text>
    </g>
  </g>
  <g transform="translate(35.145,192.352)">
    <g transform="rotate(-0.0)">
      <text x="0.000" y="0.000" font-family="Helvetica" text-anchor="end" font-size="22pt" fill="#262626" >0</text>
    </g>
  </g>
  <g transform="translate(35.145,112.442)">
    <g transform="rotate(-0.0)">
      <text x="0.000" y="0.000" font-family="Helvetica" text-anchor="end" font-size="22pt" fill="#262626" >1</text>
    </g>
  </g>
  <g transform="translate(35.145,32.531)">
    <g transform="rotate(-0.0)">
      <text x="0.000" y="0.000" font-family="Helvetica" text-anchor="end" font-size="22pt" fill="#262626" >2</text>
    </g>
  </g>
      <polyline fill="none" stroke="#262626" stroke-width="3.0pt" stroke-dasharray="none" points="46.150,262.137 46.150,266.932 "/>
      <polyline fill="none" stroke="#262626" stroke-width="3.0pt" stroke-dasharray="none" points="46.150,262.137 46.150,266.932 "/>
      <polyline fill="none" stroke="#262626" stroke-width="3.0pt" stroke-dasharray="none" points="46.150,262.137 46.150,266.932 "/>
      <polyline fill="none" stroke="#262626" stroke-width="3.0pt" stroke-dasharray="none" points="46.150,262.137 46.150,262.137 "/>
    </g>
  </g>
  </g>
</svg>
