<?xml version="1.0" encoding="utf-8" standalone="no"?><!DOCTYPE svg PUBLIC "-//W3C//DTD SVG 1.1//EN" "http://www.w3.org/Graphics/SVG/1.1/DTD/svg11.dtd">
<svg preserveAspectRatio="xMinYMin meet" width="100%" height="100%" viewBox="0 0 355.000 298.750"  version="1.1" xmlns="http://www.w3.org/2000/svg" xmlns:xlink="http://www.w3.org/1999/xlink">
  <desc>Matlab Figure Converted by PLOT2SVG written by Juerg Schwizer</desc>
  <g id="topgroup">
  <rect x="0" y="0" width="355.000" height="298.750" fill="#ffffff" stroke="none" />
  <g id ="ID000000">
  <clipPath id="ID000001">
    <rect x="46.150" y="22.406" width="275.125" height="239.731"/>
  </clipPath>
      <polygon fill="#ffffff" fill-opacity="1.00" stroke="none" stroke-width="3.0pt" stroke-opacity="1.00" stroke-dasharray="none" points="46.150,262.137 321.275,262.137 321.275,22.406 46.150,22.406 "/>
      <polygon fill="#ffffff" fill-opacity="1.00" stroke="none" stroke-width="3.0pt" stroke-opacity="1.00" stroke-dasharray="none" points="46.150,262.137 321.275,262.137 321.275,262.137 46.150,262.137 "/>
      <polygon fill="#ffffff" fill-opacity="1.00" stroke="none" stroke-width="3.0pt" stroke-opacity="1.00" stroke-dasharray="none" points="46.150,262.137 46.150,262.137 46.150,22.406 46.150,22.406 "/>
    <g>
<g id="ID000002" clip-path="url(#ID000001)" >
      <polygon fill="#69bd45" fill-opacity="0.15" stroke="none" stroke-width="0.5pt" stroke-opacity="1.00" stroke-dasharray="none" points="44.854,186.376 49.391,185.181 53.927,187.132 58.464,186.540 63.001,184.822 67.538,186.427 72.075,185.756 76.611,186.656 81.148,185.206 85.685,185.529 90.222,184.193 94.759,184.338 99.295,183.957 103.832,183.879 108.369,182.055 112.906,181.860 117.443,181.716 121.980,181.529 126.516,179.869 131.053,176.713 135.590,174.661 140.127,170.746 144.664,167.472 149.200,164.647 153.737,163.888 158.274,164.923 162.811,167.157 167.348,168.364 171.884,172.211 176.421,176.088 180.958,180.574 185.495,182.935 190.032,183.750 194.568,185.939 199.105,185.231 203.642,184.550 208.179,184.931 212.716,185.439 217.252,184.063 221.789,183.112 226.326,182.635 230.863,181.472 235.400,179.566 239.937,177.597 244.473,177.558 249.010,176.306 253.547,175.293 258.084,172.222 262.621,170.752 267.157,169.933 271.694,169.791 276.231,170.073 280.768,169.459 285.305,170.098 289.841,170.126 294.378,169.976 298.915,169.209 303.452,171.406 307.989,172.306 312.525,173.939 317.062,176.284 321.599,176.896 326.136,179.821 330.673,181.844 335.209,182.953 339.746,183.906 344.283,185.882 348.820,187.362 353.357,189.658 357.894,190.489 362.430,193.705 366.967,193.764 371.504,195.030 376.041,196.607 380.578,197.451 385.114,196.749 389.651,199.321 394.188,200.682 398.725,201.950 403.262,203.281 407.798,204.459 412.335,204.928 416.872,206.693 421.409,207.114 425.946,208.001 430.482,207.805 435.019,208.740 439.556,210.206 444.093,211.097 448.630,211.736 453.166,213.667 457.703,216.608 462.240,217.598 466.777,218.960 471.314,220.828 475.851,221.637 480.387,222.266 484.924,223.715 489.461,223.099 493.998,223.540 498.535,224.295 503.071,225.365 507.608,225.513 507.608,198.244 503.071,197.644 498.535,196.676 493.998,195.929 489.461,195.483 484.924,195.814 480.387,194.653 475.851,193.266 471.314,192.319 466.777,191.035 462.240,189.215 457.703,187.838 453.166,185.135 448.630,183.899 444.093,182.952 439.556,182.675 435.019,180.843 430.482,180.422 425.946,180.156 421.409,179.820 416.872,179.185 412.335,177.940 407.798,177.495 403.262,176.226 398.725,174.815 394.188,173.588 389.651,171.858 385.114,169.303 380.578,169.127 376.041,168.088 371.504,165.882 366.967,163.891 362.430,162.541 357.894,159.399 353.357,157.537 348.820,154.918 344.283,152.873 339.746,150.413 335.209,148.088 330.673,146.847 326.136,145.169 321.599,142.379 317.062,140.882 312.525,138.411 307.989,135.620 303.452,133.566 298.915,131.334 294.378,130.115 289.841,128.224 285.305,127.575 280.768,125.770 276.231,125.593 271.694,125.960 267.157,125.838 262.621,126.712 258.084,128.859 253.547,130.467 249.010,132.471 244.473,134.764 239.937,136.256 235.400,139.426 230.863,143.381 226.326,146.029 221.789,148.621 217.252,152.008 212.716,155.649 208.179,157.393 203.642,158.391 199.105,159.496 194.568,160.440 190.032,159.825 185.495,159.362 180.958,158.476 176.421,154.968 171.884,149.882 167.348,144.713 162.811,141.564 158.274,140.193 153.737,138.901 149.200,140.469 144.664,142.390 140.127,145.319 135.590,147.916 131.053,149.854 126.516,151.931 121.980,153.646 117.443,154.745 112.906,155.394 108.369,155.740 103.832,156.974 99.295,157.752 94.759,158.215 90.222,158.418 85.685,159.244 81.148,159.328 76.611,160.138 72.075,159.891 67.538,160.318 63.001,159.278 58.464,159.939 53.927,160.354 49.391,159.797 44.854,160.875 "/>
</g>
<g id="ID000003" clip-path="url(#ID000001)" >
      <polyline fill="none" stroke="#69bd45" stroke-width="2.0pt" stroke-dasharray="none" points="44.854,173.625 49.391,172.489 53.927,173.743 58.464,173.240 63.001,172.050 67.538,173.373 72.075,172.823 76.611,173.397 81.148,172.267 85.685,172.387 90.222,171.305 94.759,171.276 99.295,170.854 103.832,170.426 108.369,168.898 112.906,168.627 117.443,168.230 121.980,167.588 126.516,165.900 131.053,163.283 135.590,161.289 140.127,158.032 144.664,154.931 149.200,152.558 153.737,151.394 158.274,152.558 162.811,154.360 167.348,156.539 171.884,161.047 176.421,165.528 180.958,169.525 185.495,171.149 190.032,171.788 194.568,173.190 199.105,172.364 203.642,171.471 208.179,171.162 212.716,170.544 217.252,168.035 221.789,165.866 226.326,164.332 230.863,162.426 235.400,159.496 239.937,156.926 244.473,156.161 249.010,154.389 253.547,152.880 258.084,150.541 262.621,148.732 267.157,147.885 271.694,147.876 276.231,147.833 280.768,147.615 285.305,148.836 289.841,149.175 294.378,150.046 298.915,150.271 303.452,152.486 307.989,153.963 312.525,156.175 317.062,158.583 321.599,159.637 326.136,162.495 330.673,164.345 335.209,165.521 339.746,167.160 344.283,169.377 348.820,171.140 353.357,173.597 357.894,174.944 362.430,178.123 366.967,178.828 371.504,180.456 376.041,182.347 380.578,183.289 385.114,183.026 389.651,185.590 394.188,187.135 398.725,188.383 403.262,189.753 407.798,190.977 412.335,191.434 416.872,192.939 421.409,193.467 425.946,194.079 430.482,194.113 435.019,194.791 439.556,196.441 444.093,197.025 448.630,197.817 453.166,199.401 457.703,202.223 462.240,203.406 466.777,204.997 471.314,206.573 475.851,207.451 480.387,208.459 484.924,209.764 489.461,209.291 493.998,209.735 498.535,210.486 503.071,211.504 507.608,211.879 "/>
<g>
</g>
</g>
<g id="ID000004" clip-path="url(#ID000001)" >
      <polyline fill="none" stroke="#000000" stroke-width="1.5pt" stroke-dasharray="8.0,2.0" points="137.858,581.779 137.858,-1415.981 "/>
<g>
</g>
</g>
<g id="ID000005" >
  <g transform="translate(229.567,25.781)">
    <g transform="rotate(-0.0)">
      <text x="0.000" y="0.000" font-family="Helvetica" text-anchor="start" font-size="8pt" fill="#e5e5e5" >n = 7 mice</text>
    </g>
  </g>
</g>
<g id="ID000006" >
  <g transform="translate(229.567,41.763)">
    <g transform="rotate(-0.0)">
      <text x="0.000" y="0.000" font-family="Helvetica" text-anchor="start" font-size="8pt" fill="#e5e5e5" >n = 1688 trials</text>
    </g>
  </g>
</g>
<g id="ID000007" >
  <g transform="translate(229.567,57.745)">
    <g transform="rotate(-0.0)">
      <text x="0.000" y="0.000" font-family="Helvetica" text-anchor="start" font-size="8pt" fill="#e5e5e5" >Across 12 sessions</text>
    </g>
  </g>
</g>
<g id="ID000008" clip-path="url(#ID000001)" >
      <polygon fill="#b32800" fill-opacity="0.15" stroke="none" stroke-width="0.5pt" stroke-opacity="1.00" stroke-dasharray="none" points="44.854,165.069 49.391,165.901 53.927,165.597 58.464,168.968 63.001,170.232 67.538,172.375 72.075,171.419 76.611,175.446 81.148,174.028 85.685,173.857 90.222,174.007 94.759,169.869 99.295,173.383 103.832,173.906 108.369,174.031 112.906,172.192 117.443,174.277 121.980,173.853 126.516,172.577 131.053,174.960 135.590,171.723 140.127,172.469 144.664,173.434 149.200,166.986 153.737,170.278 158.274,166.733 162.811,166.997 167.348,165.930 171.884,163.578 176.421,160.560 180.958,159.729 185.495,153.941 190.032,153.370 194.568,148.782 199.105,145.783 203.642,144.864 208.179,144.323 212.716,143.495 217.252,142.275 221.789,143.536 226.326,143.050 230.863,139.637 235.400,139.298 239.937,139.022 244.473,138.836 249.010,133.732 253.547,136.958 258.084,135.896 262.621,143.251 267.157,146.559 271.694,143.642 276.231,144.164 280.768,138.704 285.305,139.897 289.841,141.047 294.378,142.358 298.915,137.966 303.452,141.311 307.989,141.518 312.525,143.220 317.062,145.943 321.599,157.066 326.136,153.732 330.673,157.698 335.209,158.530 339.746,162.401 344.283,154.678 348.820,151.624 353.357,154.292 357.894,151.532 362.430,154.806 366.967,154.284 371.504,152.018 376.041,160.067 380.578,155.908 385.114,155.508 389.651,154.255 394.188,153.314 398.725,149.964 403.262,149.618 407.798,150.323 412.335,150.052 416.872,153.935 421.409,155.164 425.946,157.817 430.482,157.200 435.019,156.767 439.556,152.625 444.093,153.726 448.630,154.822 453.166,155.069 457.703,158.217 462.240,160.430 466.777,162.802 471.314,162.095 475.851,157.938 480.387,160.468 484.924,160.342 489.461,161.620 493.998,164.285 498.535,161.746 503.071,162.170 507.608,158.706 507.608,124.957 503.071,125.052 498.535,123.731 493.998,125.727 489.461,124.207 484.924,122.406 480.387,123.027 475.851,124.631 471.314,124.077 466.777,126.161 462.240,125.719 457.703,123.692 453.166,126.439 448.630,123.068 444.093,119.905 439.556,120.970 435.019,121.261 430.482,123.971 425.946,122.736 421.409,123.734 416.872,123.806 412.335,120.933 407.798,120.729 403.262,120.570 398.725,120.968 394.188,121.692 389.651,121.797 385.114,120.791 380.578,120.452 376.041,123.175 371.504,123.122 366.967,123.275 362.430,122.845 357.894,121.692 353.357,123.730 348.820,121.843 344.283,123.248 339.746,125.088 335.209,123.904 330.673,123.336 326.136,119.020 321.599,116.612 317.062,114.247 312.525,110.943 307.989,109.619 303.452,107.135 298.915,104.465 294.378,105.253 289.841,103.756 285.305,101.397 280.768,100.401 276.231,99.298 271.694,98.418 267.157,99.960 262.621,97.917 258.084,92.654 253.547,92.902 249.010,90.610 244.473,92.105 239.937,92.820 235.400,93.043 230.863,93.454 226.326,96.141 221.789,95.489 217.252,96.528 212.716,97.628 208.179,101.206 203.642,105.361 199.105,107.925 194.568,111.182 190.032,115.876 185.495,118.617 180.958,123.621 176.421,124.748 171.884,128.285 167.348,131.151 162.811,132.368 158.274,131.994 153.737,132.995 149.200,134.701 144.664,138.333 140.127,141.313 135.590,142.224 131.053,142.234 126.516,142.249 121.980,143.689 117.443,143.959 112.906,144.050 108.369,144.503 103.832,145.898 99.295,146.813 94.759,146.426 90.222,147.866 85.685,147.791 81.148,147.491 76.611,148.242 72.075,146.320 67.538,146.250 63.001,145.326 58.464,143.200 53.927,142.732 49.391,142.476 44.854,141.353 "/>
</g>
<g id="ID000009" clip-path="url(#ID000001)" >
      <polyline fill="none" stroke="#b32800" stroke-width="2.0pt" stroke-dasharray="none" points="44.854,153.211 49.391,154.188 53.927,154.165 58.464,156.084 63.001,157.779 67.538,159.313 72.075,158.869 76.611,161.844 81.148,160.759 85.685,160.824 90.222,160.937 94.759,158.148 99.295,160.098 103.832,159.902 108.369,159.267 112.906,158.121 117.443,159.118 121.980,158.771 126.516,157.413 131.053,158.597 135.590,156.974 140.127,156.891 144.664,155.884 149.200,150.844 153.737,151.637 158.274,149.363 162.811,149.683 167.348,148.540 171.884,145.931 176.421,142.654 180.958,141.675 185.495,136.279 190.032,134.623 194.568,129.982 199.105,126.854 203.642,125.113 208.179,122.764 212.716,120.562 217.252,119.402 221.789,119.513 226.326,119.596 230.863,116.546 235.400,116.171 239.937,115.921 244.473,115.470 249.010,112.171 253.547,114.930 258.084,114.275 262.621,120.584 267.157,123.259 271.694,121.030 276.231,121.731 280.768,119.553 285.305,120.647 289.841,122.401 294.378,123.806 298.915,121.215 303.452,124.223 307.989,125.568 312.525,127.082 317.062,130.095 321.599,136.839 326.136,136.376 330.673,140.517 335.209,141.217 339.746,143.745 344.283,138.963 348.820,136.734 353.357,139.011 357.894,136.612 362.430,138.826 366.967,138.780 371.504,137.570 376.041,141.621 380.578,138.180 385.114,138.149 389.651,138.026 394.188,137.503 398.725,135.466 403.262,135.094 407.798,135.526 412.335,135.492 416.872,138.870 421.409,139.449 425.946,140.277 430.482,140.586 435.019,139.014 439.556,136.797 444.093,136.815 448.630,138.945 453.166,140.754 457.703,140.954 462.240,143.074 466.777,144.482 471.314,143.086 475.851,141.285 480.387,141.748 484.924,141.374 489.461,142.913 493.998,145.006 498.535,142.739 503.071,143.611 507.608,141.832 "/>
<g>
</g>
</g>
<g id="ID000010" clip-path="url(#ID000001)" >
      <polyline fill="none" stroke="#000000" stroke-width="1.5pt" stroke-dasharray="8.0,2.0" points="137.858,581.779 137.858,-1415.981 "/>
<g>
</g>
</g>
<g id="ID000011" >
  <g transform="translate(229.567,25.781)">
    <g transform="rotate(-0.0)">
      <text x="0.000" y="0.000" font-family="Helvetica" text-anchor="start" font-size="8pt" fill="#e5e5e5" >n = 7 mice</text>
    </g>
  </g>
</g>
<g id="ID000012" >
  <g transform="translate(229.567,41.763)">
    <g transform="rotate(-0.0)">
      <text x="0.000" y="0.000" font-family="Helvetica" text-anchor="start" font-size="8pt" fill="#e5e5e5" >n = 1688 trials</text>
    </g>
  </g>
</g>
<g id="ID000013" >
  <g transform="translate(229.567,57.745)">
    <g transform="rotate(-0.0)">
      <text x="0.000" y="0.000" font-family="Helvetica" text-anchor="start" font-size="8pt" fill="#e5e5e5" >Across 12 sessions</text>
    </g>
  </g>
</g>
<g id="ID000014" clip-path="url(#ID000001)" >
<g>
</g>
</g>
<g id="ID000015" clip-path="url(#ID000001)" >
      <polyline fill="none" stroke="#000000" stroke-width="1.5pt" stroke-dasharray="8.0,2.0" points="137.858,581.779 137.858,-1415.981 "/>
<g>
</g>
</g>
<g id="ID000016" >
  <g transform="translate(229.567,25.781)">
    <g transform="rotate(-0.0)">
      <text x="0.000" y="0.000" font-family="Helvetica" text-anchor="start" font-size="8pt" fill="#e5e5e5" >n = 7 mice</text>
    </g>
  </g>
</g>
<g id="ID000017" >
  <g transform="translate(229.567,41.763)">
    <g transform="rotate(-0.0)">
      <text x="0.000" y="0.000" font-family="Helvetica" text-anchor="start" font-size="8pt" fill="#e5e5e5" >n = 1688 trials</text>
    </g>
  </g>
</g>
<g id="ID000018" >
  <g transform="translate(229.567,57.745)">
    <g transform="rotate(-0.0)">
      <text x="0.000" y="0.000" font-family="Helvetica" text-anchor="start" font-size="8pt" fill="#e5e5e5" >Across 12 sessions</text>
    </g>
  </g>
</g>
<g id="ID000019" clip-path="url(#ID000001)" >
      <polygon fill="#15e1ff" fill-opacity="0.15" stroke="none" stroke-width="0.5pt" stroke-opacity="1.00" stroke-dasharray="none" points="44.854,165.518 49.391,166.869 53.927,167.028 58.464,168.599 63.001,165.999 67.538,165.260 72.075,165.403 76.611,165.523 81.148,165.641 85.685,165.842 90.222,166.477 94.759,165.818 99.295,166.358 103.832,166.235 108.369,165.549 112.906,165.336 117.443,164.320 121.980,163.588 126.516,162.489 131.053,160.044 135.590,161.600 140.127,159.953 144.664,159.669 149.200,160.411 153.737,156.995 158.274,155.450 162.811,153.922 167.348,151.760 171.884,149.052 176.421,149.196 180.958,145.019 185.495,142.970 190.032,140.304 194.568,137.469 199.105,134.772 203.642,129.889 208.179,129.392 212.716,127.473 217.252,126.182 221.789,125.128 226.326,123.065 230.863,124.668 235.400,124.249 239.937,123.246 244.473,122.201 249.010,121.754 253.547,121.877 258.084,121.286 262.621,122.729 267.157,123.354 271.694,126.742 276.231,128.448 280.768,132.020 285.305,131.912 289.841,131.808 294.378,133.637 298.915,133.736 303.452,133.030 307.989,132.635 312.525,132.826 317.062,132.772 321.599,132.368 326.136,130.661 330.673,129.266 335.209,131.014 339.746,130.340 344.283,132.346 348.820,132.241 353.357,133.602 357.894,133.970 362.430,134.145 366.967,134.440 371.504,134.655 376.041,134.437 380.578,134.356 385.114,135.029 389.651,136.383 394.188,136.133 398.725,135.945 403.262,136.753 407.798,138.198 412.335,137.773 416.872,137.084 421.409,137.370 425.946,135.631 430.482,136.271 435.019,137.988 439.556,136.122 444.093,137.123 448.630,136.651 453.166,137.452 457.703,135.919 462.240,136.829 466.777,137.126 471.314,137.799 475.851,139.133 480.387,138.840 484.924,140.102 489.461,140.786 493.998,138.996 498.535,140.032 503.071,140.355 507.608,141.613 507.608,115.073 503.071,112.950 498.535,114.645 493.998,112.758 489.461,114.183 484.924,112.254 480.387,110.019 475.851,108.429 471.314,108.293 466.777,108.419 462.240,106.587 457.703,105.411 453.166,107.576 448.630,106.306 444.093,107.173 439.556,106.057 435.019,106.844 430.482,105.956 425.946,104.654 421.409,106.252 416.872,106.296 412.335,107.418 407.798,108.433 403.262,108.025 398.725,108.571 394.188,106.353 389.651,107.259 385.114,105.105 380.578,105.114 376.041,104.425 371.504,105.750 366.967,104.884 362.430,104.962 357.894,103.085 353.357,102.436 348.820,101.265 344.283,100.846 339.746,98.864 335.209,99.272 330.673,98.206 326.136,99.466 321.599,100.559 317.062,98.564 312.525,98.363 307.989,98.034 303.452,98.814 298.915,97.299 294.378,97.718 289.841,95.078 285.305,94.447 280.768,93.286 276.231,91.319 271.694,88.876 267.157,85.827 262.621,85.495 258.084,84.409 253.547,83.734 249.010,83.137 244.473,82.465 239.937,83.137 235.400,83.464 230.863,84.064 226.326,83.265 221.789,83.616 217.252,84.800 212.716,86.832 208.179,90.071 203.642,92.357 199.105,98.194 194.568,104.371 190.032,109.841 185.495,115.699 180.958,119.524 176.421,124.913 171.884,127.605 167.348,131.568 162.811,133.335 158.274,136.752 153.737,136.297 149.200,139.583 144.664,141.295 140.127,143.181 135.590,145.543 131.053,148.388 126.516,150.986 121.980,151.659 117.443,152.883 112.906,153.869 108.369,154.830 103.832,155.252 99.295,155.396 94.759,156.722 90.222,155.756 85.685,156.006 81.148,156.406 76.611,155.446 72.075,154.616 67.538,153.162 63.001,152.756 58.464,155.471 53.927,154.361 49.391,154.003 44.854,152.226 "/>
</g>
<g id="ID000020" clip-path="url(#ID000001)" >
      <polyline fill="none" stroke="#15e1ff" stroke-width="2.0pt" stroke-dasharray="none" points="44.854,158.872 49.391,160.436 53.927,160.694 58.464,162.035 63.001,159.378 67.538,159.211 72.075,160.010 76.611,160.484 81.148,161.024 85.685,160.924 90.222,161.117 94.759,161.270 99.295,160.877 103.832,160.744 108.369,160.190 112.906,159.603 117.443,158.602 121.980,157.623 126.516,156.738 131.053,154.216 135.590,153.572 140.127,151.567 144.664,150.482 149.200,149.997 153.737,146.646 158.274,146.101 162.811,143.628 167.348,141.664 171.884,138.328 176.421,137.055 180.958,132.272 185.495,129.335 190.032,125.073 194.568,120.920 199.105,116.483 203.642,111.123 208.179,109.732 212.716,107.153 217.252,105.491 221.789,104.372 226.326,103.165 230.863,104.366 235.400,103.857 239.937,103.192 244.473,102.333 249.010,102.445 253.547,102.806 258.084,102.848 262.621,104.112 267.157,104.590 271.694,107.809 276.231,109.884 280.768,112.653 285.305,113.180 289.841,113.443 294.378,115.678 298.915,115.518 303.452,115.922 307.989,115.334 312.525,115.595 317.062,115.668 321.599,116.464 326.136,115.064 330.673,113.736 335.209,115.143 339.746,114.602 344.283,116.596 348.820,116.753 353.357,118.019 357.894,118.528 362.430,119.554 366.967,119.662 371.504,120.203 376.041,119.431 380.578,119.735 385.114,120.067 389.651,121.821 394.188,121.243 398.725,122.258 403.262,122.389 407.798,123.315 412.335,122.595 416.872,121.690 421.409,121.811 425.946,120.143 430.482,121.114 435.019,122.416 439.556,121.089 444.093,122.148 448.630,121.478 453.166,122.514 457.703,120.665 462.240,121.708 466.777,122.773 471.314,123.046 475.851,123.781 480.387,124.429 484.924,126.178 489.461,127.484 493.998,125.877 498.535,127.338 503.071,126.652 507.608,128.343 "/>
<g>
</g>
</g>
<g id="ID000021" clip-path="url(#ID000001)" >
      <polyline fill="none" stroke="#000000" stroke-width="1.5pt" stroke-dasharray="8.0,2.0" points="137.858,581.779 137.858,-1415.981 "/>
<g>
</g>
</g>
<g id="ID000022" >
  <g transform="translate(229.567,25.781)">
    <g transform="rotate(-0.0)">
      <text x="0.000" y="0.000" font-family="Helvetica" text-anchor="start" font-size="8pt" fill="#e5e5e5" >n = 7 mice</text>
    </g>
  </g>
</g>
<g id="ID000023" >
  <g transform="translate(229.567,41.763)">
    <g transform="rotate(-0.0)">
      <text x="0.000" y="0.000" font-family="Helvetica" text-anchor="start" font-size="8pt" fill="#e5e5e5" >n = 1688 trials</text>
    </g>
  </g>
</g>
<g id="ID000024" >
  <g transform="translate(229.567,57.745)">
    <g transform="rotate(-0.0)">
      <text x="0.000" y="0.000" font-family="Helvetica" text-anchor="start" font-size="8pt" fill="#e5e5e5" >Across 12 sessions</text>
    </g>
  </g>
</g>
    </g>
    <g>
      <polyline fill="none" stroke="#262626" stroke-width="3.0pt" stroke-dasharray="none" points="46.150,262.137 46.150,267.640 "/>
      <polyline fill="none" stroke="#262626" stroke-width="3.0pt" stroke-dasharray="none" points="137.858,262.137 137.858,267.640 "/>
      <polyline fill="none" stroke="#262626" stroke-width="3.0pt" stroke-dasharray="none" points="229.567,262.137 229.567,267.640 "/>
      <polyline fill="none" stroke="#262626" stroke-width="3.0pt" stroke-dasharray="none" points="321.275,262.137 321.275,267.640 "/>
      <polyline fill="none" stroke="#262626" stroke-width="3.0pt" stroke-dasharray="none" points="46.150,262.137 321.275,262.137 "/>
  <g transform="translate(46.150,298.277)">
    <g transform="rotate(-0.0)">
      <text x="0.000" y="0.000" font-family="Helvetica" text-anchor="middle" font-size="22pt" fill="#262626" >-1</text>
    </g>
  </g>
  <g transform="translate(137.858,298.277)">
    <g transform="rotate(-0.0)">
      <text x="0.000" y="0.000" font-family="Helvetica" text-anchor="middle" font-size="22pt" fill="#262626" >0</text>
    </g>
  </g>
  <g transform="translate(229.567,298.277)">
    <g transform="rotate(-0.0)">
      <text x="0.000" y="0.000" font-family="Helvetica" text-anchor="middle" font-size="22pt" fill="#262626" >1</text>
    </g>
  </g>
  <g transform="translate(321.275,298.277)">
    <g transform="rotate(-0.0)">
      <text x="0.000" y="0.000" font-family="Helvetica" text-anchor="middle" font-size="22pt" fill="#262626" >2</text>
    </g>
  </g>
      <polyline fill="none" stroke="#262626" stroke-width="3.0pt" stroke-dasharray="none" points="46.150,262.137 40.648,262.137 "/>
      <polyline fill="none" stroke="#262626" stroke-width="3.0pt" stroke-dasharray="none" points="46.150,182.227 40.648,182.227 "/>
      <polyline fill="none" stroke="#262626" stroke-width="3.0pt" stroke-dasharray="none" points="46.150,102.317 40.648,102.317 "/>
      <polyline fill="none" stroke="#262626" stroke-width="3.0pt" stroke-dasharray="none" points="46.150,22.406 40.648,22.406 "/>
      <polyline fill="none" stroke="#262626" stroke-width="3.0pt" stroke-dasharray="none" points="46.150,262.137 46.150,22.406 "/>
  <g transform="translate(35.145,272.262)">
    <g transform="rotate(-0.0)">
      <text x="0.000" y="0.000" font-family="Helvetica" text-anchor="end" font-size="22pt" fill="#262626" >-1</text>
    </g>
  </g>
  <g transform="translate(35.145,192.352)">
    <g transform="rotate(-0.0)">
      <text x="0.000" y="0.000" font-family="Helvetica" text-anchor="end" font-size="22pt" fill="#262626" >0</text>
    </g>
  </g>
  <g transform="translate(35.145,112.442)">
    <g transform="rotate(-0.0)">
      <text x="0.000" y="0.000" font-family="Helvetica" text-anchor="end" font-size="22pt" fill="#262626" >1</text>
    </g>
  </g>
  <g transform="translate(35.145,32.531)">
    <g transform="rotate(-0.0)">
      <text x="0.000" y="0.000" font-family="Helvetica" text-anchor="end" font-size="22pt" fill="#262626" >2</text>
    </g>
  </g>
      <polyline fill="none" stroke="#262626" stroke-width="3.0pt" stroke-dasharray="none" points="46.150,262.137 46.150,266.932 "/>
      <polyline fill="none" stroke="#262626" stroke-width="3.0pt" stroke-dasharray="none" points="46.150,262.137 46.150,266.932 "/>
      <polyline fill="none" stroke="#262626" stroke-width="3.0pt" stroke-dasharray="none" points="46.150,262.137 46.150,266.932 "/>
      <polyline fill="none" stroke="#262626" stroke-width="3.0pt" stroke-dasharray="none" points="46.150,262.137 46.150,262.137 "/>
    </g>
  </g>
  </g>
</svg>
