<?xml version="1.0" encoding="utf-8" standalone="no"?><!DOCTYPE svg PUBLIC "-//W3C//DTD SVG 1.1//EN" "http://www.w3.org/Graphics/SVG/1.1/DTD/svg11.dtd">
<svg preserveAspectRatio="xMinYMin meet" width="100%" height="100%" viewBox="0 0 355.000 298.750"  version="1.1" xmlns="http://www.w3.org/2000/svg" xmlns:xlink="http://www.w3.org/1999/xlink">
  <desc>Matlab Figure Converted by PLOT2SVG written by Juerg Schwizer</desc>
  <g id="topgroup">
  <rect x="0" y="0" width="355.000" height="298.750" fill="#ffffff" stroke="none" />
  <g id ="ID000000">
  <clipPath id="ID000001">
    <rect x="46.150" y="22.406" width="275.125" height="239.731"/>
  </clipPath>
      <polygon fill="#ffffff" fill-opacity="1.00" stroke="none" stroke-width="3.0pt" stroke-opacity="1.00" stroke-dasharray="none" points="46.150,262.137 321.275,262.137 321.275,22.406 46.150,22.406 "/>
      <polygon fill="#ffffff" fill-opacity="1.00" stroke="none" stroke-width="3.0pt" stroke-opacity="1.00" stroke-dasharray="none" points="46.150,262.137 321.275,262.137 321.275,262.137 46.150,262.137 "/>
      <polygon fill="#ffffff" fill-opacity="1.00" stroke="none" stroke-width="3.0pt" stroke-opacity="1.00" stroke-dasharray="none" points="46.150,262.137 46.150,262.137 46.150,22.406 46.150,22.406 "/>
    <g>
<g id="ID000002" clip-path="url(#ID000001)" >
      <polygon fill="#69bd45" fill-opacity="0.15" stroke="none" stroke-width="0.5pt" stroke-opacity="1.00" stroke-dasharray="none" points="44.854,177.138 49.391,177.530 53.927,174.882 58.464,174.539 63.001,178.165 67.538,175.841 72.075,176.150 76.611,175.734 81.148,171.042 85.685,172.071 90.222,169.788 94.759,173.374 99.295,174.521 103.832,173.177 108.369,168.999 112.906,175.251 117.443,174.275 121.980,174.008 126.516,172.682 131.053,175.907 135.590,172.944 140.127,171.778 144.664,172.047 149.200,174.140 153.737,172.192 158.274,173.956 162.811,175.201 167.348,178.486 171.884,180.305 176.421,177.663 180.958,177.587 185.495,177.262 190.032,177.571 194.568,178.837 199.105,181.290 203.642,182.648 208.179,179.875 212.716,178.957 217.252,179.699 221.789,181.357 226.326,179.610 230.863,180.439 235.400,177.056 239.937,182.343 244.473,175.638 249.010,171.175 253.547,169.391 258.084,175.373 262.621,172.781 267.157,172.058 271.694,177.818 276.231,173.665 280.768,170.412 285.305,172.429 289.841,172.506 294.378,174.021 298.915,170.243 303.452,172.969 307.989,173.830 312.525,171.195 317.062,170.859 321.599,174.441 326.136,174.086 330.673,175.728 335.209,180.645 339.746,184.377 344.283,186.508 348.820,188.912 353.357,188.513 357.894,190.166 362.430,190.676 366.967,194.766 371.504,194.126 376.041,200.644 380.578,200.909 385.114,204.859 389.651,202.442 394.188,203.211 398.725,203.079 403.262,201.970 407.798,203.316 412.335,206.160 416.872,203.369 421.409,200.673 425.946,203.178 430.482,202.158 435.019,206.879 439.556,204.149 444.093,204.970 448.630,204.299 453.166,200.542 457.703,206.223 462.240,201.685 466.777,202.239 471.314,200.796 475.851,203.004 480.387,205.632 484.924,206.352 489.461,206.126 493.998,210.151 498.535,204.721 503.071,207.652 507.608,209.379 507.608,196.862 503.071,196.357 498.535,194.220 493.998,197.581 489.461,193.566 484.924,195.200 480.387,194.868 475.851,192.628 471.314,191.410 466.777,192.441 462.240,193.363 457.703,193.130 453.166,188.820 448.630,193.847 444.093,194.590 439.556,194.906 435.019,194.427 430.482,193.090 425.946,190.749 421.409,190.097 416.872,194.437 412.335,195.112 407.798,193.943 403.262,190.288 398.725,188.913 394.188,189.458 389.651,188.559 385.114,189.696 380.578,189.441 376.041,189.510 371.504,183.123 366.967,185.037 362.430,183.037 357.894,178.070 353.357,175.452 348.820,175.187 344.283,175.564 339.746,174.420 335.209,173.111 330.673,171.635 326.136,166.811 321.599,171.131 317.062,164.902 312.525,166.377 307.989,168.947 303.452,165.716 298.915,162.424 294.378,166.883 289.841,167.124 285.305,165.005 280.768,164.432 276.231,166.190 271.694,170.104 267.157,166.718 262.621,167.347 258.084,169.344 253.547,164.888 249.010,163.942 244.473,168.451 239.937,172.372 235.400,168.560 230.863,167.095 226.326,169.495 221.789,168.471 217.252,167.509 212.716,166.108 208.179,169.265 203.642,170.329 199.105,169.776 194.568,167.449 190.032,170.147 185.495,170.100 180.958,172.103 176.421,171.181 171.884,173.293 167.348,170.685 162.811,170.328 158.274,168.929 153.737,163.589 149.200,164.225 144.664,165.387 140.127,161.994 135.590,165.806 131.053,171.826 126.516,167.590 121.980,168.920 117.443,168.985 112.906,168.961 108.369,160.722 103.832,167.282 99.295,170.406 94.759,171.365 90.222,167.509 85.685,168.630 81.148,168.807 76.611,169.941 72.075,170.523 67.538,170.376 63.001,173.456 58.464,170.538 53.927,170.391 49.391,170.384 44.854,169.868 "/>
</g>
<g id="ID000003" clip-path="url(#ID000001)" >
      <polyline fill="none" stroke="#69bd45" stroke-width="2.0pt" stroke-dasharray="none" points="44.854,173.503 49.391,173.957 53.927,172.636 58.464,172.539 63.001,175.810 67.538,173.109 72.075,173.337 76.611,172.838 81.148,169.924 85.685,170.351 90.222,168.648 94.759,172.369 99.295,172.463 103.832,170.229 108.369,164.861 112.906,172.106 117.443,171.630 121.980,171.464 126.516,170.136 131.053,173.867 135.590,169.375 140.127,166.886 144.664,168.717 149.200,169.182 153.737,167.891 158.274,171.442 162.811,172.764 167.348,174.586 171.884,176.799 176.421,174.422 180.958,174.845 185.495,173.681 190.032,173.859 194.568,173.143 199.105,175.533 203.642,176.488 208.179,174.570 212.716,172.533 217.252,173.604 221.789,174.914 226.326,174.553 230.863,173.767 235.400,172.808 239.937,177.358 244.473,172.044 249.010,167.559 253.547,167.140 258.084,172.358 262.621,170.064 267.157,169.388 271.694,173.961 276.231,169.928 280.768,167.422 285.305,168.717 289.841,169.815 294.378,170.452 298.915,166.333 303.452,169.342 307.989,171.389 312.525,168.786 317.062,167.881 321.599,172.786 326.136,170.448 330.673,173.682 335.209,176.878 339.746,179.398 344.283,181.036 348.820,182.049 353.357,181.982 357.894,184.118 362.430,186.857 366.967,189.902 371.504,188.625 376.041,195.077 380.578,195.175 385.114,197.278 389.651,195.500 394.188,196.334 398.725,195.996 403.262,196.129 407.798,198.629 412.335,200.636 416.872,198.903 421.409,195.385 425.946,196.964 430.482,197.624 435.019,200.653 439.556,199.527 444.093,199.780 448.630,199.073 453.166,194.681 457.703,199.676 462.240,197.524 466.777,197.340 471.314,196.103 475.851,197.816 480.387,200.250 484.924,200.776 489.461,199.846 493.998,203.866 498.535,199.470 503.071,202.005 507.608,203.121 "/>
<g>
</g>
</g>
<g id="ID000004" clip-path="url(#ID000001)" >
<rect x="137.858" y="94.326" width="91.708" height="7.991" rx="0.000" ry="0.000" fill="#ffff00" stroke="#000000" stroke-width="0.5pt" stroke-dasharray="none" />
</g>
<g id="ID000005" >
  <g transform="translate(229.567,25.781)">
    <g transform="rotate(-0.0)">
      <text x="0.000" y="0.000" font-family="Helvetica" text-anchor="start" font-size="8pt" fill="#e5e5e5" >n = 5 mice</text>
    </g>
  </g>
</g>
<g id="ID000006" >
  <g transform="translate(229.567,41.763)">
    <g transform="rotate(-0.0)">
      <text x="0.000" y="0.000" font-family="Helvetica" text-anchor="start" font-size="8pt" fill="#e5e5e5" >n = 2038 trials</text>
    </g>
  </g>
</g>
<g id="ID000007" >
  <g transform="translate(229.567,57.745)">
    <g transform="rotate(-0.0)">
      <text x="0.000" y="0.000" font-family="Helvetica" text-anchor="start" font-size="8pt" fill="#e5e5e5" >Across 20 sessions</text>
    </g>
  </g>
</g>
<g id="ID000008" clip-path="url(#ID000001)" >
      <polygon fill="#b32800" fill-opacity="0.15" stroke="none" stroke-width="0.5pt" stroke-opacity="1.00" stroke-dasharray="none" points="44.854,167.923 49.391,170.658 53.927,172.042 58.464,160.593 63.001,167.999 67.538,159.017 72.075,163.536 76.611,174.306 81.148,189.132 85.685,183.980 90.222,176.862 94.759,171.739 99.295,163.675 103.832,169.290 108.369,162.860 112.906,165.321 117.443,168.621 121.980,166.992 126.516,168.047 131.053,171.257 135.590,168.817 140.127,167.384 144.664,170.156 149.200,166.353 153.737,172.421 158.274,180.609 162.811,178.711 167.348,183.296 171.884,182.184 176.421,182.629 180.958,188.977 185.495,178.122 190.032,178.591 194.568,180.254 199.105,173.658 203.642,169.674 208.179,167.364 212.716,171.645 217.252,165.326 221.789,178.579 226.326,165.208 230.863,167.446 235.400,163.339 239.937,167.537 244.473,166.447 249.010,169.429 253.547,167.917 258.084,164.662 262.621,162.785 267.157,164.815 271.694,156.506 276.231,154.977 280.768,158.402 285.305,153.736 289.841,156.176 294.378,161.747 298.915,170.445 303.452,162.845 307.989,152.251 312.525,162.377 317.062,151.833 321.599,156.456 326.136,152.337 330.673,153.583 335.209,155.060 339.746,150.216 344.283,152.349 348.820,158.243 353.357,155.216 357.894,163.018 362.430,163.147 366.967,174.638 371.504,176.876 376.041,169.886 380.578,168.960 385.114,170.987 389.651,172.850 394.188,172.691 398.725,159.719 403.262,168.024 407.798,169.770 412.335,174.708 416.872,169.606 421.409,182.021 425.946,187.487 430.482,178.627 435.019,174.907 439.556,176.793 444.093,181.947 448.630,183.489 453.166,182.159 457.703,180.074 462.240,179.242 466.777,179.754 471.314,178.345 475.851,176.223 480.387,174.081 484.924,173.956 489.461,171.857 493.998,169.965 498.535,167.385 503.071,171.052 507.608,160.425 507.608,151.011 503.071,161.844 498.535,152.963 493.998,157.332 489.461,162.458 484.924,158.891 480.387,156.983 475.851,156.753 471.314,148.926 466.777,156.374 462.240,163.700 457.703,156.771 453.166,161.482 448.630,158.006 444.093,158.894 439.556,152.817 435.019,151.978 430.482,159.704 425.946,157.000 421.409,150.237 416.872,146.082 412.335,148.626 407.798,149.992 403.262,142.052 398.725,136.765 394.188,160.372 389.651,151.468 385.114,150.570 380.578,150.135 376.041,147.972 371.504,153.272 366.967,156.896 362.430,143.999 357.894,140.437 353.357,132.037 348.820,132.279 344.283,131.188 339.746,132.640 335.209,139.602 330.673,138.505 326.136,136.361 321.599,132.424 317.062,138.794 312.525,133.912 307.989,141.223 303.452,146.816 298.915,149.470 294.378,139.117 289.841,149.555 285.305,135.423 280.768,138.023 276.231,129.899 271.694,139.811 267.157,146.046 262.621,149.483 258.084,152.001 253.547,152.681 249.010,154.427 244.473,149.682 239.937,151.828 235.400,143.752 230.863,154.161 226.326,151.822 221.789,159.521 217.252,144.822 212.716,153.200 208.179,148.352 203.642,152.099 199.105,160.710 194.568,153.394 190.032,152.956 185.495,149.218 180.958,171.478 176.421,166.229 171.884,167.502 167.348,169.848 162.811,167.436 158.274,172.822 153.737,159.186 149.200,161.919 144.664,163.834 140.127,161.856 135.590,157.740 131.053,163.369 126.516,159.356 121.980,154.277 117.443,156.619 112.906,159.824 108.369,153.489 103.832,157.601 99.295,155.538 94.759,160.005 90.222,153.104 85.685,162.895 81.148,169.682 76.611,158.972 72.075,151.612 67.538,151.756 63.001,153.737 58.464,143.984 53.927,157.442 49.391,163.265 44.854,155.315 "/>
</g>
<g id="ID000009" clip-path="url(#ID000001)" >
      <polyline fill="none" stroke="#b32800" stroke-width="2.0pt" stroke-dasharray="none" points="44.854,161.619 49.391,166.961 53.927,164.742 58.464,152.288 63.001,160.868 67.538,155.386 72.075,157.574 76.611,166.639 81.148,179.407 85.685,173.437 90.222,164.983 94.759,165.872 99.295,159.606 103.832,163.445 108.369,158.175 112.906,162.573 117.443,162.620 121.980,160.634 126.516,163.701 131.053,167.313 135.590,163.278 140.127,164.620 144.664,166.995 149.200,164.136 153.737,165.803 158.274,176.715 162.811,173.073 167.348,176.572 171.884,174.843 176.421,174.429 180.958,180.227 185.495,163.670 190.032,165.773 194.568,166.824 199.105,167.184 203.642,160.886 208.179,157.858 212.716,162.422 217.252,155.074 221.789,169.050 226.326,158.515 230.863,160.804 235.400,153.546 239.937,159.683 244.473,158.064 249.010,161.928 253.547,160.299 258.084,158.332 262.621,156.134 267.157,155.430 271.694,148.158 276.231,142.438 280.768,148.212 285.305,144.580 289.841,152.865 294.378,150.432 298.915,159.957 303.452,154.831 307.989,146.737 312.525,148.145 317.062,145.313 321.599,144.440 326.136,144.349 330.673,146.044 335.209,147.331 339.746,141.428 344.283,141.769 348.820,145.261 353.357,143.627 357.894,151.728 362.430,153.573 366.967,165.767 371.504,165.074 376.041,158.929 380.578,159.548 385.114,160.778 389.651,162.159 394.188,166.532 398.725,148.242 403.262,155.038 407.798,159.881 412.335,161.667 416.872,157.844 421.409,166.129 425.946,172.244 430.482,169.166 435.019,163.443 439.556,164.805 444.093,170.421 448.630,170.748 453.166,171.821 457.703,168.423 462.240,171.471 466.777,168.064 471.314,163.636 475.851,166.488 480.387,165.532 484.924,166.423 489.461,167.157 493.998,163.649 498.535,160.174 503.071,166.448 507.608,155.718 "/>
<g>
</g>
</g>
<g id="ID000010" clip-path="url(#ID000001)" >
<rect x="137.858" y="94.326" width="91.708" height="7.991" rx="0.000" ry="0.000" fill="#ffff00" stroke="#000000" stroke-width="0.5pt" stroke-dasharray="none" />
</g>
<g id="ID000011" >
  <g transform="translate(229.567,25.781)">
    <g transform="rotate(-0.0)">
      <text x="0.000" y="0.000" font-family="Helvetica" text-anchor="start" font-size="8pt" fill="#e5e5e5" >n = 5 mice</text>
    </g>
  </g>
</g>
<g id="ID000012" >
  <g transform="translate(229.567,41.763)">
    <g transform="rotate(-0.0)">
      <text x="0.000" y="0.000" font-family="Helvetica" text-anchor="start" font-size="8pt" fill="#e5e5e5" >n = 2038 trials</text>
    </g>
  </g>
</g>
<g id="ID000013" >
  <g transform="translate(229.567,57.745)">
    <g transform="rotate(-0.0)">
      <text x="0.000" y="0.000" font-family="Helvetica" text-anchor="start" font-size="8pt" fill="#e5e5e5" >Across 20 sessions</text>
    </g>
  </g>
</g>
<g id="ID000014" clip-path="url(#ID000001)" >
      <polygon fill="#000000" fill-opacity="0.15" stroke="none" stroke-width="0.5pt" stroke-opacity="1.00" stroke-dasharray="none" points="44.854,170.673 49.391,176.808 53.927,176.111 58.464,174.550 63.001,172.017 67.538,173.270 72.075,172.598 76.611,173.065 81.148,173.976 85.685,172.991 90.222,175.289 94.759,175.011 99.295,172.541 103.832,173.419 108.369,175.124 112.906,173.161 117.443,174.441 121.980,171.293 126.516,175.519 131.053,172.893 135.590,175.315 140.127,177.175 144.664,176.826 149.200,176.404 153.737,175.519 158.274,176.711 162.811,177.366 167.348,178.491 171.884,180.156 176.421,174.392 180.958,175.130 185.495,173.975 190.032,174.997 194.568,171.196 199.105,174.405 203.642,173.702 208.179,175.062 212.716,176.939 217.252,178.218 221.789,178.536 226.326,178.203 230.863,176.062 235.400,177.681 239.937,176.394 244.473,172.252 249.010,177.310 253.547,178.714 258.084,177.979 262.621,176.462 267.157,169.872 271.694,170.578 276.231,169.668 280.768,169.696 285.305,169.099 289.841,168.767 294.378,170.045 298.915,170.528 303.452,172.983 307.989,173.417 312.525,172.557 317.062,172.267 321.599,169.070 326.136,170.521 330.673,172.951 335.209,170.307 339.746,168.250 344.283,169.324 348.820,172.118 353.357,172.553 357.894,170.338 362.430,172.169 366.967,172.347 371.504,169.988 376.041,169.440 380.578,172.465 385.114,170.998 389.651,174.221 394.188,176.197 398.725,174.831 403.262,176.764 407.798,175.140 412.335,174.155 416.872,175.378 421.409,175.293 425.946,176.537 430.482,176.885 435.019,176.277 439.556,174.737 444.093,177.237 448.630,176.469 453.166,175.159 457.703,175.620 462.240,174.378 466.777,177.278 471.314,175.762 475.851,174.595 480.387,177.161 484.924,178.482 489.461,177.669 493.998,177.588 498.535,175.937 503.071,173.720 507.608,172.830 507.608,168.827 503.071,169.524 498.535,170.390 493.998,170.772 489.461,170.445 484.924,171.945 480.387,168.731 475.851,170.349 471.314,168.900 466.777,168.780 462.240,166.247 457.703,169.577 453.166,170.373 448.630,168.215 444.093,171.825 439.556,170.752 435.019,168.919 430.482,170.767 425.946,170.364 421.409,170.632 416.872,172.247 412.335,170.725 407.798,168.008 403.262,170.939 398.725,167.304 394.188,169.043 389.651,165.708 385.114,166.001 380.578,167.636 376.041,166.794 371.504,164.871 366.967,165.806 362.430,164.193 357.894,164.011 353.357,164.749 348.820,164.718 344.283,164.304 339.746,163.583 335.209,166.500 330.673,165.156 326.136,163.717 321.599,161.654 317.062,161.521 312.525,163.773 307.989,165.203 303.452,163.347 298.915,158.118 294.378,158.617 289.841,159.586 285.305,165.511 280.768,163.428 276.231,160.707 271.694,163.275 267.157,162.591 262.621,168.731 258.084,169.494 253.547,171.210 249.010,171.413 244.473,167.833 239.937,170.810 235.400,170.254 230.863,170.428 226.326,173.616 221.789,169.734 217.252,172.085 212.716,169.964 208.179,170.276 203.642,168.362 199.105,166.657 194.568,166.468 190.032,167.912 185.495,166.938 180.958,167.231 176.421,168.440 171.884,172.755 167.348,173.488 162.811,173.474 158.274,170.897 153.737,170.423 149.200,167.537 144.664,166.750 140.127,167.867 135.590,167.476 131.053,168.340 126.516,168.745 121.980,167.712 117.443,169.956 112.906,168.633 108.369,173.228 103.832,169.006 99.295,167.967 94.759,168.170 90.222,168.256 85.685,165.848 81.148,169.474 76.611,166.464 72.075,169.076 67.538,168.929 63.001,170.736 58.464,170.889 53.927,170.748 49.391,171.256 44.854,166.784 "/>
</g>
<g id="ID000015" clip-path="url(#ID000001)" >
      <polyline fill="none" stroke="#000000" stroke-width="2.0pt" stroke-dasharray="none" points="44.854,168.728 49.391,174.032 53.927,173.430 58.464,172.720 63.001,171.377 67.538,171.099 72.075,170.837 76.611,169.765 81.148,171.725 85.685,169.419 90.222,171.772 94.759,171.591 99.295,170.254 103.832,171.212 108.369,174.176 112.906,170.897 117.443,172.199 121.980,169.503 126.516,172.132 131.053,170.616 135.590,171.396 140.127,172.521 144.664,171.788 149.200,171.970 153.737,172.971 158.274,173.804 162.811,175.420 167.348,175.989 171.884,176.455 176.421,171.416 180.958,171.181 185.495,170.456 190.032,171.454 194.568,168.832 199.105,170.531 203.642,171.032 208.179,172.669 212.716,173.452 217.252,175.152 221.789,174.135 226.326,175.910 230.863,173.245 235.400,173.968 239.937,173.602 244.473,170.042 249.010,174.361 253.547,174.962 258.084,173.736 262.621,172.597 267.157,166.231 271.694,166.927 276.231,165.187 280.768,166.562 285.305,167.305 289.841,164.177 294.378,164.331 298.915,164.323 303.452,168.165 307.989,169.310 312.525,168.165 317.062,166.894 321.599,165.362 326.136,167.119 330.673,169.054 335.209,168.404 339.746,165.916 344.283,166.814 348.820,168.418 353.357,168.651 357.894,167.175 362.430,168.181 366.967,169.076 371.504,167.429 376.041,168.117 380.578,170.051 385.114,168.500 389.651,169.964 394.188,172.620 398.725,171.067 403.262,173.851 407.798,171.574 412.335,172.440 416.872,173.813 421.409,172.963 425.946,173.451 430.482,173.826 435.019,172.598 439.556,172.745 444.093,174.531 448.630,172.342 453.166,172.766 457.703,172.599 462.240,170.313 466.777,173.029 471.314,172.331 475.851,172.472 480.387,172.946 484.924,175.214 489.461,174.057 493.998,174.180 498.535,173.163 503.071,171.622 507.608,170.828 "/>
<g>
</g>
</g>
<g id="ID000016" clip-path="url(#ID000001)" >
<rect x="137.858" y="94.326" width="91.708" height="7.991" rx="0.000" ry="0.000" fill="#ffff00" stroke="#000000" stroke-width="0.5pt" stroke-dasharray="none" />
</g>
<g id="ID000017" >
  <g transform="translate(229.567,25.781)">
    <g transform="rotate(-0.0)">
      <text x="0.000" y="0.000" font-family="Helvetica" text-anchor="start" font-size="8pt" fill="#e5e5e5" >n = 5 mice</text>
    </g>
  </g>
</g>
<g id="ID000018" >
  <g transform="translate(229.567,41.763)">
    <g transform="rotate(-0.0)">
      <text x="0.000" y="0.000" font-family="Helvetica" text-anchor="start" font-size="8pt" fill="#e5e5e5" >n = 2038 trials</text>
    </g>
  </g>
</g>
<g id="ID000019" >
  <g transform="translate(229.567,57.745)">
    <g transform="rotate(-0.0)">
      <text x="0.000" y="0.000" font-family="Helvetica" text-anchor="start" font-size="8pt" fill="#e5e5e5" >Across 20 sessions</text>
    </g>
  </g>
</g>
<g id="ID000020" clip-path="url(#ID000001)" >
<g>
</g>
</g>
<g id="ID000021" clip-path="url(#ID000001)" >
<rect x="137.858" y="94.326" width="91.708" height="7.991" rx="0.000" ry="0.000" fill="#ffff00" stroke="#000000" stroke-width="0.5pt" stroke-dasharray="none" />
</g>
<g id="ID000022" >
  <g transform="translate(229.567,25.781)">
    <g transform="rotate(-0.0)">
      <text x="0.000" y="0.000" font-family="Helvetica" text-anchor="start" font-size="8pt" fill="#e5e5e5" >n = 5 mice</text>
    </g>
  </g>
</g>
<g id="ID000023" >
  <g transform="translate(229.567,41.763)">
    <g transform="rotate(-0.0)">
      <text x="0.000" y="0.000" font-family="Helvetica" text-anchor="start" font-size="8pt" fill="#e5e5e5" >n = 2038 trials</text>
    </g>
  </g>
</g>
<g id="ID000024" >
  <g transform="translate(229.567,57.745)">
    <g transform="rotate(-0.0)">
      <text x="0.000" y="0.000" font-family="Helvetica" text-anchor="start" font-size="8pt" fill="#e5e5e5" >Across 20 sessions</text>
    </g>
  </g>
</g>
    </g>
    <g>
      <polyline fill="none" stroke="#262626" stroke-width="3.0pt" stroke-dasharray="none" points="46.150,262.137 46.150,267.640 "/>
      <polyline fill="none" stroke="#262626" stroke-width="3.0pt" stroke-dasharray="none" points="137.858,262.137 137.858,267.640 "/>
      <polyline fill="none" stroke="#262626" stroke-width="3.0pt" stroke-dasharray="none" points="229.567,262.137 229.567,267.640 "/>
      <polyline fill="none" stroke="#262626" stroke-width="3.0pt" stroke-dasharray="none" points="321.275,262.137 321.275,267.640 "/>
      <polyline fill="none" stroke="#262626" stroke-width="3.0pt" stroke-dasharray="none" points="46.150,262.137 321.275,262.137 "/>
  <g transform="translate(46.150,298.277)">
    <g transform="rotate(-0.0)">
      <text x="0.000" y="0.000" font-family="Helvetica" text-anchor="middle" font-size="22pt" fill="#262626" >-1</text>
    </g>
  </g>
  <g transform="translate(137.858,298.277)">
    <g transform="rotate(-0.0)">
      <text x="0.000" y="0.000" font-family="Helvetica" text-anchor="middle" font-size="22pt" fill="#262626" >0</text>
    </g>
  </g>
  <g transform="translate(229.567,298.277)">
    <g transform="rotate(-0.0)">
      <text x="0.000" y="0.000" font-family="Helvetica" text-anchor="middle" font-size="22pt" fill="#262626" >1</text>
    </g>
  </g>
  <g transform="translate(321.275,298.277)">
    <g transform="rotate(-0.0)">
      <text x="0.000" y="0.000" font-family="Helvetica" text-anchor="middle" font-size="22pt" fill="#262626" >2</text>
    </g>
  </g>
      <polyline fill="none" stroke="#262626" stroke-width="3.0pt" stroke-dasharray="none" points="46.150,262.137 40.648,262.137 "/>
      <polyline fill="none" stroke="#262626" stroke-width="3.0pt" stroke-dasharray="none" points="46.150,182.227 40.648,182.227 "/>
      <polyline fill="none" stroke="#262626" stroke-width="3.0pt" stroke-dasharray="none" points="46.150,102.317 40.648,102.317 "/>
      <polyline fill="none" stroke="#262626" stroke-width="3.0pt" stroke-dasharray="none" points="46.150,22.406 40.648,22.406 "/>
      <polyline fill="none" stroke="#262626" stroke-width="3.0pt" stroke-dasharray="none" points="46.150,262.137 46.150,22.406 "/>
  <g transform="translate(35.145,272.262)">
    <g transform="rotate(-0.0)">
      <text x="0.000" y="0.000" font-family="Helvetica" text-anchor="end" font-size="22pt" fill="#262626" >-1</text>
    </g>
  </g>
  <g transform="translate(35.145,192.352)">
    <g transform="rotate(-0.0)">
      <text x="0.000" y="0.000" font-family="Helvetica" text-anchor="end" font-size="22pt" fill="#262626" >0</text>
    </g>
  </g>
  <g transform="translate(35.145,112.442)">
    <g transform="rotate(-0.0)">
      <text x="0.000" y="0.000" font-family="Helvetica" text-anchor="end" font-size="22pt" fill="#262626" >1</text>
    </g>
  </g>
  <g transform="translate(35.145,32.531)">
    <g transform="rotate(-0.0)">
      <text x="0.000" y="0.000" font-family="Helvetica" text-anchor="end" font-size="22pt" fill="#262626" >2</text>
    </g>
  </g>
      <polyline fill="none" stroke="#262626" stroke-width="3.0pt" stroke-dasharray="none" points="46.150,262.137 46.150,266.932 "/>
      <polyline fill="none" stroke="#262626" stroke-width="3.0pt" stroke-dasharray="none" points="46.150,262.137 46.150,266.932 "/>
      <polyline fill="none" stroke="#262626" stroke-width="3.0pt" stroke-dasharray="none" points="46.150,262.137 46.150,266.932 "/>
      <polyline fill="none" stroke="#262626" stroke-width="3.0pt" stroke-dasharray="none" points="46.150,262.137 46.150,262.137 "/>
    </g>
  </g>
  </g>
</svg>
