<?xml version="1.0" encoding="utf-8" standalone="no"?><!DOCTYPE svg PUBLIC "-//W3C//DTD SVG 1.1//EN" "http://www.w3.org/Graphics/SVG/1.1/DTD/svg11.dtd">
<svg preserveAspectRatio="xMinYMin meet" width="100%" height="100%" viewBox="0 0 355.000 298.750"  version="1.1" xmlns="http://www.w3.org/2000/svg" xmlns:xlink="http://www.w3.org/1999/xlink">
  <desc>Matlab Figure Converted by PLOT2SVG written by Juerg Schwizer</desc>
  <g id="topgroup">
  <rect x="0" y="0" width="355.000" height="298.750" fill="#ffffff" stroke="none" />
  <g id ="ID000000">
  <clipPath id="ID000001">
    <rect x="46.150" y="22.406" width="275.125" height="239.731"/>
  </clipPath>
      <polygon fill="#ffffff" fill-opacity="1.00" stroke="none" stroke-width="3.0pt" stroke-opacity="1.00" stroke-dasharray="none" points="46.150,262.137 321.275,262.137 321.275,22.406 46.150,22.406 "/>
      <polygon fill="#ffffff" fill-opacity="1.00" stroke="none" stroke-width="3.0pt" stroke-opacity="1.00" stroke-dasharray="none" points="46.150,262.137 321.275,262.137 321.275,262.137 46.150,262.137 "/>
      <polygon fill="#ffffff" fill-opacity="1.00" stroke="none" stroke-width="3.0pt" stroke-opacity="1.00" stroke-dasharray="none" points="46.150,262.137 46.150,262.137 46.150,22.406 46.150,22.406 "/>
    <g>
<g id="ID000002" clip-path="url(#ID000001)" >
      <polygon fill="#69bd45" fill-opacity="0.15" stroke="none" stroke-width="0.5pt" stroke-opacity="1.00" stroke-dasharray="none" points="45.372,186.544 48.094,186.995 50.816,183.100 53.539,184.895 56.261,184.730 58.983,183.090 61.705,180.332 64.427,178.389 67.149,178.377 69.871,180.661 72.593,173.950 75.315,171.886 78.037,177.282 80.759,175.033 83.481,174.529 86.204,171.648 88.926,168.170 91.648,169.409 94.370,170.138 97.092,167.046 99.814,167.090 102.536,167.762 105.258,167.173 107.980,164.009 110.702,153.218 113.424,148.930 116.146,154.236 118.869,163.990 121.591,171.402 124.313,180.155 127.035,187.686 129.757,189.350 132.479,188.810 135.201,195.986 137.923,204.353 140.645,209.742 143.367,211.571 146.089,219.437 148.811,222.090 151.534,227.582 154.256,225.754 156.978,228.098 159.700,221.435 162.422,221.662 165.144,219.168 167.866,213.701 170.588,211.857 173.310,217.305 176.032,211.281 178.754,208.392 181.477,209.477 184.199,211.343 186.921,210.061 189.643,212.106 192.365,208.665 195.087,207.638 197.809,208.272 200.531,209.233 203.253,206.953 205.975,207.180 208.697,205.499 211.419,208.157 214.142,206.927 216.864,207.976 219.586,208.682 222.308,206.822 225.030,210.536 227.752,207.858 230.474,210.027 233.196,209.005 235.918,213.460 238.640,211.296 241.362,211.057 244.084,213.852 246.807,215.448 249.529,218.654 252.251,215.581 254.973,215.332 257.695,212.118 260.417,215.919 263.139,217.726 265.861,217.863 268.583,215.122 271.305,213.861 274.027,214.249 276.749,214.716 279.472,213.461 282.194,214.914 284.916,218.077 287.638,219.489 290.360,218.785 293.082,224.793 295.804,219.812 298.526,219.574 301.248,218.239 303.970,219.581 306.692,221.614 309.414,218.687 312.137,222.519 314.859,217.756 317.581,217.284 320.303,216.051 323.025,223.184 323.025,207.358 320.303,202.530 317.581,205.876 314.859,205.667 312.137,209.300 309.414,205.322 306.692,209.972 303.970,209.710 301.248,208.196 298.526,207.788 295.804,207.266 293.082,211.839 290.360,207.787 287.638,208.849 284.916,206.859 282.194,204.866 279.472,202.872 276.749,204.595 274.027,204.320 271.305,203.504 268.583,203.998 265.861,204.537 263.139,205.139 260.417,203.019 257.695,202.389 254.973,204.694 252.251,203.624 249.529,205.437 246.807,202.582 244.084,203.032 241.362,200.754 238.640,198.598 235.918,200.437 233.196,196.579 230.474,195.699 227.752,197.108 225.030,198.863 222.308,196.067 219.586,199.676 216.864,197.592 214.142,194.254 211.419,195.266 208.697,193.708 205.975,196.594 203.253,196.255 200.531,197.082 197.809,196.511 195.087,198.012 192.365,198.349 189.643,200.971 186.921,198.766 184.199,200.733 181.477,200.302 178.754,198.426 176.032,198.170 173.310,202.261 170.588,200.477 167.866,204.516 165.144,207.231 162.422,210.313 159.700,211.995 156.978,213.591 154.256,208.794 151.534,211.768 148.811,208.869 146.089,208.745 143.367,202.245 140.645,197.647 137.923,191.729 135.201,184.438 132.479,178.433 129.757,179.179 127.035,177.758 124.313,171.298 121.591,162.035 118.869,153.474 116.146,147.296 113.424,144.413 110.702,143.985 107.980,151.236 105.258,156.737 102.536,160.580 99.814,160.779 97.092,160.599 94.370,167.774 91.648,166.670 88.926,162.093 86.204,163.818 83.481,167.424 80.759,167.424 78.037,169.287 75.315,166.578 72.593,168.317 69.871,169.860 67.149,170.364 64.427,171.013 61.705,169.417 58.983,172.012 56.261,171.944 53.539,169.306 50.816,168.118 48.094,175.567 45.372,171.539 "/>
</g>
<g id="ID000003" clip-path="url(#ID000001)" >
      <polyline fill="none" stroke="#69bd45" stroke-width="2.0pt" stroke-dasharray="none" points="45.372,179.041 48.094,181.281 50.816,175.609 53.539,177.101 56.261,178.337 58.983,177.551 61.705,174.875 64.427,174.701 67.149,174.371 69.871,175.260 72.593,171.134 75.315,169.232 78.037,173.285 80.759,171.229 83.481,170.976 86.204,167.733 88.926,165.132 91.648,168.040 94.370,168.956 97.092,163.823 99.814,163.935 102.536,164.171 105.258,161.955 107.980,157.622 110.702,148.602 113.424,146.672 116.146,150.766 118.869,158.732 121.591,166.719 124.313,175.726 127.035,182.722 129.757,184.264 132.479,183.621 135.201,190.212 137.923,198.041 140.645,203.694 143.367,206.908 146.089,214.091 148.811,215.479 151.534,219.675 154.256,217.274 156.978,220.845 159.700,216.715 162.422,215.988 165.144,213.200 167.866,209.108 170.588,206.167 173.310,209.783 176.032,204.725 178.754,203.409 181.477,204.889 184.199,206.038 186.921,204.413 189.643,206.539 192.365,203.507 195.087,202.825 197.809,202.391 200.531,203.158 203.253,201.604 205.975,201.887 208.697,199.603 211.419,201.711 214.142,200.590 216.864,202.784 219.586,204.179 222.308,201.445 225.030,204.699 227.752,202.483 230.474,202.863 233.196,202.792 235.918,206.949 238.640,204.947 241.362,205.906 244.084,208.442 246.807,209.015 249.529,212.046 252.251,209.603 254.973,210.013 257.695,207.253 260.417,209.469 263.139,211.433 265.861,211.200 268.583,209.560 271.305,208.682 274.027,209.285 276.749,209.655 279.472,208.167 282.194,209.890 284.916,212.468 287.638,214.169 290.360,213.286 293.082,218.316 295.804,213.539 298.526,213.681 301.248,213.217 303.970,214.645 306.692,215.793 309.414,212.004 312.137,215.909 314.859,211.712 317.581,211.580 320.303,209.290 323.025,215.271 "/>
<g>
</g>
</g>
<g id="ID000004" clip-path="url(#ID000001)" >
      <polyline fill="none" stroke="#000000" stroke-width="1.5pt" stroke-dasharray="8.0,2.0" points="101.175,581.779 101.175,-1415.981 "/>
<g>
</g>
</g>
<g id="ID000005" >
  <g transform="translate(156.200,25.781)">
    <g transform="rotate(-0.0)">
      <text x="0.000" y="0.000" font-family="Helvetica" text-anchor="start" font-size="8pt" fill="#e5e5e5" >n = 5 mice</text>
    </g>
  </g>
</g>
<g id="ID000006" >
  <g transform="translate(156.200,41.763)">
    <g transform="rotate(-0.0)">
      <text x="0.000" y="0.000" font-family="Helvetica" text-anchor="start" font-size="8pt" fill="#e5e5e5" >n = 2038 trials</text>
    </g>
  </g>
</g>
<g id="ID000007" >
  <g transform="translate(156.200,57.745)">
    <g transform="rotate(-0.0)">
      <text x="0.000" y="0.000" font-family="Helvetica" text-anchor="start" font-size="8pt" fill="#e5e5e5" >Across 20 sessions</text>
    </g>
  </g>
</g>
<g id="ID000008" clip-path="url(#ID000001)" >
<g>
</g>
</g>
<g id="ID000009" clip-path="url(#ID000001)" >
      <polyline fill="none" stroke="#000000" stroke-width="1.5pt" stroke-dasharray="8.0,2.0" points="101.175,581.779 101.175,-1415.981 "/>
<g>
</g>
</g>
<g id="ID000010" >
  <g transform="translate(156.200,25.781)">
    <g transform="rotate(-0.0)">
      <text x="0.000" y="0.000" font-family="Helvetica" text-anchor="start" font-size="8pt" fill="#e5e5e5" >n = 5 mice</text>
    </g>
  </g>
</g>
<g id="ID000011" >
  <g transform="translate(156.200,41.763)">
    <g transform="rotate(-0.0)">
      <text x="0.000" y="0.000" font-family="Helvetica" text-anchor="start" font-size="8pt" fill="#e5e5e5" >n = 2038 trials</text>
    </g>
  </g>
</g>
<g id="ID000012" >
  <g transform="translate(156.200,57.745)">
    <g transform="rotate(-0.0)">
      <text x="0.000" y="0.000" font-family="Helvetica" text-anchor="start" font-size="8pt" fill="#e5e5e5" >Across 20 sessions</text>
    </g>
  </g>
</g>
<g id="ID000013" clip-path="url(#ID000001)" >
<g>
</g>
</g>
<g id="ID000014" clip-path="url(#ID000001)" >
      <polyline fill="none" stroke="#000000" stroke-width="1.5pt" stroke-dasharray="8.0,2.0" points="101.175,581.779 101.175,-1415.981 "/>
<g>
</g>
</g>
<g id="ID000015" >
  <g transform="translate(156.200,25.781)">
    <g transform="rotate(-0.0)">
      <text x="0.000" y="0.000" font-family="Helvetica" text-anchor="start" font-size="8pt" fill="#e5e5e5" >n = 5 mice</text>
    </g>
  </g>
</g>
<g id="ID000016" >
  <g transform="translate(156.200,41.763)">
    <g transform="rotate(-0.0)">
      <text x="0.000" y="0.000" font-family="Helvetica" text-anchor="start" font-size="8pt" fill="#e5e5e5" >n = 2038 trials</text>
    </g>
  </g>
</g>
<g id="ID000017" >
  <g transform="translate(156.200,57.745)">
    <g transform="rotate(-0.0)">
      <text x="0.000" y="0.000" font-family="Helvetica" text-anchor="start" font-size="8pt" fill="#e5e5e5" >Across 20 sessions</text>
    </g>
  </g>
</g>
<g id="ID000018" clip-path="url(#ID000001)" >
<g>
</g>
</g>
<g id="ID000019" clip-path="url(#ID000001)" >
      <polyline fill="none" stroke="#000000" stroke-width="1.5pt" stroke-dasharray="8.0,2.0" points="101.175,581.779 101.175,-1415.981 "/>
<g>
</g>
</g>
<g id="ID000020" >
  <g transform="translate(156.200,25.781)">
    <g transform="rotate(-0.0)">
      <text x="0.000" y="0.000" font-family="Helvetica" text-anchor="start" font-size="8pt" fill="#e5e5e5" >n = 5 mice</text>
    </g>
  </g>
</g>
<g id="ID000021" >
  <g transform="translate(156.200,41.763)">
    <g transform="rotate(-0.0)">
      <text x="0.000" y="0.000" font-family="Helvetica" text-anchor="start" font-size="8pt" fill="#e5e5e5" >n = 2038 trials</text>
    </g>
  </g>
</g>
<g id="ID000022" >
  <g transform="translate(156.200,57.745)">
    <g transform="rotate(-0.0)">
      <text x="0.000" y="0.000" font-family="Helvetica" text-anchor="start" font-size="8pt" fill="#e5e5e5" >Across 20 sessions</text>
    </g>
  </g>
</g>
    </g>
    <g>
      <polyline fill="none" stroke="#262626" stroke-width="3.0pt" stroke-dasharray="none" points="101.175,262.137 101.175,267.640 "/>
      <polyline fill="none" stroke="#262626" stroke-width="3.0pt" stroke-dasharray="none" points="211.225,262.137 211.225,267.640 "/>
      <polyline fill="none" stroke="#262626" stroke-width="3.0pt" stroke-dasharray="none" points="321.275,262.137 321.275,267.640 "/>
      <polyline fill="none" stroke="#262626" stroke-width="3.0pt" stroke-dasharray="none" points="46.150,262.137 321.275,262.137 "/>
  <g transform="translate(101.175,298.277)">
    <g transform="rotate(-0.0)">
      <text x="0.000" y="0.000" font-family="Helvetica" text-anchor="middle" font-size="22pt" fill="#262626" >0</text>
    </g>
  </g>
  <g transform="translate(211.225,298.277)">
    <g transform="rotate(-0.0)">
      <text x="0.000" y="0.000" font-family="Helvetica" text-anchor="middle" font-size="22pt" fill="#262626" >2</text>
    </g>
  </g>
  <g transform="translate(321.275,298.277)">
    <g transform="rotate(-0.0)">
      <text x="0.000" y="0.000" font-family="Helvetica" text-anchor="middle" font-size="22pt" fill="#262626" >4</text>
    </g>
  </g>
      <polyline fill="none" stroke="#262626" stroke-width="3.0pt" stroke-dasharray="none" points="46.150,262.137 40.648,262.137 "/>
      <polyline fill="none" stroke="#262626" stroke-width="3.0pt" stroke-dasharray="none" points="46.150,182.227 40.648,182.227 "/>
      <polyline fill="none" stroke="#262626" stroke-width="3.0pt" stroke-dasharray="none" points="46.150,102.317 40.648,102.317 "/>
      <polyline fill="none" stroke="#262626" stroke-width="3.0pt" stroke-dasharray="none" points="46.150,22.406 40.648,22.406 "/>
      <polyline fill="none" stroke="#262626" stroke-width="3.0pt" stroke-dasharray="none" points="46.150,262.137 46.150,22.406 "/>
  <g transform="translate(35.145,272.262)">
    <g transform="rotate(-0.0)">
      <text x="0.000" y="0.000" font-family="Helvetica" text-anchor="end" font-size="22pt" fill="#262626" >-1</text>
    </g>
  </g>
  <g transform="translate(35.145,192.352)">
    <g transform="rotate(-0.0)">
      <text x="0.000" y="0.000" font-family="Helvetica" text-anchor="end" font-size="22pt" fill="#262626" >0</text>
    </g>
  </g>
  <g transform="translate(35.145,112.442)">
    <g transform="rotate(-0.0)">
      <text x="0.000" y="0.000" font-family="Helvetica" text-anchor="end" font-size="22pt" fill="#262626" >1</text>
    </g>
  </g>
  <g transform="translate(35.145,32.531)">
    <g transform="rotate(-0.0)">
      <text x="0.000" y="0.000" font-family="Helvetica" text-anchor="end" font-size="22pt" fill="#262626" >2</text>
    </g>
  </g>
      <polyline fill="none" stroke="#262626" stroke-width="3.0pt" stroke-dasharray="none" points="46.150,262.137 46.150,266.932 "/>
      <polyline fill="none" stroke="#262626" stroke-width="3.0pt" stroke-dasharray="none" points="46.150,262.137 46.150,266.932 "/>
      <polyline fill="none" stroke="#262626" stroke-width="3.0pt" stroke-dasharray="none" points="46.150,262.137 46.150,266.932 "/>
      <polyline fill="none" stroke="#262626" stroke-width="3.0pt" stroke-dasharray="none" points="46.150,262.137 46.150,262.137 "/>
    </g>
  </g>
  </g>
</svg>
