<?xml version="1.0" encoding="utf-8" standalone="no"?><!DOCTYPE svg PUBLIC "-//W3C//DTD SVG 1.1//EN" "http://www.w3.org/Graphics/SVG/1.1/DTD/svg11.dtd">
<svg preserveAspectRatio="xMinYMin meet" width="100%" height="100%" viewBox="0 0 355.000 298.750"  version="1.1" xmlns="http://www.w3.org/2000/svg" xmlns:xlink="http://www.w3.org/1999/xlink">
  <desc>Matlab Figure Converted by PLOT2SVG written by Juerg Schwizer</desc>
  <g id="topgroup">
  <rect x="0" y="0" width="355.000" height="298.750" fill="#ffffff" stroke="none" />
  <g id ="ID000000">
  <clipPath id="ID000001">
    <rect x="46.150" y="22.406" width="275.125" height="239.731"/>
  </clipPath>
      <polygon fill="#ffffff" fill-opacity="1.00" stroke="none" stroke-width="3.0pt" stroke-opacity="1.00" stroke-dasharray="none" points="46.150,262.137 321.275,262.137 321.275,22.406 46.150,22.406 "/>
      <polygon fill="#ffffff" fill-opacity="1.00" stroke="none" stroke-width="3.0pt" stroke-opacity="1.00" stroke-dasharray="none" points="46.150,262.137 321.275,262.137 321.275,262.137 46.150,262.137 "/>
      <polygon fill="#ffffff" fill-opacity="1.00" stroke="none" stroke-width="3.0pt" stroke-opacity="1.00" stroke-dasharray="none" points="46.150,262.137 46.150,262.137 46.150,22.406 46.150,22.406 "/>
    <g>
<g id="ID000002" clip-path="url(#ID000001)" >
      <polygon fill="#69bd45" fill-opacity="0.15" stroke="none" stroke-width="0.5pt" stroke-opacity="1.00" stroke-dasharray="none" points="44.854,172.908 49.391,170.903 53.927,171.553 58.464,170.920 63.001,167.988 67.538,168.188 72.075,171.972 76.611,170.834 81.148,173.201 85.685,173.070 90.222,173.323 94.759,174.646 99.295,176.486 103.832,177.208 108.369,175.920 112.906,177.326 117.443,179.923 121.980,180.998 126.516,178.960 131.053,178.548 135.590,181.261 140.127,182.910 144.664,182.980 149.200,185.168 153.737,188.271 158.274,194.326 162.811,194.868 167.348,197.195 171.884,196.808 176.421,195.682 180.958,190.530 185.495,185.951 190.032,178.595 194.568,172.529 199.105,169.487 203.642,166.327 208.179,163.467 212.716,166.676 217.252,168.329 221.789,169.605 226.326,171.269 230.863,171.857 235.400,170.954 239.937,170.102 244.473,167.480 249.010,167.182 253.547,165.137 258.084,164.575 262.621,165.672 267.157,166.342 271.694,170.339 276.231,174.151 280.768,177.175 285.305,182.288 289.841,188.727 294.378,195.826 298.915,195.678 303.452,201.167 307.989,206.793 312.525,210.432 317.062,210.047 321.599,212.237 326.136,211.953 330.673,213.716 335.209,210.424 339.746,208.775 344.283,209.135 348.820,208.139 353.357,205.820 357.894,204.597 362.430,206.949 366.967,209.100 371.504,211.609 376.041,215.183 380.578,212.838 385.114,208.014 389.651,205.624 394.188,204.391 398.725,208.346 403.262,209.408 407.798,207.499 412.335,210.304 416.872,208.203 421.409,205.138 425.946,205.103 430.482,205.671 435.019,209.766 439.556,210.865 444.093,209.836 448.630,208.127 453.166,207.181 457.703,208.536 462.240,210.887 466.777,211.764 471.314,213.468 475.851,212.146 480.387,215.194 484.924,215.873 489.461,215.261 493.998,211.715 498.535,215.209 503.071,211.942 507.608,211.798 507.608,200.001 503.071,201.503 498.535,202.578 493.998,202.207 489.461,203.682 484.924,204.818 480.387,201.877 475.851,203.015 471.314,202.345 466.777,202.165 462.240,197.032 457.703,196.237 453.166,192.972 448.630,196.154 444.093,198.337 439.556,198.586 435.019,197.702 430.482,195.416 425.946,193.575 421.409,195.069 416.872,197.687 412.335,197.567 407.798,197.176 403.262,199.745 398.725,197.552 394.188,192.151 389.651,194.464 385.114,197.841 380.578,201.365 376.041,201.951 371.504,201.946 366.967,199.726 362.430,199.152 357.894,195.948 353.357,194.362 348.820,197.156 344.283,199.219 339.746,199.458 335.209,197.595 330.673,195.296 326.136,197.584 321.599,195.091 317.062,193.617 312.525,191.265 307.989,187.198 303.452,181.476 298.915,179.995 294.378,175.488 289.841,170.765 285.305,166.539 280.768,163.742 276.231,161.459 271.694,160.045 267.157,158.985 262.621,158.536 258.084,161.387 253.547,160.440 249.010,160.458 244.473,162.763 239.937,165.049 235.400,164.736 230.863,165.174 226.326,165.790 221.789,165.281 217.252,163.530 212.716,163.275 208.179,159.709 203.642,159.591 199.105,160.288 194.568,165.565 190.032,169.586 185.495,177.513 180.958,182.135 176.421,184.393 171.884,182.654 167.348,180.233 162.811,175.266 158.274,173.352 153.737,167.739 149.200,168.623 144.664,165.997 140.127,168.921 135.590,168.907 131.053,168.437 126.516,168.183 121.980,170.714 117.443,166.250 112.906,167.317 108.369,165.808 103.832,165.501 99.295,164.028 94.759,164.216 90.222,165.273 85.685,161.863 81.148,164.266 76.611,164.924 72.075,167.355 67.538,164.653 63.001,162.175 58.464,168.532 53.927,168.166 49.391,165.479 44.854,166.894 "/>
</g>
<g id="ID000003" clip-path="url(#ID000001)" >
      <polyline fill="none" stroke="#69bd45" stroke-width="2.0pt" stroke-dasharray="none" points="44.854,169.901 49.391,168.191 53.927,169.859 58.464,169.726 63.001,165.082 67.538,166.420 72.075,169.664 76.611,167.879 81.148,168.733 85.685,167.466 90.222,169.298 94.759,169.431 99.295,170.257 103.832,171.355 108.369,170.864 112.906,172.322 117.443,173.087 121.980,175.856 126.516,173.572 131.053,173.492 135.590,175.084 140.127,175.915 144.664,174.488 149.200,176.895 153.737,178.005 158.274,183.839 162.811,185.067 167.348,188.714 171.884,189.731 176.421,190.037 180.958,186.333 185.495,181.732 190.032,174.090 194.568,169.047 199.105,164.888 203.642,162.959 208.179,161.588 212.716,164.976 217.252,165.930 221.789,167.443 226.326,168.530 230.863,168.515 235.400,167.845 239.937,167.576 244.473,165.121 249.010,163.820 253.547,162.789 258.084,162.981 262.621,162.104 267.157,162.663 271.694,165.192 276.231,167.805 280.768,170.458 285.305,174.413 289.841,179.746 294.378,185.657 298.915,187.837 303.452,191.321 307.989,196.996 312.525,200.848 317.062,201.832 321.599,203.664 326.136,204.769 330.673,204.506 335.209,204.009 339.746,204.117 344.283,204.177 348.820,202.647 353.357,200.091 357.894,200.272 362.430,203.050 366.967,204.413 371.504,206.778 376.041,208.567 380.578,207.101 385.114,202.928 389.651,200.044 394.188,198.271 398.725,202.949 403.262,204.576 407.798,202.338 412.335,203.936 416.872,202.945 421.409,200.104 425.946,199.339 430.482,200.543 435.019,203.734 439.556,204.725 444.093,204.086 448.630,202.141 453.166,200.076 457.703,202.387 462.240,203.959 466.777,206.964 471.314,207.907 475.851,207.580 480.387,208.536 484.924,210.345 489.461,209.472 493.998,206.961 498.535,208.893 503.071,206.722 507.608,205.899 "/>
<g>
</g>
</g>
<g id="ID000004" clip-path="url(#ID000001)" >
      <polyline fill="none" stroke="#000000" stroke-width="1.5pt" stroke-dasharray="8.0,2.0" points="137.858,581.779 137.858,-1415.981 "/>
<g>
</g>
</g>
<g id="ID000005" >
  <g transform="translate(229.567,25.781)">
    <g transform="rotate(-0.0)">
      <text x="0.000" y="0.000" font-family="Helvetica" text-anchor="start" font-size="8pt" fill="#e5e5e5" >n = 5 mice</text>
    </g>
  </g>
</g>
<g id="ID000006" >
  <g transform="translate(229.567,41.763)">
    <g transform="rotate(-0.0)">
      <text x="0.000" y="0.000" font-family="Helvetica" text-anchor="start" font-size="8pt" fill="#e5e5e5" >n = 2038 trials</text>
    </g>
  </g>
</g>
<g id="ID000007" >
  <g transform="translate(229.567,57.745)">
    <g transform="rotate(-0.0)">
      <text x="0.000" y="0.000" font-family="Helvetica" text-anchor="start" font-size="8pt" fill="#e5e5e5" >Across 20 sessions</text>
    </g>
  </g>
</g>
<g id="ID000008" clip-path="url(#ID000001)" >
      <polygon fill="#b32800" fill-opacity="0.15" stroke="none" stroke-width="0.5pt" stroke-opacity="1.00" stroke-dasharray="none" points="44.854,168.985 49.391,176.359 53.927,174.938 58.464,179.002 63.001,177.879 67.538,179.822 72.075,177.987 76.611,178.825 81.148,165.920 85.685,166.377 90.222,170.791 94.759,160.668 99.295,165.099 103.832,168.049 108.369,166.008 112.906,168.484 117.443,167.152 121.980,163.081 126.516,168.560 131.053,173.668 135.590,169.645 140.127,174.271 144.664,171.470 149.200,169.628 153.737,171.557 158.274,183.907 162.811,183.064 167.348,179.036 171.884,179.376 176.421,170.482 180.958,163.410 185.495,159.728 190.032,153.891 194.568,138.345 199.105,137.417 203.642,142.720 208.179,145.601 212.716,144.812 217.252,155.968 221.789,148.020 226.326,156.250 230.863,156.059 235.400,146.910 239.937,161.237 244.473,158.171 249.010,144.011 253.547,154.465 258.084,163.495 262.621,161.923 267.157,161.750 271.694,158.386 276.231,156.071 280.768,162.170 285.305,162.899 289.841,164.271 294.378,170.076 298.915,168.619 303.452,176.469 307.989,171.673 312.525,175.376 317.062,169.985 321.599,172.484 326.136,179.617 330.673,179.604 335.209,190.322 339.746,182.500 344.283,185.382 348.820,186.840 353.357,189.875 357.894,198.480 362.430,193.568 366.967,193.733 371.504,187.361 376.041,183.570 380.578,189.991 385.114,188.034 389.651,190.982 394.188,188.807 398.725,190.486 403.262,188.253 407.798,186.076 412.335,189.971 416.872,188.818 421.409,190.057 425.946,181.662 430.482,174.330 435.019,183.326 439.556,180.154 444.093,182.643 448.630,196.382 453.166,185.044 457.703,188.739 462.240,188.422 466.777,188.326 471.314,189.417 475.851,197.945 480.387,179.285 484.924,178.848 489.461,182.357 493.998,187.501 498.535,185.027 503.071,181.571 507.608,185.607 507.608,179.455 503.071,179.163 498.535,176.429 493.998,179.127 489.461,175.359 484.924,168.370 480.387,168.145 475.851,185.790 471.314,172.994 466.777,173.904 462.240,170.435 457.703,176.264 453.166,175.533 448.630,180.805 444.093,169.534 439.556,171.959 435.019,173.259 430.482,167.476 425.946,173.518 421.409,175.212 416.872,180.245 412.335,177.910 407.798,173.369 403.262,165.245 398.725,176.479 394.188,171.031 389.651,178.563 385.114,172.466 380.578,173.747 376.041,173.885 371.504,173.787 366.967,186.253 362.430,176.464 357.894,183.692 353.357,173.481 348.820,176.784 344.283,172.275 339.746,170.206 335.209,181.907 330.673,173.742 326.136,170.837 321.599,150.441 317.062,159.517 312.525,170.267 307.989,163.509 303.452,164.820 298.915,164.316 294.378,157.524 289.841,156.386 285.305,157.380 280.768,155.428 276.231,139.792 271.694,151.366 267.157,154.810 262.621,149.468 258.084,150.518 253.547,147.631 249.010,138.203 244.473,147.095 239.937,146.282 235.400,140.874 230.863,147.471 226.326,141.639 221.789,135.442 217.252,139.446 212.716,132.046 208.179,127.927 203.642,120.916 199.105,118.613 194.568,115.323 190.032,123.391 185.495,127.603 180.958,133.899 176.421,137.844 171.884,152.694 167.348,160.886 162.811,154.171 158.274,153.251 153.737,140.716 149.200,145.602 144.664,145.523 140.127,155.534 135.590,146.817 131.053,149.792 126.516,147.482 121.980,145.042 117.443,150.838 112.906,149.515 108.369,144.346 103.832,150.985 99.295,140.995 94.759,138.976 90.222,154.097 85.685,142.867 81.148,146.047 76.611,158.271 72.075,157.677 67.538,159.558 63.001,153.525 58.464,160.675 53.927,150.608 49.391,154.334 44.854,144.724 "/>
</g>
<g id="ID000009" clip-path="url(#ID000001)" >
      <polyline fill="none" stroke="#b32800" stroke-width="2.0pt" stroke-dasharray="none" points="44.854,156.854 49.391,165.346 53.927,162.773 58.464,169.838 63.001,165.702 67.538,169.690 72.075,167.832 76.611,168.548 81.148,155.983 85.685,154.622 90.222,162.444 94.759,149.822 99.295,153.047 103.832,159.517 108.369,155.177 112.906,158.999 117.443,158.995 121.980,154.062 126.516,158.021 131.053,161.730 135.590,158.231 140.127,164.902 144.664,158.496 149.200,157.615 153.737,156.136 158.274,168.579 162.811,168.618 167.348,169.961 171.884,166.035 176.421,154.163 180.958,148.654 185.495,143.665 190.032,138.641 194.568,126.834 199.105,128.015 203.642,131.818 208.179,136.764 212.716,138.429 217.252,147.707 221.789,141.731 226.326,148.944 230.863,151.765 235.400,143.892 239.937,153.760 244.473,152.633 249.010,141.107 253.547,151.048 258.084,157.006 262.621,155.696 267.157,158.280 271.694,154.876 276.231,147.931 280.768,158.799 285.305,160.140 289.841,160.328 294.378,163.800 298.915,166.467 303.452,170.644 307.989,167.591 312.525,172.821 317.062,164.751 321.599,161.463 326.136,175.227 330.673,176.673 335.209,186.115 339.746,176.353 344.283,178.829 348.820,181.812 353.357,181.678 357.894,191.086 362.430,185.016 366.967,189.993 371.504,180.574 376.041,178.728 380.578,181.869 385.114,180.250 389.651,184.772 394.188,179.919 398.725,183.483 403.262,176.749 407.798,179.722 412.335,183.941 416.872,184.532 421.409,182.635 425.946,177.590 430.482,170.903 435.019,178.293 439.556,176.056 444.093,176.089 448.630,188.594 453.166,180.288 457.703,182.501 462.240,179.429 466.777,181.115 471.314,181.205 475.851,191.867 480.387,173.715 484.924,173.609 489.461,178.858 493.998,183.314 498.535,180.728 503.071,180.367 507.608,182.531 "/>
<g>
</g>
</g>
<g id="ID000010" clip-path="url(#ID000001)" >
      <polyline fill="none" stroke="#000000" stroke-width="1.5pt" stroke-dasharray="8.0,2.0" points="137.858,581.779 137.858,-1415.981 "/>
<g>
</g>
</g>
<g id="ID000011" >
  <g transform="translate(229.567,25.781)">
    <g transform="rotate(-0.0)">
      <text x="0.000" y="0.000" font-family="Helvetica" text-anchor="start" font-size="8pt" fill="#e5e5e5" >n = 5 mice</text>
    </g>
  </g>
</g>
<g id="ID000012" >
  <g transform="translate(229.567,41.763)">
    <g transform="rotate(-0.0)">
      <text x="0.000" y="0.000" font-family="Helvetica" text-anchor="start" font-size="8pt" fill="#e5e5e5" >n = 2038 trials</text>
    </g>
  </g>
</g>
<g id="ID000013" >
  <g transform="translate(229.567,57.745)">
    <g transform="rotate(-0.0)">
      <text x="0.000" y="0.000" font-family="Helvetica" text-anchor="start" font-size="8pt" fill="#e5e5e5" >Across 20 sessions</text>
    </g>
  </g>
</g>
<g id="ID000014" clip-path="url(#ID000001)" >
<g>
</g>
</g>
<g id="ID000015" clip-path="url(#ID000001)" >
      <polyline fill="none" stroke="#000000" stroke-width="1.5pt" stroke-dasharray="8.0,2.0" points="137.858,581.779 137.858,-1415.981 "/>
<g>
</g>
</g>
<g id="ID000016" >
  <g transform="translate(229.567,25.781)">
    <g transform="rotate(-0.0)">
      <text x="0.000" y="0.000" font-family="Helvetica" text-anchor="start" font-size="8pt" fill="#e5e5e5" >n = 5 mice</text>
    </g>
  </g>
</g>
<g id="ID000017" >
  <g transform="translate(229.567,41.763)">
    <g transform="rotate(-0.0)">
      <text x="0.000" y="0.000" font-family="Helvetica" text-anchor="start" font-size="8pt" fill="#e5e5e5" >n = 2038 trials</text>
    </g>
  </g>
</g>
<g id="ID000018" >
  <g transform="translate(229.567,57.745)">
    <g transform="rotate(-0.0)">
      <text x="0.000" y="0.000" font-family="Helvetica" text-anchor="start" font-size="8pt" fill="#e5e5e5" >Across 20 sessions</text>
    </g>
  </g>
</g>
<g id="ID000019" clip-path="url(#ID000001)" >
      <polygon fill="#15e1ff" fill-opacity="0.15" stroke="none" stroke-width="0.5pt" stroke-opacity="1.00" stroke-dasharray="none" points="44.854,172.707 49.391,175.404 53.927,180.469 58.464,176.755 63.001,180.202 67.538,178.720 72.075,182.428 76.611,180.356 81.148,179.982 85.685,176.566 90.222,183.939 94.759,188.974 99.295,185.613 103.832,185.560 108.369,185.552 112.906,185.445 117.443,190.381 121.980,190.733 126.516,189.187 131.053,191.336 135.590,191.552 140.127,190.583 144.664,189.249 149.200,199.197 153.737,193.194 158.274,195.140 162.811,190.326 167.348,189.683 171.884,183.117 176.421,173.400 180.958,166.660 185.495,163.230 190.032,159.834 194.568,164.110 199.105,161.904 203.642,159.841 208.179,161.587 212.716,160.659 217.252,164.439 221.789,161.694 226.326,160.778 230.863,165.732 235.400,161.516 239.937,170.620 244.473,165.553 249.010,157.641 253.547,163.452 258.084,163.393 262.621,164.453 267.157,166.564 271.694,165.773 276.231,167.958 280.768,164.340 285.305,166.789 289.841,168.322 294.378,169.379 298.915,173.407 303.452,176.402 307.989,180.441 312.525,186.788 317.062,175.452 321.599,181.673 326.136,181.048 330.673,180.001 335.209,187.119 339.746,183.646 344.283,177.399 348.820,179.845 353.357,185.539 357.894,193.661 362.430,183.503 366.967,190.712 371.504,195.337 376.041,187.358 380.578,186.664 385.114,187.234 389.651,189.949 394.188,185.863 398.725,194.904 403.262,183.382 407.798,182.279 412.335,185.617 416.872,187.919 421.409,187.104 425.946,183.075 430.482,193.949 435.019,184.989 439.556,190.056 444.093,197.490 448.630,188.659 453.166,187.336 457.703,190.884 462.240,185.582 466.777,180.924 471.314,174.976 475.851,180.818 480.387,178.670 484.924,189.449 489.461,185.164 493.998,181.545 498.535,197.020 503.071,185.876 507.608,189.467 507.608,177.983 503.071,177.134 498.535,176.579 493.998,172.166 489.461,173.583 484.924,179.511 480.387,174.611 475.851,174.416 471.314,167.126 466.777,173.557 462.240,177.377 457.703,185.268 453.166,177.567 448.630,179.221 444.093,181.395 439.556,181.535 435.019,179.801 430.482,182.530 425.946,168.762 421.409,172.387 416.872,176.740 412.335,173.349 407.798,170.827 403.262,173.127 398.725,175.643 394.188,177.876 389.651,175.624 385.114,172.273 380.578,169.633 376.041,175.192 371.504,175.028 366.967,172.502 362.430,167.539 357.894,178.802 353.357,173.929 348.820,163.293 344.283,167.786 339.746,174.986 335.209,169.161 330.673,169.322 326.136,170.569 321.599,174.716 317.062,167.226 312.525,169.040 307.989,169.342 303.452,173.500 298.915,168.185 294.378,161.867 289.841,161.577 285.305,162.783 280.768,155.979 276.231,154.078 271.694,155.870 267.157,160.730 262.621,157.782 258.084,155.620 253.547,158.525 249.010,149.724 244.473,157.218 239.937,161.994 235.400,142.936 230.863,156.331 226.326,151.339 221.789,152.118 217.252,156.441 212.716,150.456 208.179,148.725 203.642,134.887 199.105,134.896 194.568,138.382 190.032,134.627 185.495,131.548 180.958,136.426 176.421,143.831 171.884,149.462 167.348,161.712 162.811,167.437 158.274,164.484 153.737,168.748 149.200,169.914 144.664,169.845 140.127,174.613 135.590,173.256 131.053,169.876 126.516,172.603 121.980,174.403 117.443,172.144 112.906,164.234 108.369,169.517 103.832,170.682 99.295,177.491 94.759,178.023 90.222,172.923 85.685,169.382 81.148,173.682 76.611,167.383 72.075,168.606 67.538,164.225 63.001,170.602 58.464,163.495 53.927,163.562 49.391,159.496 44.854,153.183 "/>
</g>
<g id="ID000020" clip-path="url(#ID000001)" >
      <polyline fill="none" stroke="#15e1ff" stroke-width="2.0pt" stroke-dasharray="none" points="44.854,162.945 49.391,167.450 53.927,172.016 58.464,170.125 63.001,175.402 67.538,171.473 72.075,175.517 76.611,173.870 81.148,176.832 85.685,172.974 90.222,178.431 94.759,183.498 99.295,181.552 103.832,178.121 108.369,177.534 112.906,174.839 117.443,181.263 121.980,182.568 126.516,180.895 131.053,180.606 135.590,182.404 140.127,182.598 144.664,179.547 149.200,184.556 153.737,180.971 158.274,179.812 162.811,178.881 167.348,175.698 171.884,166.290 176.421,158.615 180.958,151.543 185.495,147.389 190.032,147.231 194.568,151.246 199.105,148.400 203.642,147.364 208.179,155.156 212.716,155.558 217.252,160.440 221.789,156.906 226.326,156.059 230.863,161.032 235.400,152.226 239.937,166.307 244.473,161.386 249.010,153.682 253.547,160.989 258.084,159.507 262.621,161.117 267.157,163.647 271.694,160.821 276.231,161.018 280.768,160.160 285.305,164.786 289.841,164.949 294.378,165.623 298.915,170.796 303.452,174.951 307.989,174.892 312.525,177.914 317.062,171.339 321.599,178.194 326.136,175.808 330.673,174.661 335.209,178.140 339.746,179.316 344.283,172.592 348.820,171.569 353.357,179.734 357.894,186.232 362.430,175.521 366.967,181.607 371.504,185.182 376.041,181.275 380.578,178.149 385.114,179.753 389.651,182.786 394.188,181.870 398.725,185.274 403.262,178.255 407.798,176.553 412.335,179.483 416.872,182.330 421.409,179.746 425.946,175.918 430.482,188.240 435.019,182.395 439.556,185.796 444.093,189.442 448.630,183.940 453.166,182.451 457.703,188.076 462.240,181.480 466.777,177.240 471.314,171.051 475.851,177.617 480.387,176.640 484.924,184.480 489.461,179.374 493.998,176.856 498.535,186.799 503.071,181.505 507.608,183.725 "/>
<g>
</g>
</g>
<g id="ID000021" clip-path="url(#ID000001)" >
      <polyline fill="none" stroke="#000000" stroke-width="1.5pt" stroke-dasharray="8.0,2.0" points="137.858,581.779 137.858,-1415.981 "/>
<g>
</g>
</g>
<g id="ID000022" >
  <g transform="translate(229.567,25.781)">
    <g transform="rotate(-0.0)">
      <text x="0.000" y="0.000" font-family="Helvetica" text-anchor="start" font-size="8pt" fill="#e5e5e5" >n = 5 mice</text>
    </g>
  </g>
</g>
<g id="ID000023" >
  <g transform="translate(229.567,41.763)">
    <g transform="rotate(-0.0)">
      <text x="0.000" y="0.000" font-family="Helvetica" text-anchor="start" font-size="8pt" fill="#e5e5e5" >n = 2038 trials</text>
    </g>
  </g>
</g>
<g id="ID000024" >
  <g transform="translate(229.567,57.745)">
    <g transform="rotate(-0.0)">
      <text x="0.000" y="0.000" font-family="Helvetica" text-anchor="start" font-size="8pt" fill="#e5e5e5" >Across 20 sessions</text>
    </g>
  </g>
</g>
    </g>
    <g>
      <polyline fill="none" stroke="#262626" stroke-width="3.0pt" stroke-dasharray="none" points="46.150,262.137 46.150,267.640 "/>
      <polyline fill="none" stroke="#262626" stroke-width="3.0pt" stroke-dasharray="none" points="137.858,262.137 137.858,267.640 "/>
      <polyline fill="none" stroke="#262626" stroke-width="3.0pt" stroke-dasharray="none" points="229.567,262.137 229.567,267.640 "/>
      <polyline fill="none" stroke="#262626" stroke-width="3.0pt" stroke-dasharray="none" points="321.275,262.137 321.275,267.640 "/>
      <polyline fill="none" stroke="#262626" stroke-width="3.0pt" stroke-dasharray="none" points="46.150,262.137 321.275,262.137 "/>
  <g transform="translate(46.150,298.277)">
    <g transform="rotate(-0.0)">
      <text x="0.000" y="0.000" font-family="Helvetica" text-anchor="middle" font-size="22pt" fill="#262626" >-1</text>
    </g>
  </g>
  <g transform="translate(137.858,298.277)">
    <g transform="rotate(-0.0)">
      <text x="0.000" y="0.000" font-family="Helvetica" text-anchor="middle" font-size="22pt" fill="#262626" >0</text>
    </g>
  </g>
  <g transform="translate(229.567,298.277)">
    <g transform="rotate(-0.0)">
      <text x="0.000" y="0.000" font-family="Helvetica" text-anchor="middle" font-size="22pt" fill="#262626" >1</text>
    </g>
  </g>
  <g transform="translate(321.275,298.277)">
    <g transform="rotate(-0.0)">
      <text x="0.000" y="0.000" font-family="Helvetica" text-anchor="middle" font-size="22pt" fill="#262626" >2</text>
    </g>
  </g>
      <polyline fill="none" stroke="#262626" stroke-width="3.0pt" stroke-dasharray="none" points="46.150,262.137 40.648,262.137 "/>
      <polyline fill="none" stroke="#262626" stroke-width="3.0pt" stroke-dasharray="none" points="46.150,182.227 40.648,182.227 "/>
      <polyline fill="none" stroke="#262626" stroke-width="3.0pt" stroke-dasharray="none" points="46.150,102.317 40.648,102.317 "/>
      <polyline fill="none" stroke="#262626" stroke-width="3.0pt" stroke-dasharray="none" points="46.150,22.406 40.648,22.406 "/>
      <polyline fill="none" stroke="#262626" stroke-width="3.0pt" stroke-dasharray="none" points="46.150,262.137 46.150,22.406 "/>
  <g transform="translate(35.145,272.262)">
    <g transform="rotate(-0.0)">
      <text x="0.000" y="0.000" font-family="Helvetica" text-anchor="end" font-size="22pt" fill="#262626" >-1</text>
    </g>
  </g>
  <g transform="translate(35.145,192.352)">
    <g transform="rotate(-0.0)">
      <text x="0.000" y="0.000" font-family="Helvetica" text-anchor="end" font-size="22pt" fill="#262626" >0</text>
    </g>
  </g>
  <g transform="translate(35.145,112.442)">
    <g transform="rotate(-0.0)">
      <text x="0.000" y="0.000" font-family="Helvetica" text-anchor="end" font-size="22pt" fill="#262626" >1</text>
    </g>
  </g>
  <g transform="translate(35.145,32.531)">
    <g transform="rotate(-0.0)">
      <text x="0.000" y="0.000" font-family="Helvetica" text-anchor="end" font-size="22pt" fill="#262626" >2</text>
    </g>
  </g>
      <polyline fill="none" stroke="#262626" stroke-width="3.0pt" stroke-dasharray="none" points="46.150,262.137 46.150,266.932 "/>
      <polyline fill="none" stroke="#262626" stroke-width="3.0pt" stroke-dasharray="none" points="46.150,262.137 46.150,266.932 "/>
      <polyline fill="none" stroke="#262626" stroke-width="3.0pt" stroke-dasharray="none" points="46.150,262.137 46.150,266.932 "/>
      <polyline fill="none" stroke="#262626" stroke-width="3.0pt" stroke-dasharray="none" points="46.150,262.137 46.150,262.137 "/>
    </g>
  </g>
  </g>
</svg>
