<?xml version="1.0" encoding="utf-8" standalone="no"?><!DOCTYPE svg PUBLIC "-//W3C//DTD SVG 1.1//EN" "http://www.w3.org/Graphics/SVG/1.1/DTD/svg11.dtd">
<svg preserveAspectRatio="xMinYMin meet" width="100%" height="100%" viewBox="0 0 355.000 298.750"  version="1.1" xmlns="http://www.w3.org/2000/svg" xmlns:xlink="http://www.w3.org/1999/xlink">
  <desc>Matlab Figure Converted by PLOT2SVG written by Juerg Schwizer</desc>
  <g id="topgroup">
  <rect x="0" y="0" width="355.000" height="298.750" fill="#ffffff" stroke="none" />
  <g id ="ID000000">
  <clipPath id="ID000001">
    <rect x="46.150" y="22.406" width="275.125" height="239.731"/>
  </clipPath>
      <polygon fill="#ffffff" fill-opacity="1.00" stroke="none" stroke-width="3.0pt" stroke-opacity="1.00" stroke-dasharray="none" points="46.150,262.137 321.275,262.137 321.275,22.406 46.150,22.406 "/>
      <polygon fill="#ffffff" fill-opacity="1.00" stroke="none" stroke-width="3.0pt" stroke-opacity="1.00" stroke-dasharray="none" points="46.150,262.137 321.275,262.137 321.275,262.137 46.150,262.137 "/>
      <polygon fill="#ffffff" fill-opacity="1.00" stroke="none" stroke-width="3.0pt" stroke-opacity="1.00" stroke-dasharray="none" points="46.150,262.137 46.150,262.137 46.150,22.406 46.150,22.406 "/>
    <g>
<g id="ID000002" clip-path="url(#ID000001)" >
      <polygon fill="#69bd45" fill-opacity="0.15" stroke="none" stroke-width="0.5pt" stroke-opacity="1.00" stroke-dasharray="none" points="44.854,199.850 49.391,201.978 53.927,203.087 58.464,201.782 63.001,202.811 67.538,203.770 72.075,202.385 76.611,202.153 81.148,202.449 85.685,202.072 90.222,203.372 94.759,202.040 99.295,203.516 103.832,204.050 108.369,202.268 112.906,199.861 117.443,202.498 121.980,202.567 126.516,204.666 131.053,203.832 135.590,205.045 140.127,203.397 144.664,203.815 149.200,203.049 153.737,202.542 158.274,205.928 162.811,206.873 167.348,206.696 171.884,205.278 176.421,205.836 180.958,204.965 185.495,207.367 190.032,209.126 194.568,211.742 199.105,214.716 203.642,218.356 208.179,221.354 212.716,225.828 217.252,225.823 221.789,226.481 226.326,225.743 230.863,224.799 235.400,225.334 239.937,224.476 244.473,222.325 249.010,224.168 253.547,223.281 258.084,220.634 262.621,220.018 267.157,219.282 271.694,217.704 276.231,216.895 280.768,217.775 285.305,216.479 289.841,216.638 294.378,214.400 298.915,214.428 303.452,214.011 307.989,215.686 312.525,215.785 317.062,216.635 321.599,218.212 326.136,218.428 330.673,220.637 335.209,220.734 339.746,222.378 344.283,222.563 348.820,225.887 353.357,224.843 357.894,224.787 362.430,226.742 366.967,226.748 371.504,226.898 376.041,226.638 380.578,226.795 385.114,228.668 389.651,227.177 394.188,227.016 398.725,225.846 403.262,226.374 407.798,224.163 412.335,224.190 416.872,224.004 421.409,222.172 425.946,223.722 430.482,222.962 435.019,219.175 439.556,217.101 444.093,215.491 448.630,215.250 453.166,214.031 457.703,212.546 462.240,211.758 466.777,209.446 471.314,208.790 475.851,207.310 480.387,205.720 484.924,204.803 489.461,204.161 493.998,203.425 498.535,201.500 503.071,201.976 507.608,200.777 507.608,171.929 503.071,171.483 498.535,169.582 493.998,171.618 489.461,173.316 484.924,172.612 480.387,171.894 475.851,175.933 471.314,175.254 466.777,176.901 462.240,180.109 457.703,179.151 453.166,180.452 448.630,181.684 444.093,184.294 439.556,183.976 435.019,187.819 430.482,190.982 425.946,191.621 421.409,190.046 416.872,192.348 412.335,194.092 407.798,195.847 403.262,198.649 398.725,200.752 394.188,201.163 389.651,203.485 385.114,207.329 380.578,206.960 376.041,208.063 371.504,208.223 366.967,210.178 362.430,210.234 357.894,209.668 353.357,210.959 348.820,212.758 344.283,211.730 339.746,212.946 335.209,211.972 330.673,213.135 326.136,209.744 321.599,209.253 317.062,206.555 312.525,204.924 307.989,204.622 303.452,201.909 298.915,203.106 294.378,199.672 289.841,201.772 285.305,200.861 280.768,201.871 276.231,200.941 271.694,200.352 267.157,201.279 262.621,201.108 258.084,200.212 253.547,200.093 249.010,199.300 244.473,196.037 239.937,195.487 235.400,193.882 230.863,191.464 226.326,191.678 221.789,190.741 217.252,190.267 212.716,188.648 208.179,184.084 203.642,181.671 199.105,178.650 194.568,178.957 190.032,177.887 185.495,178.324 180.958,177.830 176.421,178.211 171.884,178.813 167.348,181.288 162.811,185.211 158.274,184.698 153.737,180.994 149.200,180.664 144.664,181.790 140.127,181.109 135.590,181.560 131.053,181.079 126.516,182.013 121.980,180.892 117.443,181.595 112.906,179.790 108.369,179.353 103.832,180.590 99.295,182.111 94.759,180.582 90.222,179.415 85.685,179.806 81.148,179.533 76.611,179.722 72.075,179.909 67.538,180.708 63.001,179.256 58.464,178.718 53.927,180.750 49.391,181.183 44.854,180.687 "/>
</g>
<g id="ID000003" clip-path="url(#ID000001)" >
      <polyline fill="none" stroke="#69bd45" stroke-width="2.0pt" stroke-dasharray="none" points="44.854,190.268 49.391,191.581 53.927,191.918 58.464,190.250 63.001,191.034 67.538,192.239 72.075,191.147 76.611,190.937 81.148,190.991 85.685,190.939 90.222,191.393 94.759,191.311 99.295,192.814 103.832,192.320 108.369,190.811 112.906,189.826 117.443,192.047 121.980,191.729 126.516,193.340 131.053,192.456 135.590,193.302 140.127,192.253 144.664,192.802 149.200,191.857 153.737,191.768 158.274,195.313 162.811,196.042 167.348,193.992 171.884,192.045 176.421,192.023 180.958,191.397 185.495,192.846 190.032,193.506 194.568,195.350 199.105,196.683 203.642,200.013 208.179,202.719 212.716,207.238 217.252,208.045 221.789,208.611 226.326,208.711 230.863,208.132 235.400,209.608 239.937,209.981 244.473,209.181 249.010,211.734 253.547,211.687 258.084,210.423 262.621,210.563 267.157,210.281 271.694,209.028 276.231,208.918 280.768,209.823 285.305,208.670 289.841,209.205 294.378,207.036 298.915,208.767 303.452,207.960 307.989,210.154 312.525,210.355 317.062,211.595 321.599,213.732 326.136,214.086 330.673,216.886 335.209,216.353 339.746,217.662 344.283,217.146 348.820,219.322 353.357,217.901 357.894,217.227 362.430,218.488 366.967,218.463 371.504,217.561 376.041,217.350 380.578,216.877 385.114,217.999 389.651,215.331 394.188,214.089 398.725,213.299 403.262,212.511 407.798,210.005 412.335,209.141 416.872,208.176 421.409,206.109 425.946,207.671 430.482,206.972 435.019,203.497 439.556,200.538 444.093,199.893 448.630,198.467 453.166,197.242 457.703,195.849 462.240,195.933 466.777,193.173 471.314,192.022 475.851,191.621 480.387,188.807 484.924,188.708 489.461,188.739 493.998,187.521 498.535,185.541 503.071,186.729 507.608,186.353 "/>
<g>
</g>
</g>
<g id="ID000004" clip-path="url(#ID000001)" >
<rect x="137.858" y="94.326" width="91.708" height="7.991" rx="0.000" ry="0.000" fill="#ffff00" stroke="#000000" stroke-width="0.5pt" stroke-dasharray="none" />
</g>
<g id="ID000005" >
  <g transform="translate(229.567,25.781)">
    <g transform="rotate(-0.0)">
      <text x="0.000" y="0.000" font-family="Helvetica" text-anchor="start" font-size="8pt" fill="#e5e5e5" >n = 5 mice</text>
    </g>
  </g>
</g>
<g id="ID000006" >
  <g transform="translate(229.567,41.763)">
    <g transform="rotate(-0.0)">
      <text x="0.000" y="0.000" font-family="Helvetica" text-anchor="start" font-size="8pt" fill="#e5e5e5" >n = 1650 trials</text>
    </g>
  </g>
</g>
<g id="ID000007" >
  <g transform="translate(229.567,57.745)">
    <g transform="rotate(-0.0)">
      <text x="0.000" y="0.000" font-family="Helvetica" text-anchor="start" font-size="8pt" fill="#e5e5e5" >Across 16 sessions</text>
    </g>
  </g>
</g>
<g id="ID000008" clip-path="url(#ID000001)" >
      <polygon fill="#b32800" fill-opacity="0.15" stroke="none" stroke-width="0.5pt" stroke-opacity="1.00" stroke-dasharray="none" points="44.854,190.135 49.391,185.948 53.927,193.775 58.464,192.555 63.001,188.881 67.538,186.516 72.075,195.178 76.611,187.751 81.148,196.651 85.685,193.321 90.222,195.900 94.759,206.626 99.295,201.598 103.832,202.062 108.369,196.027 112.906,200.008 117.443,198.291 121.980,202.740 126.516,201.557 131.053,209.061 135.590,206.972 140.127,206.139 144.664,207.212 149.200,203.438 153.737,196.834 158.274,209.181 162.811,208.884 167.348,207.770 171.884,205.976 176.421,200.300 180.958,208.402 185.495,201.089 190.032,200.908 194.568,202.274 199.105,194.106 203.642,198.824 208.179,194.050 212.716,186.976 217.252,192.426 221.789,192.769 226.326,185.685 230.863,179.857 235.400,179.722 239.937,182.457 244.473,191.958 249.010,194.052 253.547,190.525 258.084,178.889 262.621,188.493 267.157,180.957 271.694,183.935 276.231,191.170 280.768,193.693 285.305,187.634 289.841,195.543 294.378,183.480 298.915,187.937 303.452,193.471 307.989,192.404 312.525,190.965 317.062,191.238 321.599,186.747 326.136,194.102 330.673,193.002 335.209,201.381 339.746,198.764 344.283,187.691 348.820,188.403 353.357,192.779 357.894,193.603 362.430,194.729 366.967,189.678 371.504,189.389 376.041,196.546 380.578,188.803 385.114,189.051 389.651,189.432 394.188,202.678 398.725,188.494 403.262,192.620 407.798,203.414 412.335,194.938 416.872,203.072 421.409,198.800 425.946,195.275 430.482,194.850 435.019,192.181 439.556,195.031 444.093,193.797 448.630,199.748 453.166,200.960 457.703,196.928 462.240,189.263 466.777,188.376 471.314,178.784 475.851,187.576 480.387,180.699 484.924,185.391 489.461,178.675 493.998,185.634 498.535,183.491 503.071,185.809 507.608,184.332 507.608,156.717 503.071,155.160 498.535,159.953 493.998,152.985 489.461,145.661 484.924,154.462 480.387,161.985 475.851,154.843 471.314,158.537 466.777,161.525 462.240,162.205 457.703,172.277 453.166,168.969 448.630,172.673 444.093,159.377 439.556,163.454 435.019,164.150 430.482,156.893 425.946,149.783 421.409,155.131 416.872,162.125 412.335,160.890 407.798,169.520 403.262,157.426 398.725,163.823 394.188,171.190 389.651,161.733 385.114,161.824 380.578,169.394 376.041,162.356 371.504,163.394 366.967,164.505 362.430,167.714 357.894,166.791 353.357,165.680 348.820,167.151 344.283,161.533 339.746,166.623 335.209,169.607 330.673,170.530 326.136,170.195 321.599,167.058 317.062,161.349 312.525,167.738 307.989,159.824 303.452,164.842 298.915,162.580 294.378,161.078 289.841,167.435 285.305,162.445 280.768,161.067 276.231,161.252 271.694,157.000 267.157,151.607 262.621,151.287 258.084,139.853 253.547,150.060 249.010,151.133 244.473,155.655 239.937,153.588 235.400,154.589 230.863,156.757 226.326,154.390 221.789,156.727 217.252,164.074 212.716,163.051 208.179,166.833 203.642,165.502 199.105,172.229 194.568,171.972 190.032,176.540 185.495,173.659 180.958,171.765 176.421,168.945 171.884,173.130 167.348,177.353 162.811,176.248 158.274,174.361 153.737,172.150 149.200,176.576 144.664,179.519 140.127,175.962 135.590,181.974 131.053,179.396 126.516,183.616 121.980,180.744 117.443,178.366 112.906,178.613 108.369,173.060 103.832,175.878 99.295,180.386 94.759,178.590 90.222,173.821 85.685,168.520 81.148,168.903 76.611,169.439 72.075,174.778 67.538,170.548 63.001,173.115 58.464,173.158 53.927,176.219 49.391,175.424 44.854,176.669 "/>
</g>
<g id="ID000009" clip-path="url(#ID000001)" >
      <polyline fill="none" stroke="#b32800" stroke-width="2.0pt" stroke-dasharray="none" points="44.854,183.402 49.391,180.686 53.927,184.997 58.464,182.856 63.001,180.998 67.538,178.532 72.075,184.978 76.611,178.595 81.148,182.777 85.685,180.921 90.222,184.860 94.759,192.608 99.295,190.992 103.832,188.970 108.369,184.543 112.906,189.311 117.443,188.329 121.980,191.742 126.516,192.586 131.053,194.229 135.590,194.473 140.127,191.050 144.664,193.365 149.200,190.007 153.737,184.492 158.274,191.771 162.811,192.566 167.348,192.561 171.884,189.553 176.421,184.622 180.958,190.083 185.495,187.374 190.032,188.724 194.568,187.123 199.105,183.167 203.642,182.163 208.179,180.441 212.716,175.014 217.252,178.250 221.789,174.748 226.326,170.037 230.863,168.307 235.400,167.155 239.937,168.022 244.473,173.807 249.010,172.592 253.547,170.292 258.084,159.371 262.621,169.890 267.157,166.282 271.694,170.468 276.231,176.211 280.768,177.380 285.305,175.040 289.841,181.489 294.378,172.279 298.915,175.259 303.452,179.157 307.989,176.114 312.525,179.351 317.062,176.294 321.599,176.902 326.136,182.149 330.673,181.766 335.209,185.494 339.746,182.694 344.283,174.612 348.820,177.777 353.357,179.229 357.894,180.197 362.430,181.221 366.967,177.091 371.504,176.392 376.041,179.451 380.578,179.098 385.114,175.437 389.651,175.582 394.188,186.934 398.725,176.159 403.262,175.023 407.798,186.467 412.335,177.914 416.872,182.599 421.409,176.966 425.946,172.529 430.482,175.871 435.019,178.165 439.556,179.242 444.093,176.587 448.630,186.210 453.166,184.965 457.703,184.602 462.240,175.734 466.777,174.951 471.314,168.661 475.851,171.210 480.387,171.342 484.924,169.927 489.461,162.168 493.998,169.310 498.535,171.722 503.071,170.485 507.608,170.524 "/>
<g>
</g>
</g>
<g id="ID000010" clip-path="url(#ID000001)" >
<rect x="137.858" y="94.326" width="91.708" height="7.991" rx="0.000" ry="0.000" fill="#ffff00" stroke="#000000" stroke-width="0.5pt" stroke-dasharray="none" />
</g>
<g id="ID000011" >
  <g transform="translate(229.567,25.781)">
    <g transform="rotate(-0.0)">
      <text x="0.000" y="0.000" font-family="Helvetica" text-anchor="start" font-size="8pt" fill="#e5e5e5" >n = 5 mice</text>
    </g>
  </g>
</g>
<g id="ID000012" >
  <g transform="translate(229.567,41.763)">
    <g transform="rotate(-0.0)">
      <text x="0.000" y="0.000" font-family="Helvetica" text-anchor="start" font-size="8pt" fill="#e5e5e5" >n = 1650 trials</text>
    </g>
  </g>
</g>
<g id="ID000013" >
  <g transform="translate(229.567,57.745)">
    <g transform="rotate(-0.0)">
      <text x="0.000" y="0.000" font-family="Helvetica" text-anchor="start" font-size="8pt" fill="#e5e5e5" >Across 16 sessions</text>
    </g>
  </g>
</g>
<g id="ID000014" clip-path="url(#ID000001)" >
      <polygon fill="#000000" fill-opacity="0.15" stroke="none" stroke-width="0.5pt" stroke-opacity="1.00" stroke-dasharray="none" points="44.854,185.348 49.391,187.776 53.927,188.442 58.464,187.663 63.001,188.285 67.538,188.372 72.075,190.345 76.611,189.419 81.148,187.777 85.685,188.510 90.222,188.929 94.759,189.529 99.295,191.632 103.832,192.517 108.369,191.662 112.906,191.083 117.443,190.067 121.980,190.040 126.516,189.386 131.053,190.837 135.590,189.287 140.127,189.534 144.664,190.077 149.200,189.282 153.737,189.568 158.274,191.351 162.811,191.084 167.348,186.044 171.884,185.104 176.421,184.447 180.958,190.414 185.495,188.916 190.032,189.600 194.568,191.506 199.105,189.269 203.642,192.449 208.179,192.255 212.716,192.167 217.252,194.586 221.789,192.746 226.326,192.191 230.863,191.022 235.400,191.200 239.937,189.749 244.473,191.072 249.010,190.069 253.547,189.925 258.084,188.671 262.621,189.267 267.157,190.411 271.694,191.439 276.231,189.129 280.768,189.258 285.305,189.939 289.841,191.846 294.378,191.410 298.915,189.959 303.452,189.319 307.989,188.970 312.525,189.336 317.062,188.445 321.599,189.356 326.136,187.371 330.673,189.016 335.209,187.912 339.746,188.257 344.283,188.010 348.820,188.086 353.357,190.517 357.894,188.870 362.430,188.214 366.967,187.940 371.504,186.950 376.041,189.381 380.578,185.551 385.114,185.962 389.651,186.132 394.188,185.824 398.725,185.777 403.262,183.352 407.798,186.662 412.335,187.393 416.872,186.432 421.409,187.423 425.946,190.225 430.482,189.696 435.019,188.363 439.556,186.413 444.093,185.909 448.630,187.519 453.166,186.953 457.703,187.547 462.240,189.015 466.777,188.233 471.314,189.143 475.851,185.884 480.387,185.600 484.924,186.429 489.461,185.052 493.998,186.652 498.535,186.425 503.071,185.893 507.608,188.272 507.608,178.365 503.071,174.587 498.535,177.074 493.998,176.817 489.461,175.167 484.924,174.982 480.387,173.632 475.851,173.804 471.314,178.057 466.777,176.938 462.240,178.157 457.703,176.704 453.166,176.296 448.630,176.653 444.093,174.320 439.556,174.920 435.019,175.838 430.482,178.009 425.946,176.683 421.409,175.292 416.872,175.107 412.335,176.033 407.798,176.052 403.262,171.861 398.725,174.977 394.188,174.732 389.651,175.946 385.114,175.718 380.578,175.317 376.041,179.056 371.504,178.900 366.967,179.389 362.430,179.497 357.894,178.772 353.357,180.874 348.820,179.216 344.283,178.936 339.746,179.690 335.209,180.955 330.673,180.091 326.136,177.903 321.599,179.650 317.062,178.121 312.525,178.320 307.989,180.917 303.452,179.518 298.915,181.368 294.378,181.499 289.841,182.926 285.305,182.712 280.768,181.108 276.231,180.024 271.694,182.175 267.157,181.659 262.621,178.583 258.084,179.630 253.547,181.546 249.010,181.240 244.473,181.985 239.937,179.211 235.400,182.345 230.863,180.443 226.326,182.208 221.789,183.181 217.252,185.626 212.716,183.157 208.179,181.763 203.642,183.528 199.105,179.996 194.568,180.237 190.032,178.694 185.495,179.596 180.958,179.468 176.421,174.796 171.884,177.391 167.348,179.046 162.811,181.268 158.274,181.867 153.737,180.323 149.200,179.328 144.664,181.018 140.127,181.098 135.590,180.227 131.053,182.762 126.516,179.372 121.980,179.591 117.443,181.223 112.906,183.172 108.369,182.259 103.832,183.305 99.295,182.100 94.759,179.625 90.222,180.199 85.685,179.804 81.148,178.584 76.611,179.541 72.075,180.525 67.538,177.155 63.001,178.555 58.464,177.380 53.927,179.048 49.391,178.714 44.854,176.327 "/>
</g>
<g id="ID000015" clip-path="url(#ID000001)" >
      <polyline fill="none" stroke="#000000" stroke-width="2.0pt" stroke-dasharray="none" points="44.854,180.837 49.391,183.245 53.927,183.745 58.464,182.521 63.001,183.420 67.538,182.763 72.075,185.435 76.611,184.480 81.148,183.181 85.685,184.157 90.222,184.564 94.759,184.577 99.295,186.866 103.832,187.911 108.369,186.961 112.906,187.128 117.443,185.645 121.980,184.816 126.516,184.379 131.053,186.799 135.590,184.757 140.127,185.316 144.664,185.547 149.200,184.305 153.737,184.945 158.274,186.609 162.811,186.176 167.348,182.545 171.884,181.247 176.421,179.621 180.958,184.941 185.495,184.256 190.032,184.147 194.568,185.872 199.105,184.632 203.642,187.989 208.179,187.009 212.716,187.662 217.252,190.106 221.789,187.964 226.326,187.200 230.863,185.733 235.400,186.772 239.937,184.480 244.473,186.529 249.010,185.655 253.547,185.735 258.084,184.150 262.621,183.925 267.157,186.035 271.694,186.807 276.231,184.576 280.768,185.183 285.305,186.325 289.841,187.386 294.378,186.454 298.915,185.664 303.452,184.419 307.989,184.943 312.525,183.828 317.062,183.283 321.599,184.503 326.136,182.637 330.673,184.553 335.209,184.433 339.746,183.973 344.283,183.473 348.820,183.651 353.357,185.695 357.894,183.821 362.430,183.855 366.967,183.664 371.504,182.925 376.041,184.218 380.578,180.434 385.114,180.840 389.651,181.039 394.188,180.278 398.725,180.377 403.262,177.607 407.798,181.357 412.335,181.713 416.872,180.770 421.409,181.358 425.946,183.454 430.482,183.852 435.019,182.101 439.556,180.666 444.093,180.115 448.630,182.086 453.166,181.624 457.703,182.126 462.240,183.586 466.777,182.586 471.314,183.600 475.851,179.844 480.387,179.616 484.924,180.706 489.461,180.110 493.998,181.734 498.535,181.750 503.071,180.240 507.608,183.319 "/>
<g>
</g>
</g>
<g id="ID000016" clip-path="url(#ID000001)" >
<rect x="137.858" y="94.326" width="91.708" height="7.991" rx="0.000" ry="0.000" fill="#ffff00" stroke="#000000" stroke-width="0.5pt" stroke-dasharray="none" />
</g>
<g id="ID000017" >
  <g transform="translate(229.567,25.781)">
    <g transform="rotate(-0.0)">
      <text x="0.000" y="0.000" font-family="Helvetica" text-anchor="start" font-size="8pt" fill="#e5e5e5" >n = 5 mice</text>
    </g>
  </g>
</g>
<g id="ID000018" >
  <g transform="translate(229.567,41.763)">
    <g transform="rotate(-0.0)">
      <text x="0.000" y="0.000" font-family="Helvetica" text-anchor="start" font-size="8pt" fill="#e5e5e5" >n = 1650 trials</text>
    </g>
  </g>
</g>
<g id="ID000019" >
  <g transform="translate(229.567,57.745)">
    <g transform="rotate(-0.0)">
      <text x="0.000" y="0.000" font-family="Helvetica" text-anchor="start" font-size="8pt" fill="#e5e5e5" >Across 16 sessions</text>
    </g>
  </g>
</g>
<g id="ID000020" clip-path="url(#ID000001)" >
<g>
</g>
</g>
<g id="ID000021" clip-path="url(#ID000001)" >
<rect x="137.858" y="94.326" width="91.708" height="7.991" rx="0.000" ry="0.000" fill="#ffff00" stroke="#000000" stroke-width="0.5pt" stroke-dasharray="none" />
</g>
<g id="ID000022" >
  <g transform="translate(229.567,25.781)">
    <g transform="rotate(-0.0)">
      <text x="0.000" y="0.000" font-family="Helvetica" text-anchor="start" font-size="8pt" fill="#e5e5e5" >n = 5 mice</text>
    </g>
  </g>
</g>
<g id="ID000023" >
  <g transform="translate(229.567,41.763)">
    <g transform="rotate(-0.0)">
      <text x="0.000" y="0.000" font-family="Helvetica" text-anchor="start" font-size="8pt" fill="#e5e5e5" >n = 1650 trials</text>
    </g>
  </g>
</g>
<g id="ID000024" >
  <g transform="translate(229.567,57.745)">
    <g transform="rotate(-0.0)">
      <text x="0.000" y="0.000" font-family="Helvetica" text-anchor="start" font-size="8pt" fill="#e5e5e5" >Across 16 sessions</text>
    </g>
  </g>
</g>
    </g>
    <g>
      <polyline fill="none" stroke="#262626" stroke-width="3.0pt" stroke-dasharray="none" points="46.150,262.137 46.150,267.640 "/>
      <polyline fill="none" stroke="#262626" stroke-width="3.0pt" stroke-dasharray="none" points="137.858,262.137 137.858,267.640 "/>
      <polyline fill="none" stroke="#262626" stroke-width="3.0pt" stroke-dasharray="none" points="229.567,262.137 229.567,267.640 "/>
      <polyline fill="none" stroke="#262626" stroke-width="3.0pt" stroke-dasharray="none" points="321.275,262.137 321.275,267.640 "/>
      <polyline fill="none" stroke="#262626" stroke-width="3.0pt" stroke-dasharray="none" points="46.150,262.137 321.275,262.137 "/>
  <g transform="translate(46.150,298.277)">
    <g transform="rotate(-0.0)">
      <text x="0.000" y="0.000" font-family="Helvetica" text-anchor="middle" font-size="22pt" fill="#262626" >-1</text>
    </g>
  </g>
  <g transform="translate(137.858,298.277)">
    <g transform="rotate(-0.0)">
      <text x="0.000" y="0.000" font-family="Helvetica" text-anchor="middle" font-size="22pt" fill="#262626" >0</text>
    </g>
  </g>
  <g transform="translate(229.567,298.277)">
    <g transform="rotate(-0.0)">
      <text x="0.000" y="0.000" font-family="Helvetica" text-anchor="middle" font-size="22pt" fill="#262626" >1</text>
    </g>
  </g>
  <g transform="translate(321.275,298.277)">
    <g transform="rotate(-0.0)">
      <text x="0.000" y="0.000" font-family="Helvetica" text-anchor="middle" font-size="22pt" fill="#262626" >2</text>
    </g>
  </g>
      <polyline fill="none" stroke="#262626" stroke-width="3.0pt" stroke-dasharray="none" points="46.150,262.137 40.648,262.137 "/>
      <polyline fill="none" stroke="#262626" stroke-width="3.0pt" stroke-dasharray="none" points="46.150,182.227 40.648,182.227 "/>
      <polyline fill="none" stroke="#262626" stroke-width="3.0pt" stroke-dasharray="none" points="46.150,102.317 40.648,102.317 "/>
      <polyline fill="none" stroke="#262626" stroke-width="3.0pt" stroke-dasharray="none" points="46.150,22.406 40.648,22.406 "/>
      <polyline fill="none" stroke="#262626" stroke-width="3.0pt" stroke-dasharray="none" points="46.150,262.137 46.150,22.406 "/>
  <g transform="translate(35.145,272.262)">
    <g transform="rotate(-0.0)">
      <text x="0.000" y="0.000" font-family="Helvetica" text-anchor="end" font-size="22pt" fill="#262626" >-1</text>
    </g>
  </g>
  <g transform="translate(35.145,192.352)">
    <g transform="rotate(-0.0)">
      <text x="0.000" y="0.000" font-family="Helvetica" text-anchor="end" font-size="22pt" fill="#262626" >0</text>
    </g>
  </g>
  <g transform="translate(35.145,112.442)">
    <g transform="rotate(-0.0)">
      <text x="0.000" y="0.000" font-family="Helvetica" text-anchor="end" font-size="22pt" fill="#262626" >1</text>
    </g>
  </g>
  <g transform="translate(35.145,32.531)">
    <g transform="rotate(-0.0)">
      <text x="0.000" y="0.000" font-family="Helvetica" text-anchor="end" font-size="22pt" fill="#262626" >2</text>
    </g>
  </g>
      <polyline fill="none" stroke="#262626" stroke-width="3.0pt" stroke-dasharray="none" points="46.150,262.137 46.150,266.932 "/>
      <polyline fill="none" stroke="#262626" stroke-width="3.0pt" stroke-dasharray="none" points="46.150,262.137 46.150,266.932 "/>
      <polyline fill="none" stroke="#262626" stroke-width="3.0pt" stroke-dasharray="none" points="46.150,262.137 46.150,266.932 "/>
      <polyline fill="none" stroke="#262626" stroke-width="3.0pt" stroke-dasharray="none" points="46.150,262.137 46.150,262.137 "/>
    </g>
  </g>
  </g>
</svg>
