<?xml version="1.0" encoding="utf-8" standalone="no"?><!DOCTYPE svg PUBLIC "-//W3C//DTD SVG 1.1//EN" "http://www.w3.org/Graphics/SVG/1.1/DTD/svg11.dtd">
<svg preserveAspectRatio="xMinYMin meet" width="100%" height="100%" viewBox="0 0 355.000 298.750"  version="1.1" xmlns="http://www.w3.org/2000/svg" xmlns:xlink="http://www.w3.org/1999/xlink">
  <desc>Matlab Figure Converted by PLOT2SVG written by Juerg Schwizer</desc>
  <g id="topgroup">
  <rect x="0" y="0" width="355.000" height="298.750" fill="#ffffff" stroke="none" />
  <g id ="ID000000">
  <clipPath id="ID000001">
    <rect x="46.150" y="22.406" width="275.125" height="239.731"/>
  </clipPath>
      <polygon fill="#ffffff" fill-opacity="1.00" stroke="none" stroke-width="3.0pt" stroke-opacity="1.00" stroke-dasharray="none" points="46.150,262.137 321.275,262.137 321.275,22.406 46.150,22.406 "/>
      <polygon fill="#ffffff" fill-opacity="1.00" stroke="none" stroke-width="3.0pt" stroke-opacity="1.00" stroke-dasharray="none" points="46.150,262.137 321.275,262.137 321.275,262.137 46.150,262.137 "/>
      <polygon fill="#ffffff" fill-opacity="1.00" stroke="none" stroke-width="3.0pt" stroke-opacity="1.00" stroke-dasharray="none" points="46.150,262.137 46.150,262.137 46.150,22.406 46.150,22.406 "/>
    <g>
<g id="ID000002" clip-path="url(#ID000001)" >
      <polygon fill="#69bd45" fill-opacity="0.15" stroke="none" stroke-width="0.5pt" stroke-opacity="1.00" stroke-dasharray="none" points="45.372,218.753 48.094,218.389 50.816,222.572 53.539,223.897 56.261,222.390 58.983,222.766 61.705,223.075 64.427,223.906 67.149,223.571 69.871,224.384 72.593,223.908 75.315,224.135 78.037,222.299 80.759,219.819 83.481,219.520 86.204,219.078 88.926,217.491 91.648,218.283 94.370,219.359 97.092,218.878 99.814,217.555 102.536,218.560 105.258,216.030 107.980,215.764 110.702,216.297 113.424,211.212 116.146,209.613 118.869,210.984 121.591,212.276 124.313,219.928 127.035,227.685 129.757,233.440 132.479,239.080 135.201,241.254 137.923,244.664 140.645,245.335 143.367,245.771 146.089,244.626 148.811,242.841 151.534,241.185 154.256,239.176 156.978,236.623 159.700,234.527 162.422,230.432 165.144,229.304 167.866,228.306 170.588,225.033 173.310,222.122 176.032,219.850 178.754,218.858 181.477,217.393 184.199,215.164 186.921,215.819 189.643,213.567 192.365,211.397 195.087,210.348 197.809,207.256 200.531,204.321 203.253,205.723 205.975,202.364 208.697,199.246 211.419,199.135 214.142,198.151 216.864,195.875 219.586,195.962 222.308,194.140 225.030,193.767 227.752,191.696 230.474,191.744 233.196,189.683 235.918,187.122 238.640,188.067 241.362,189.281 244.084,187.646 246.807,188.164 249.529,182.286 252.251,182.540 254.973,181.067 257.695,179.606 260.417,180.245 263.139,181.843 265.861,179.971 268.583,178.488 271.305,179.285 274.027,176.490 276.749,176.373 279.472,175.832 282.194,174.901 284.916,176.428 287.638,174.947 290.360,176.836 293.082,176.232 295.804,176.459 298.526,178.546 301.248,176.410 303.970,176.058 306.692,174.362 309.414,174.313 312.137,176.822 314.859,176.147 317.581,175.107 320.303,177.845 323.025,173.819 323.025,160.799 320.303,163.202 317.581,159.941 314.859,161.046 312.137,160.148 309.414,158.565 306.692,159.224 303.970,158.430 301.248,159.650 298.526,161.172 295.804,158.983 293.082,157.626 290.360,159.043 287.638,157.086 284.916,159.563 282.194,157.792 279.472,158.266 276.749,156.738 274.027,156.168 271.305,157.831 268.583,158.221 265.861,160.314 263.139,158.449 260.417,157.113 257.695,157.179 254.973,157.614 252.251,157.449 249.529,157.642 246.807,160.841 244.084,160.730 241.362,161.204 238.640,162.279 235.918,160.358 233.196,162.387 230.474,163.044 227.752,162.710 225.030,165.645 222.308,163.726 219.586,165.154 216.864,164.151 214.142,165.742 211.419,169.441 208.697,168.547 205.975,171.411 203.253,173.887 200.531,172.823 197.809,174.777 195.087,175.810 192.365,177.303 189.643,180.761 186.921,182.501 184.199,180.519 181.477,185.789 178.754,186.561 176.032,189.602 173.310,190.102 170.588,195.392 167.866,198.783 165.144,198.782 162.422,202.706 159.700,206.211 156.978,207.276 154.256,212.494 151.534,214.004 148.811,216.913 146.089,219.572 143.367,219.000 140.645,219.627 137.923,219.204 135.201,217.446 132.479,217.793 129.757,211.658 127.035,207.608 124.313,202.032 121.591,195.685 118.869,195.748 116.146,194.135 113.424,194.920 110.702,198.616 107.980,201.015 105.258,204.682 102.536,206.392 99.814,206.283 97.092,208.286 94.370,209.559 91.648,209.021 88.926,210.216 86.204,208.260 83.481,207.487 80.759,206.592 78.037,205.458 75.315,204.578 72.593,202.499 69.871,200.771 67.149,198.292 64.427,194.720 61.705,193.568 58.983,190.653 56.261,188.235 53.539,186.978 50.816,185.700 48.094,183.627 45.372,185.115 "/>
</g>
<g id="ID000003" clip-path="url(#ID000001)" >
      <polyline fill="none" stroke="#69bd45" stroke-width="2.0pt" stroke-dasharray="none" points="45.372,201.934 48.094,201.008 50.816,204.136 53.539,205.438 56.261,205.312 58.983,206.709 61.705,208.321 64.427,209.313 67.149,210.931 69.871,212.578 72.593,213.204 75.315,214.357 78.037,213.879 80.759,213.206 83.481,213.503 86.204,213.669 88.926,213.854 91.648,213.652 94.370,214.459 97.092,213.582 99.814,211.919 102.536,212.476 105.258,210.356 107.980,208.390 110.702,207.457 113.424,203.066 116.146,201.874 118.869,203.366 121.591,203.980 124.313,210.980 127.035,217.647 129.757,222.549 132.479,228.436 135.201,229.350 137.923,231.934 140.645,232.481 143.367,232.386 146.089,232.099 148.811,229.877 151.534,227.595 154.256,225.835 156.978,221.950 159.700,220.369 162.422,216.569 165.144,214.043 167.866,213.545 170.588,210.213 173.310,206.112 176.032,204.726 178.754,202.710 181.477,201.591 184.199,197.841 186.921,199.160 189.643,197.164 192.365,194.350 195.087,193.079 197.809,191.017 200.531,188.572 203.253,189.805 205.975,186.888 208.697,183.896 211.419,184.288 214.142,181.946 216.864,180.013 219.586,180.558 222.308,178.933 225.030,179.706 227.752,177.203 230.474,177.394 233.196,176.035 235.918,173.740 238.640,175.173 241.362,175.242 244.084,174.188 246.807,174.503 249.529,169.964 252.251,169.995 254.973,169.340 257.695,168.392 260.417,168.679 263.139,170.146 265.861,170.142 268.583,168.354 271.305,168.558 274.027,166.329 276.749,166.555 279.472,167.049 282.194,166.347 284.916,167.996 287.638,166.017 290.360,167.940 293.082,166.929 295.804,167.721 298.526,169.859 301.248,168.030 303.970,167.244 306.692,166.793 309.414,166.439 312.137,168.485 314.859,168.596 317.581,167.524 320.303,170.523 323.025,167.309 "/>
<g>
</g>
</g>
<g id="ID000004" clip-path="url(#ID000001)" >
      <polyline fill="none" stroke="#000000" stroke-width="1.5pt" stroke-dasharray="8.0,2.0" points="101.175,581.779 101.175,-1415.981 "/>
<g>
</g>
</g>
<g id="ID000005" >
  <g transform="translate(156.200,25.781)">
    <g transform="rotate(-0.0)">
      <text x="0.000" y="0.000" font-family="Helvetica" text-anchor="start" font-size="8pt" fill="#e5e5e5" >n = 5 mice</text>
    </g>
  </g>
</g>
<g id="ID000006" >
  <g transform="translate(156.200,41.763)">
    <g transform="rotate(-0.0)">
      <text x="0.000" y="0.000" font-family="Helvetica" text-anchor="start" font-size="8pt" fill="#e5e5e5" >n = 1650 trials</text>
    </g>
  </g>
</g>
<g id="ID000007" >
  <g transform="translate(156.200,57.745)">
    <g transform="rotate(-0.0)">
      <text x="0.000" y="0.000" font-family="Helvetica" text-anchor="start" font-size="8pt" fill="#e5e5e5" >Across 16 sessions</text>
    </g>
  </g>
</g>
<g id="ID000008" clip-path="url(#ID000001)" >
<g>
</g>
</g>
<g id="ID000009" clip-path="url(#ID000001)" >
      <polyline fill="none" stroke="#000000" stroke-width="1.5pt" stroke-dasharray="8.0,2.0" points="101.175,581.779 101.175,-1415.981 "/>
<g>
</g>
</g>
<g id="ID000010" >
  <g transform="translate(156.200,25.781)">
    <g transform="rotate(-0.0)">
      <text x="0.000" y="0.000" font-family="Helvetica" text-anchor="start" font-size="8pt" fill="#e5e5e5" >n = 5 mice</text>
    </g>
  </g>
</g>
<g id="ID000011" >
  <g transform="translate(156.200,41.763)">
    <g transform="rotate(-0.0)">
      <text x="0.000" y="0.000" font-family="Helvetica" text-anchor="start" font-size="8pt" fill="#e5e5e5" >n = 1650 trials</text>
    </g>
  </g>
</g>
<g id="ID000012" >
  <g transform="translate(156.200,57.745)">
    <g transform="rotate(-0.0)">
      <text x="0.000" y="0.000" font-family="Helvetica" text-anchor="start" font-size="8pt" fill="#e5e5e5" >Across 16 sessions</text>
    </g>
  </g>
</g>
<g id="ID000013" clip-path="url(#ID000001)" >
<g>
</g>
</g>
<g id="ID000014" clip-path="url(#ID000001)" >
      <polyline fill="none" stroke="#000000" stroke-width="1.5pt" stroke-dasharray="8.0,2.0" points="101.175,581.779 101.175,-1415.981 "/>
<g>
</g>
</g>
<g id="ID000015" >
  <g transform="translate(156.200,25.781)">
    <g transform="rotate(-0.0)">
      <text x="0.000" y="0.000" font-family="Helvetica" text-anchor="start" font-size="8pt" fill="#e5e5e5" >n = 5 mice</text>
    </g>
  </g>
</g>
<g id="ID000016" >
  <g transform="translate(156.200,41.763)">
    <g transform="rotate(-0.0)">
      <text x="0.000" y="0.000" font-family="Helvetica" text-anchor="start" font-size="8pt" fill="#e5e5e5" >n = 1650 trials</text>
    </g>
  </g>
</g>
<g id="ID000017" >
  <g transform="translate(156.200,57.745)">
    <g transform="rotate(-0.0)">
      <text x="0.000" y="0.000" font-family="Helvetica" text-anchor="start" font-size="8pt" fill="#e5e5e5" >Across 16 sessions</text>
    </g>
  </g>
</g>
<g id="ID000018" clip-path="url(#ID000001)" >
<g>
</g>
</g>
<g id="ID000019" clip-path="url(#ID000001)" >
      <polyline fill="none" stroke="#000000" stroke-width="1.5pt" stroke-dasharray="8.0,2.0" points="101.175,581.779 101.175,-1415.981 "/>
<g>
</g>
</g>
<g id="ID000020" >
  <g transform="translate(156.200,25.781)">
    <g transform="rotate(-0.0)">
      <text x="0.000" y="0.000" font-family="Helvetica" text-anchor="start" font-size="8pt" fill="#e5e5e5" >n = 5 mice</text>
    </g>
  </g>
</g>
<g id="ID000021" >
  <g transform="translate(156.200,41.763)">
    <g transform="rotate(-0.0)">
      <text x="0.000" y="0.000" font-family="Helvetica" text-anchor="start" font-size="8pt" fill="#e5e5e5" >n = 1650 trials</text>
    </g>
  </g>
</g>
<g id="ID000022" >
  <g transform="translate(156.200,57.745)">
    <g transform="rotate(-0.0)">
      <text x="0.000" y="0.000" font-family="Helvetica" text-anchor="start" font-size="8pt" fill="#e5e5e5" >Across 16 sessions</text>
    </g>
  </g>
</g>
    </g>
    <g>
      <polyline fill="none" stroke="#262626" stroke-width="3.0pt" stroke-dasharray="none" points="101.175,262.137 101.175,267.640 "/>
      <polyline fill="none" stroke="#262626" stroke-width="3.0pt" stroke-dasharray="none" points="211.225,262.137 211.225,267.640 "/>
      <polyline fill="none" stroke="#262626" stroke-width="3.0pt" stroke-dasharray="none" points="321.275,262.137 321.275,267.640 "/>
      <polyline fill="none" stroke="#262626" stroke-width="3.0pt" stroke-dasharray="none" points="46.150,262.137 321.275,262.137 "/>
  <g transform="translate(101.175,298.277)">
    <g transform="rotate(-0.0)">
      <text x="0.000" y="0.000" font-family="Helvetica" text-anchor="middle" font-size="22pt" fill="#262626" >0</text>
    </g>
  </g>
  <g transform="translate(211.225,298.277)">
    <g transform="rotate(-0.0)">
      <text x="0.000" y="0.000" font-family="Helvetica" text-anchor="middle" font-size="22pt" fill="#262626" >2</text>
    </g>
  </g>
  <g transform="translate(321.275,298.277)">
    <g transform="rotate(-0.0)">
      <text x="0.000" y="0.000" font-family="Helvetica" text-anchor="middle" font-size="22pt" fill="#262626" >4</text>
    </g>
  </g>
      <polyline fill="none" stroke="#262626" stroke-width="3.0pt" stroke-dasharray="none" points="46.150,262.137 40.648,262.137 "/>
      <polyline fill="none" stroke="#262626" stroke-width="3.0pt" stroke-dasharray="none" points="46.150,182.227 40.648,182.227 "/>
      <polyline fill="none" stroke="#262626" stroke-width="3.0pt" stroke-dasharray="none" points="46.150,102.317 40.648,102.317 "/>
      <polyline fill="none" stroke="#262626" stroke-width="3.0pt" stroke-dasharray="none" points="46.150,22.406 40.648,22.406 "/>
      <polyline fill="none" stroke="#262626" stroke-width="3.0pt" stroke-dasharray="none" points="46.150,262.137 46.150,22.406 "/>
  <g transform="translate(35.145,272.262)">
    <g transform="rotate(-0.0)">
      <text x="0.000" y="0.000" font-family="Helvetica" text-anchor="end" font-size="22pt" fill="#262626" >-1</text>
    </g>
  </g>
  <g transform="translate(35.145,192.352)">
    <g transform="rotate(-0.0)">
      <text x="0.000" y="0.000" font-family="Helvetica" text-anchor="end" font-size="22pt" fill="#262626" >0</text>
    </g>
  </g>
  <g transform="translate(35.145,112.442)">
    <g transform="rotate(-0.0)">
      <text x="0.000" y="0.000" font-family="Helvetica" text-anchor="end" font-size="22pt" fill="#262626" >1</text>
    </g>
  </g>
  <g transform="translate(35.145,32.531)">
    <g transform="rotate(-0.0)">
      <text x="0.000" y="0.000" font-family="Helvetica" text-anchor="end" font-size="22pt" fill="#262626" >2</text>
    </g>
  </g>
      <polyline fill="none" stroke="#262626" stroke-width="3.0pt" stroke-dasharray="none" points="46.150,262.137 46.150,266.932 "/>
      <polyline fill="none" stroke="#262626" stroke-width="3.0pt" stroke-dasharray="none" points="46.150,262.137 46.150,266.932 "/>
      <polyline fill="none" stroke="#262626" stroke-width="3.0pt" stroke-dasharray="none" points="46.150,262.137 46.150,266.932 "/>
      <polyline fill="none" stroke="#262626" stroke-width="3.0pt" stroke-dasharray="none" points="46.150,262.137 46.150,262.137 "/>
    </g>
  </g>
  </g>
</svg>
