<?xml version="1.0" encoding="utf-8" standalone="no"?><!DOCTYPE svg PUBLIC "-//W3C//DTD SVG 1.1//EN" "http://www.w3.org/Graphics/SVG/1.1/DTD/svg11.dtd">
<svg preserveAspectRatio="xMinYMin meet" width="100%" height="100%" viewBox="0 0 355.000 298.750"  version="1.1" xmlns="http://www.w3.org/2000/svg" xmlns:xlink="http://www.w3.org/1999/xlink">
  <desc>Matlab Figure Converted by PLOT2SVG written by Juerg Schwizer</desc>
  <g id="topgroup">
  <rect x="0" y="0" width="355.000" height="298.750" fill="#ffffff" stroke="none" />
  <g id ="ID000000">
  <clipPath id="ID000001">
    <rect x="46.150" y="22.406" width="275.125" height="239.731"/>
  </clipPath>
      <polygon fill="#ffffff" fill-opacity="1.00" stroke="none" stroke-width="3.0pt" stroke-opacity="1.00" stroke-dasharray="none" points="46.150,262.137 321.275,262.137 321.275,22.406 46.150,22.406 "/>
      <polygon fill="#ffffff" fill-opacity="1.00" stroke="none" stroke-width="3.0pt" stroke-opacity="1.00" stroke-dasharray="none" points="46.150,262.137 321.275,262.137 321.275,262.137 46.150,262.137 "/>
      <polygon fill="#ffffff" fill-opacity="1.00" stroke="none" stroke-width="3.0pt" stroke-opacity="1.00" stroke-dasharray="none" points="46.150,262.137 46.150,262.137 46.150,22.406 46.150,22.406 "/>
    <g>
<g id="ID000002" clip-path="url(#ID000001)" >
      <polygon fill="#69bd45" fill-opacity="0.15" stroke="none" stroke-width="0.5pt" stroke-opacity="1.00" stroke-dasharray="none" points="44.854,202.145 49.391,202.784 53.927,203.831 58.464,204.712 63.001,202.166 67.538,203.827 72.075,201.934 76.611,204.596 81.148,203.487 85.685,203.372 90.222,202.556 94.759,202.938 99.295,205.344 103.832,203.724 108.369,206.508 112.906,207.663 117.443,207.435 121.980,208.069 126.516,212.350 131.053,211.321 135.590,211.671 140.127,213.837 144.664,215.775 149.200,213.897 153.737,218.033 158.274,219.423 162.811,226.065 167.348,234.317 171.884,236.535 176.421,239.075 180.958,235.499 185.495,235.645 190.032,232.725 194.568,229.357 199.105,226.669 203.642,222.906 208.179,219.653 212.716,218.991 217.252,218.516 221.789,217.490 226.326,215.759 230.863,213.763 235.400,215.110 239.937,214.008 244.473,211.846 249.010,211.144 253.547,211.226 258.084,212.646 262.621,212.161 267.157,214.071 271.694,213.875 276.231,214.706 280.768,218.455 285.305,219.638 289.841,221.780 294.378,226.000 298.915,227.324 303.452,228.368 307.989,230.572 312.525,231.467 317.062,232.528 321.599,232.652 326.136,232.425 330.673,233.532 335.209,233.206 339.746,234.181 344.283,231.310 348.820,232.921 353.357,232.708 357.894,230.273 362.430,226.212 366.967,225.313 371.504,224.043 376.041,222.071 380.578,221.706 385.114,220.467 389.651,217.260 394.188,216.575 398.725,214.855 403.262,212.319 407.798,210.583 412.335,208.578 416.872,208.774 421.409,206.066 425.946,205.619 430.482,205.097 435.019,203.268 439.556,201.589 444.093,201.782 448.630,198.080 453.166,196.935 457.703,196.622 462.240,193.994 466.777,192.482 471.314,193.455 475.851,191.330 480.387,190.161 484.924,188.476 489.461,184.686 493.998,183.939 498.535,182.957 503.071,185.069 507.608,185.744 507.608,160.858 503.071,159.159 498.535,157.917 493.998,157.096 489.461,157.311 484.924,160.315 480.387,162.909 475.851,163.507 471.314,165.850 466.777,162.344 462.240,161.795 457.703,164.295 453.166,164.638 448.630,164.736 444.093,167.559 439.556,167.715 435.019,169.144 430.482,169.899 425.946,170.132 421.409,171.558 416.872,174.497 412.335,170.921 407.798,174.017 403.262,175.225 398.725,178.017 394.188,178.251 389.651,182.347 385.114,182.581 380.578,185.053 376.041,184.800 371.504,187.226 366.967,189.965 362.430,190.930 357.894,194.334 353.357,196.149 348.820,196.983 344.283,196.451 339.746,202.947 335.209,205.300 330.673,204.878 326.136,207.816 321.599,209.918 317.062,212.489 312.525,210.185 307.989,213.294 303.452,213.490 298.915,214.811 294.378,213.199 289.841,210.297 285.305,207.990 280.768,207.925 276.231,205.278 271.694,202.643 267.157,202.308 262.621,199.107 258.084,200.923 253.547,200.828 249.010,201.557 244.473,202.641 239.937,203.473 235.400,204.506 230.863,203.228 226.326,204.716 221.789,205.346 217.252,207.087 212.716,206.150 208.179,204.729 203.642,204.619 199.105,203.317 194.568,203.082 190.032,201.012 185.495,200.388 180.958,196.971 176.421,197.127 171.884,195.015 167.348,191.897 162.811,184.815 158.274,178.983 153.737,178.653 149.200,177.499 144.664,180.928 140.127,181.678 135.590,180.539 131.053,182.321 126.516,183.631 121.980,182.534 117.443,182.344 112.906,181.480 108.369,181.260 103.832,179.497 99.295,180.213 94.759,181.165 90.222,180.612 85.685,182.051 81.148,181.442 76.611,181.412 72.075,180.084 67.538,181.912 63.001,183.529 58.464,183.001 53.927,181.065 49.391,180.127 44.854,179.694 "/>
</g>
<g id="ID000003" clip-path="url(#ID000001)" >
      <polyline fill="none" stroke="#69bd45" stroke-width="2.0pt" stroke-dasharray="none" points="44.854,190.920 49.391,191.455 53.927,192.448 58.464,193.856 63.001,192.848 67.538,192.869 72.075,191.009 76.611,193.004 81.148,192.464 85.685,192.712 90.222,191.584 94.759,192.052 99.295,192.778 103.832,191.610 108.369,193.884 112.906,194.572 117.443,194.890 121.980,195.302 126.516,197.991 131.053,196.821 135.590,196.105 140.127,197.758 144.664,198.352 149.200,195.698 153.737,198.343 158.274,199.203 162.811,205.440 167.348,213.107 171.884,215.775 176.421,218.101 180.958,216.235 185.495,218.017 190.032,216.868 194.568,216.219 199.105,214.993 203.642,213.763 208.179,212.191 212.716,212.570 217.252,212.801 221.789,211.418 226.326,210.238 230.863,208.496 235.400,209.808 239.937,208.741 244.473,207.243 249.010,206.350 253.547,206.027 258.084,206.785 262.621,205.634 267.157,208.190 271.694,208.259 276.231,209.992 280.768,213.190 285.305,213.814 289.841,216.039 294.378,219.600 298.915,221.068 303.452,220.929 307.989,221.933 312.525,220.826 317.062,222.509 321.599,221.285 326.136,220.120 330.673,219.205 335.209,219.253 339.746,218.564 344.283,213.880 348.820,214.952 353.357,214.429 357.894,212.303 362.430,208.571 366.967,207.639 371.504,205.635 376.041,203.435 380.578,203.380 385.114,201.524 389.651,199.804 394.188,197.413 398.725,196.436 403.262,193.772 407.798,192.300 412.335,189.750 416.872,191.636 421.409,188.812 425.946,187.876 430.482,187.498 435.019,186.206 439.556,184.652 444.093,184.671 448.630,181.408 453.166,180.787 457.703,180.458 462.240,177.894 466.777,177.413 471.314,179.652 475.851,177.418 480.387,176.535 484.924,174.395 489.461,170.998 493.998,170.518 498.535,170.437 503.071,172.114 507.608,173.301 "/>
<g>
</g>
</g>
<g id="ID000004" clip-path="url(#ID000001)" >
      <polyline fill="none" stroke="#000000" stroke-width="1.5pt" stroke-dasharray="8.0,2.0" points="137.858,581.779 137.858,-1415.981 "/>
<g>
</g>
</g>
<g id="ID000005" >
  <g transform="translate(229.567,25.781)">
    <g transform="rotate(-0.0)">
      <text x="0.000" y="0.000" font-family="Helvetica" text-anchor="start" font-size="8pt" fill="#e5e5e5" >n = 5 mice</text>
    </g>
  </g>
</g>
<g id="ID000006" >
  <g transform="translate(229.567,41.763)">
    <g transform="rotate(-0.0)">
      <text x="0.000" y="0.000" font-family="Helvetica" text-anchor="start" font-size="8pt" fill="#e5e5e5" >n = 1650 trials</text>
    </g>
  </g>
</g>
<g id="ID000007" >
  <g transform="translate(229.567,57.745)">
    <g transform="rotate(-0.0)">
      <text x="0.000" y="0.000" font-family="Helvetica" text-anchor="start" font-size="8pt" fill="#e5e5e5" >Across 16 sessions</text>
    </g>
  </g>
</g>
<g id="ID000008" clip-path="url(#ID000001)" >
      <polygon fill="#b32800" fill-opacity="0.15" stroke="none" stroke-width="0.5pt" stroke-opacity="1.00" stroke-dasharray="none" points="44.854,200.562 49.391,200.458 53.927,196.327 58.464,197.191 63.001,199.887 67.538,200.759 72.075,198.036 76.611,194.974 81.148,194.431 85.685,201.306 90.222,194.773 94.759,194.978 99.295,194.825 103.832,197.050 108.369,204.073 112.906,202.549 117.443,201.636 121.980,203.205 126.516,206.410 131.053,208.380 135.590,208.157 140.127,209.502 144.664,207.879 149.200,205.493 153.737,209.184 158.274,212.168 162.811,213.665 167.348,223.626 171.884,217.405 176.421,220.301 180.958,211.814 185.495,205.853 190.032,202.082 194.568,203.913 199.105,189.962 203.642,189.419 208.179,189.215 212.716,198.942 217.252,195.324 221.789,193.451 226.326,192.044 230.863,196.680 235.400,191.438 239.937,193.737 244.473,191.680 249.010,194.019 253.547,189.421 258.084,186.642 262.621,189.862 267.157,183.784 271.694,188.777 276.231,190.952 280.768,178.784 285.305,187.218 289.841,195.469 294.378,193.730 298.915,192.267 303.452,191.656 307.989,192.259 312.525,174.373 317.062,182.766 321.599,189.239 326.136,192.940 330.673,193.533 335.209,202.590 339.746,193.187 344.283,187.888 348.820,187.898 353.357,192.065 357.894,175.898 362.430,197.700 366.967,197.459 371.504,185.197 376.041,190.536 380.578,195.623 385.114,191.520 389.651,190.579 394.188,177.884 398.725,180.071 403.262,177.734 407.798,170.461 412.335,179.781 416.872,179.725 421.409,183.004 425.946,177.848 430.482,180.448 435.019,176.416 439.556,166.860 444.093,178.974 448.630,169.288 453.166,177.058 457.703,178.315 462.240,170.706 466.777,183.892 471.314,181.336 475.851,181.989 480.387,177.385 484.924,177.495 489.461,177.180 493.998,178.136 498.535,188.302 503.071,177.129 507.608,177.946 507.608,148.758 503.071,147.575 498.535,156.806 493.998,147.314 489.461,146.152 484.924,141.955 480.387,142.036 475.851,144.370 471.314,142.960 466.777,144.658 462.240,132.891 457.703,136.139 453.166,135.456 448.630,123.127 444.093,140.612 439.556,135.596 435.019,142.789 430.482,141.761 425.946,140.627 421.409,147.908 416.872,154.933 412.335,151.135 407.798,148.478 403.262,154.354 398.725,150.112 394.188,157.107 389.651,162.638 385.114,163.724 380.578,170.872 376.041,158.809 371.504,153.942 366.967,154.815 362.430,162.130 357.894,149.498 353.357,157.279 348.820,151.621 344.283,154.080 339.746,156.306 335.209,152.298 330.673,157.564 326.136,153.188 321.599,152.900 317.062,151.911 312.525,145.476 307.989,154.874 303.452,152.307 298.915,152.479 294.378,148.797 289.841,144.388 285.305,147.883 280.768,140.781 276.231,144.237 271.694,146.198 267.157,135.205 262.621,138.356 258.084,139.319 253.547,130.585 249.010,145.932 244.473,148.588 239.937,148.499 235.400,152.958 230.863,157.563 226.326,146.688 221.789,156.933 217.252,158.637 212.716,166.557 208.179,158.072 203.642,166.666 199.105,166.764 194.568,173.082 190.032,174.407 185.495,177.444 180.958,181.986 176.421,186.029 171.884,185.263 167.348,184.654 162.811,180.626 158.274,174.517 153.737,167.587 149.200,168.195 144.664,173.833 140.127,174.144 135.590,171.981 131.053,168.690 126.516,167.960 121.980,169.475 117.443,167.525 112.906,178.099 108.369,175.594 103.832,170.305 99.295,169.184 94.759,163.951 90.222,158.513 85.685,160.907 81.148,163.880 76.611,159.745 72.075,169.538 67.538,172.852 63.001,170.041 58.464,167.350 53.927,170.074 49.391,166.922 44.854,174.265 "/>
</g>
<g id="ID000009" clip-path="url(#ID000001)" >
      <polyline fill="none" stroke="#b32800" stroke-width="2.0pt" stroke-dasharray="none" points="44.854,187.413 49.391,183.690 53.927,183.200 58.464,182.270 63.001,184.964 67.538,186.806 72.075,183.787 76.611,177.360 81.148,179.155 85.685,181.106 90.222,176.643 94.759,179.465 99.295,182.004 103.832,183.678 108.369,189.833 112.906,190.324 117.443,184.581 121.980,186.340 126.516,187.185 131.053,188.535 135.590,190.069 140.127,191.823 144.664,190.856 149.200,186.844 153.737,188.386 158.274,193.342 162.811,197.146 167.348,204.140 171.884,201.334 176.421,203.165 180.958,196.900 185.495,191.648 190.032,188.244 194.568,188.498 199.105,178.363 203.642,178.043 208.179,173.644 212.716,182.750 217.252,176.981 221.789,175.192 226.326,169.366 230.863,177.121 235.400,172.198 239.937,171.118 244.473,170.134 249.010,169.975 253.547,160.003 258.084,162.980 262.621,164.109 267.157,159.494 271.694,167.488 276.231,167.595 280.768,159.783 285.305,167.550 289.841,169.928 294.378,171.264 298.915,172.373 303.452,171.982 307.989,173.567 312.525,159.925 317.062,167.338 321.599,171.070 326.136,173.064 330.673,175.549 335.209,177.444 339.746,174.747 344.283,170.984 348.820,169.759 353.357,174.672 357.894,162.698 362.430,179.915 366.967,176.137 371.504,169.569 376.041,174.673 380.578,183.247 385.114,177.622 389.651,176.608 394.188,167.495 398.725,165.092 403.262,166.044 407.798,159.470 412.335,165.458 416.872,167.329 421.409,165.456 425.946,159.237 430.482,161.104 435.019,159.603 439.556,151.228 444.093,159.793 448.630,146.208 453.166,156.257 457.703,157.227 462.240,151.799 466.777,164.275 471.314,162.148 475.851,163.180 480.387,159.710 484.924,159.725 489.461,161.666 493.998,162.725 498.535,172.554 503.071,162.352 507.608,163.352 "/>
<g>
</g>
</g>
<g id="ID000010" clip-path="url(#ID000001)" >
      <polyline fill="none" stroke="#000000" stroke-width="1.5pt" stroke-dasharray="8.0,2.0" points="137.858,581.779 137.858,-1415.981 "/>
<g>
</g>
</g>
<g id="ID000011" >
  <g transform="translate(229.567,25.781)">
    <g transform="rotate(-0.0)">
      <text x="0.000" y="0.000" font-family="Helvetica" text-anchor="start" font-size="8pt" fill="#e5e5e5" >n = 5 mice</text>
    </g>
  </g>
</g>
<g id="ID000012" >
  <g transform="translate(229.567,41.763)">
    <g transform="rotate(-0.0)">
      <text x="0.000" y="0.000" font-family="Helvetica" text-anchor="start" font-size="8pt" fill="#e5e5e5" >n = 1650 trials</text>
    </g>
  </g>
</g>
<g id="ID000013" >
  <g transform="translate(229.567,57.745)">
    <g transform="rotate(-0.0)">
      <text x="0.000" y="0.000" font-family="Helvetica" text-anchor="start" font-size="8pt" fill="#e5e5e5" >Across 16 sessions</text>
    </g>
  </g>
</g>
<g id="ID000014" clip-path="url(#ID000001)" >
<g>
</g>
</g>
<g id="ID000015" clip-path="url(#ID000001)" >
      <polyline fill="none" stroke="#000000" stroke-width="1.5pt" stroke-dasharray="8.0,2.0" points="137.858,581.779 137.858,-1415.981 "/>
<g>
</g>
</g>
<g id="ID000016" >
  <g transform="translate(229.567,25.781)">
    <g transform="rotate(-0.0)">
      <text x="0.000" y="0.000" font-family="Helvetica" text-anchor="start" font-size="8pt" fill="#e5e5e5" >n = 5 mice</text>
    </g>
  </g>
</g>
<g id="ID000017" >
  <g transform="translate(229.567,41.763)">
    <g transform="rotate(-0.0)">
      <text x="0.000" y="0.000" font-family="Helvetica" text-anchor="start" font-size="8pt" fill="#e5e5e5" >n = 1650 trials</text>
    </g>
  </g>
</g>
<g id="ID000018" >
  <g transform="translate(229.567,57.745)">
    <g transform="rotate(-0.0)">
      <text x="0.000" y="0.000" font-family="Helvetica" text-anchor="start" font-size="8pt" fill="#e5e5e5" >Across 16 sessions</text>
    </g>
  </g>
</g>
<g id="ID000019" clip-path="url(#ID000001)" >
      <polygon fill="#15e1ff" fill-opacity="0.15" stroke="none" stroke-width="0.5pt" stroke-opacity="1.00" stroke-dasharray="none" points="44.854,204.499 49.391,206.223 53.927,201.831 58.464,205.211 63.001,198.026 67.538,198.875 72.075,201.114 76.611,204.419 81.148,203.571 85.685,200.897 90.222,198.727 94.759,208.342 99.295,203.539 103.832,211.857 108.369,203.252 112.906,207.249 117.443,209.742 121.980,216.699 126.516,213.684 131.053,213.001 135.590,211.981 140.127,213.198 144.664,214.078 149.200,211.173 153.737,205.547 158.274,208.688 162.811,218.732 167.348,221.142 171.884,217.945 176.421,211.011 180.958,205.961 185.495,201.513 190.032,207.943 194.568,199.316 199.105,192.885 203.642,197.404 208.179,195.335 212.716,201.283 217.252,196.482 221.789,194.348 226.326,194.642 230.863,192.886 235.400,189.135 239.937,186.684 244.473,188.345 249.010,188.578 253.547,191.742 258.084,196.176 262.621,198.516 267.157,199.761 271.694,198.457 276.231,192.404 280.768,202.356 285.305,197.794 289.841,194.556 294.378,197.569 298.915,194.060 303.452,197.772 307.989,195.430 312.525,196.678 317.062,201.825 321.599,192.742 326.136,196.939 330.673,194.633 335.209,188.105 339.746,190.822 344.283,194.717 348.820,196.297 353.357,189.581 357.894,190.172 362.430,184.948 366.967,188.776 371.504,177.332 376.041,191.037 380.578,185.432 385.114,187.603 389.651,185.447 394.188,185.784 398.725,181.691 403.262,175.065 407.798,183.894 412.335,179.775 416.872,175.030 421.409,175.370 425.946,180.574 430.482,178.244 435.019,181.328 439.556,179.798 444.093,186.594 448.630,185.571 453.166,184.381 457.703,184.901 462.240,182.861 466.777,187.643 471.314,192.447 475.851,181.300 480.387,179.989 484.924,178.413 489.461,185.974 493.998,186.825 498.535,186.495 503.071,183.679 507.608,179.269 507.608,152.896 503.071,154.563 498.535,159.778 493.998,160.444 489.461,158.955 484.924,152.566 480.387,154.965 475.851,151.409 471.314,158.674 466.777,156.706 462.240,159.712 457.703,157.428 453.166,158.978 448.630,160.853 444.093,162.779 439.556,155.080 435.019,158.890 430.482,155.703 425.946,155.435 421.409,154.728 416.872,154.490 412.335,156.194 407.798,158.676 403.262,154.935 398.725,158.255 394.188,160.911 389.651,158.894 385.114,162.766 380.578,162.299 376.041,166.389 371.504,154.434 366.967,159.808 362.430,157.860 357.894,162.347 353.357,165.477 348.820,171.409 344.283,166.637 339.746,166.650 335.209,164.661 330.673,169.045 326.136,168.189 321.599,163.514 317.062,175.000 312.525,170.545 307.989,172.804 303.452,174.326 298.915,166.641 294.378,174.321 289.841,174.607 285.305,173.747 280.768,176.678 276.231,170.659 271.694,176.390 267.157,182.942 262.621,182.054 258.084,180.626 253.547,179.738 249.010,177.762 244.473,178.328 239.937,178.509 235.400,180.030 230.863,182.183 226.326,181.091 221.789,186.669 217.252,184.854 212.716,187.809 208.179,188.026 203.642,188.622 199.105,187.005 194.568,187.125 190.032,191.939 185.495,192.236 180.958,192.483 176.421,192.138 171.884,195.295 167.348,188.999 162.811,183.786 158.274,174.625 153.737,175.198 149.200,185.305 144.664,191.451 140.127,188.562 135.590,186.481 131.053,184.545 126.516,186.145 121.980,188.679 117.443,188.212 112.906,185.460 108.369,181.388 103.832,190.359 99.295,186.156 94.759,182.747 90.222,182.380 85.685,184.823 81.148,182.477 76.611,183.149 72.075,178.386 67.538,176.073 63.001,173.050 58.464,179.764 53.927,176.075 49.391,179.533 44.854,178.562 "/>
</g>
<g id="ID000020" clip-path="url(#ID000001)" >
      <polyline fill="none" stroke="#15e1ff" stroke-width="2.0pt" stroke-dasharray="none" points="44.854,191.531 49.391,192.878 53.927,188.953 58.464,192.488 63.001,185.538 67.538,187.474 72.075,189.750 76.611,193.784 81.148,193.024 85.685,192.860 90.222,190.554 94.759,195.544 99.295,194.848 103.832,201.108 108.369,192.320 112.906,196.354 117.443,198.977 121.980,202.689 126.516,199.914 131.053,198.773 135.590,199.231 140.127,200.880 144.664,202.765 149.200,198.239 153.737,190.373 158.274,191.656 162.811,201.259 167.348,205.070 171.884,206.620 176.421,201.574 180.958,199.222 185.495,196.874 190.032,199.941 194.568,193.220 199.105,189.945 203.642,193.013 208.179,191.681 212.716,194.546 217.252,190.668 221.789,190.508 226.326,187.867 230.863,187.534 235.400,184.582 239.937,182.596 244.473,183.336 249.010,183.170 253.547,185.740 258.084,188.401 262.621,190.285 267.157,191.352 271.694,187.423 276.231,181.531 280.768,189.517 285.305,185.770 289.841,184.581 294.378,185.945 298.915,180.350 303.452,186.049 307.989,184.117 312.525,183.612 317.062,188.413 321.599,178.128 326.136,182.564 330.673,181.839 335.209,176.383 339.746,178.736 344.283,180.677 348.820,183.853 353.357,177.529 357.894,176.260 362.430,171.404 366.967,174.292 371.504,165.883 376.041,178.713 380.578,173.866 385.114,175.184 389.651,172.170 394.188,173.347 398.725,169.973 403.262,165.000 407.798,171.285 412.335,167.984 416.872,164.760 421.409,165.049 425.946,168.004 430.482,166.974 435.019,170.109 439.556,167.439 444.093,174.686 448.630,173.212 453.166,171.680 457.703,171.164 462.240,171.286 466.777,172.175 471.314,175.560 475.851,166.355 480.387,167.477 484.924,165.489 489.461,172.464 493.998,173.634 498.535,173.136 503.071,169.121 507.608,166.083 "/>
<g>
</g>
</g>
<g id="ID000021" clip-path="url(#ID000001)" >
      <polyline fill="none" stroke="#000000" stroke-width="1.5pt" stroke-dasharray="8.0,2.0" points="137.858,581.779 137.858,-1415.981 "/>
<g>
</g>
</g>
<g id="ID000022" >
  <g transform="translate(229.567,25.781)">
    <g transform="rotate(-0.0)">
      <text x="0.000" y="0.000" font-family="Helvetica" text-anchor="start" font-size="8pt" fill="#e5e5e5" >n = 5 mice</text>
    </g>
  </g>
</g>
<g id="ID000023" >
  <g transform="translate(229.567,41.763)">
    <g transform="rotate(-0.0)">
      <text x="0.000" y="0.000" font-family="Helvetica" text-anchor="start" font-size="8pt" fill="#e5e5e5" >n = 1650 trials</text>
    </g>
  </g>
</g>
<g id="ID000024" >
  <g transform="translate(229.567,57.745)">
    <g transform="rotate(-0.0)">
      <text x="0.000" y="0.000" font-family="Helvetica" text-anchor="start" font-size="8pt" fill="#e5e5e5" >Across 16 sessions</text>
    </g>
  </g>
</g>
    </g>
    <g>
      <polyline fill="none" stroke="#262626" stroke-width="3.0pt" stroke-dasharray="none" points="46.150,262.137 46.150,267.640 "/>
      <polyline fill="none" stroke="#262626" stroke-width="3.0pt" stroke-dasharray="none" points="137.858,262.137 137.858,267.640 "/>
      <polyline fill="none" stroke="#262626" stroke-width="3.0pt" stroke-dasharray="none" points="229.567,262.137 229.567,267.640 "/>
      <polyline fill="none" stroke="#262626" stroke-width="3.0pt" stroke-dasharray="none" points="321.275,262.137 321.275,267.640 "/>
      <polyline fill="none" stroke="#262626" stroke-width="3.0pt" stroke-dasharray="none" points="46.150,262.137 321.275,262.137 "/>
  <g transform="translate(46.150,298.277)">
    <g transform="rotate(-0.0)">
      <text x="0.000" y="0.000" font-family="Helvetica" text-anchor="middle" font-size="22pt" fill="#262626" >-1</text>
    </g>
  </g>
  <g transform="translate(137.858,298.277)">
    <g transform="rotate(-0.0)">
      <text x="0.000" y="0.000" font-family="Helvetica" text-anchor="middle" font-size="22pt" fill="#262626" >0</text>
    </g>
  </g>
  <g transform="translate(229.567,298.277)">
    <g transform="rotate(-0.0)">
      <text x="0.000" y="0.000" font-family="Helvetica" text-anchor="middle" font-size="22pt" fill="#262626" >1</text>
    </g>
  </g>
  <g transform="translate(321.275,298.277)">
    <g transform="rotate(-0.0)">
      <text x="0.000" y="0.000" font-family="Helvetica" text-anchor="middle" font-size="22pt" fill="#262626" >2</text>
    </g>
  </g>
      <polyline fill="none" stroke="#262626" stroke-width="3.0pt" stroke-dasharray="none" points="46.150,262.137 40.648,262.137 "/>
      <polyline fill="none" stroke="#262626" stroke-width="3.0pt" stroke-dasharray="none" points="46.150,182.227 40.648,182.227 "/>
      <polyline fill="none" stroke="#262626" stroke-width="3.0pt" stroke-dasharray="none" points="46.150,102.317 40.648,102.317 "/>
      <polyline fill="none" stroke="#262626" stroke-width="3.0pt" stroke-dasharray="none" points="46.150,22.406 40.648,22.406 "/>
      <polyline fill="none" stroke="#262626" stroke-width="3.0pt" stroke-dasharray="none" points="46.150,262.137 46.150,22.406 "/>
  <g transform="translate(35.145,272.262)">
    <g transform="rotate(-0.0)">
      <text x="0.000" y="0.000" font-family="Helvetica" text-anchor="end" font-size="22pt" fill="#262626" >-1</text>
    </g>
  </g>
  <g transform="translate(35.145,192.352)">
    <g transform="rotate(-0.0)">
      <text x="0.000" y="0.000" font-family="Helvetica" text-anchor="end" font-size="22pt" fill="#262626" >0</text>
    </g>
  </g>
  <g transform="translate(35.145,112.442)">
    <g transform="rotate(-0.0)">
      <text x="0.000" y="0.000" font-family="Helvetica" text-anchor="end" font-size="22pt" fill="#262626" >1</text>
    </g>
  </g>
  <g transform="translate(35.145,32.531)">
    <g transform="rotate(-0.0)">
      <text x="0.000" y="0.000" font-family="Helvetica" text-anchor="end" font-size="22pt" fill="#262626" >2</text>
    </g>
  </g>
      <polyline fill="none" stroke="#262626" stroke-width="3.0pt" stroke-dasharray="none" points="46.150,262.137 46.150,266.932 "/>
      <polyline fill="none" stroke="#262626" stroke-width="3.0pt" stroke-dasharray="none" points="46.150,262.137 46.150,266.932 "/>
      <polyline fill="none" stroke="#262626" stroke-width="3.0pt" stroke-dasharray="none" points="46.150,262.137 46.150,266.932 "/>
      <polyline fill="none" stroke="#262626" stroke-width="3.0pt" stroke-dasharray="none" points="46.150,262.137 46.150,262.137 "/>
    </g>
  </g>
  </g>
</svg>
