<?xml version="1.0" encoding="utf-8" standalone="no"?><!DOCTYPE svg PUBLIC "-//W3C//DTD SVG 1.1//EN" "http://www.w3.org/Graphics/SVG/1.1/DTD/svg11.dtd">
<svg preserveAspectRatio="xMinYMin meet" width="100%" height="100%" viewBox="0 0 208.750 237.500"  version="1.1" xmlns="http://www.w3.org/2000/svg" xmlns:xlink="http://www.w3.org/1999/xlink">
  <desc>Matlab Figure Converted by PLOT2SVG written by Juerg Schwizer</desc>
  <g id="topgroup">
  <rect x="0" y="0" width="208.750" height="237.500" fill="#ffffff" stroke="none" />
  <g id ="ID000000">
  <clipPath id="ID000001">
    <rect x="68.763" y="17.812" width="120.156" height="168.187"/>
  </clipPath>
      <polygon fill="#ffffff" fill-opacity="1.00" stroke="none" stroke-width="2.0pt" stroke-opacity="1.00" stroke-dasharray="none" points="68.763,186.000 188.919,186.000 188.919,17.812 68.763,17.812 "/>
      <polygon fill="#ffffff" fill-opacity="1.00" stroke="none" stroke-width="2.0pt" stroke-opacity="1.00" stroke-dasharray="none" points="68.763,17.812 188.919,17.812 188.919,17.812 68.763,17.812 "/>
      <polygon fill="#ffffff" fill-opacity="1.00" stroke="none" stroke-width="2.0pt" stroke-opacity="1.00" stroke-dasharray="none" points="68.763,186.000 68.763,186.000 68.763,17.812 68.763,17.812 "/>
    <g>
    </g>
    <g>
      <polyline fill="none" stroke="#262626" stroke-width="2.0pt" stroke-dasharray="none" points="108.815,186.000 108.815,189.364 "/>
      <polyline fill="none" stroke="#262626" stroke-width="2.0pt" stroke-dasharray="none" points="148.867,186.000 148.867,189.364 "/>
      <polyline fill="none" stroke="#262626" stroke-width="2.0pt" stroke-dasharray="none" points="68.763,186.000 188.919,186.000 "/>
  <g transform="translate(108.815,216.327)">
    <g transform="rotate(-0.0)">
      <text x="0.000" y="0.000" font-family="Helvetica" text-anchor="middle" font-size="20pt" fill="#262626" >Pre</text>
    </g>
  </g>
  <g transform="translate(148.867,216.327)">
    <g transform="rotate(-0.0)">
      <text x="0.000" y="0.000" font-family="Helvetica" text-anchor="middle" font-size="20pt" fill="#262626" >Post</text>
    </g>
  </g>
      <polyline fill="none" stroke="#262626" stroke-width="2.0pt" stroke-dasharray="none" points="68.763,186.000 65.399,186.000 "/>
      <polyline fill="none" stroke="#262626" stroke-width="2.0pt" stroke-dasharray="none" points="68.763,129.937 65.399,129.937 "/>
      <polyline fill="none" stroke="#262626" stroke-width="2.0pt" stroke-dasharray="none" points="68.763,73.875 65.399,73.875 "/>
      <polyline fill="none" stroke="#262626" stroke-width="2.0pt" stroke-dasharray="none" points="68.763,17.812 65.399,17.812 "/>
      <polyline fill="none" stroke="#262626" stroke-width="2.0pt" stroke-dasharray="none" points="68.763,186.000 68.763,17.812 "/>
  <g transform="translate(63.956,195.000)">
    <g transform="rotate(-0.0)">
      <text x="0.000" y="0.000" font-family="Helvetica" text-anchor="end" font-size="20pt" fill="#262626" >0</text>
    </g>
  </g>
  <g transform="translate(63.956,138.937)">
    <g transform="rotate(-0.0)">
      <text x="0.000" y="0.000" font-family="Helvetica" text-anchor="end" font-size="20pt" fill="#262626" >0.2</text>
    </g>
  </g>
  <g transform="translate(63.956,82.875)">
    <g transform="rotate(-0.0)">
      <text x="0.000" y="0.000" font-family="Helvetica" text-anchor="end" font-size="20pt" fill="#262626" >0.4</text>
    </g>
  </g>
  <g transform="translate(63.956,26.812)">
    <g transform="rotate(-0.0)">
      <text x="0.000" y="0.000" font-family="Helvetica" text-anchor="end" font-size="20pt" fill="#262626" >0.6</text>
    </g>
  </g>
      <polyline fill="none" stroke="#262626" stroke-width="2.0pt" stroke-dasharray="none" points="68.763,186.000 68.763,189.364 "/>
      <polyline fill="none" stroke="#262626" stroke-width="2.0pt" stroke-dasharray="none" points="68.763,186.000 68.763,189.364 "/>
      <polyline fill="none" stroke="#262626" stroke-width="2.0pt" stroke-dasharray="none" points="68.763,186.000 68.763,189.364 "/>
      <polyline fill="none" stroke="#262626" stroke-width="2.0pt" stroke-dasharray="none" points="68.763,186.000 68.763,186.000 "/>
    </g>
  </g>
  </g>
</svg>
