<?xml version="1.0" encoding="utf-8" standalone="no"?><!DOCTYPE svg PUBLIC "-//W3C//DTD SVG 1.1//EN" "http://www.w3.org/Graphics/SVG/1.1/DTD/svg11.dtd">
<svg preserveAspectRatio="xMinYMin meet" width="100%" height="100%" viewBox="0 0 355.000 298.750"  version="1.1" xmlns="http://www.w3.org/2000/svg" xmlns:xlink="http://www.w3.org/1999/xlink">
  <desc>Matlab Figure Converted by PLOT2SVG written by Juerg Schwizer</desc>
  <g id="topgroup">
  <rect x="0" y="0" width="355.000" height="298.750" fill="#ffffff" stroke="none" />
  <g id ="ID000000">
  <clipPath id="ID000001">
    <rect x="46.150" y="22.406" width="275.125" height="239.731"/>
  </clipPath>
      <polygon fill="#ffffff" fill-opacity="1.00" stroke="none" stroke-width="3.0pt" stroke-opacity="1.00" stroke-dasharray="none" points="46.150,262.137 321.275,262.137 321.275,22.406 46.150,22.406 "/>
      <polygon fill="#ffffff" fill-opacity="1.00" stroke="none" stroke-width="3.0pt" stroke-opacity="1.00" stroke-dasharray="none" points="46.150,262.137 321.275,262.137 321.275,262.137 46.150,262.137 "/>
      <polygon fill="#ffffff" fill-opacity="1.00" stroke="none" stroke-width="3.0pt" stroke-opacity="1.00" stroke-dasharray="none" points="46.150,262.137 46.150,262.137 46.150,22.406 46.150,22.406 "/>
    <g>
<g id="ID000002" clip-path="url(#ID000001)" >
      <polygon fill="#69bd45" fill-opacity="0.15" stroke="none" stroke-width="0.5pt" stroke-opacity="1.00" stroke-dasharray="none" points="44.854,164.486 49.391,163.110 53.927,162.067 58.464,163.455 63.001,163.224 67.538,163.913 72.075,165.554 76.611,165.969 81.148,166.757 85.685,166.753 90.222,161.228 94.759,162.290 99.295,164.738 103.832,165.426 108.369,168.767 112.906,167.914 117.443,168.860 121.980,168.895 126.516,166.378 131.053,168.691 135.590,166.306 140.127,168.510 144.664,168.152 149.200,171.166 153.737,168.209 158.274,166.026 162.811,164.408 167.348,154.721 171.884,153.274 176.421,151.204 180.958,150.119 185.495,150.958 190.032,148.063 194.568,148.396 199.105,148.461 203.642,150.446 208.179,149.677 212.716,151.840 217.252,147.514 221.789,147.991 226.326,143.984 230.863,139.749 235.400,135.732 239.937,130.775 244.473,126.037 249.010,123.428 253.547,121.002 258.084,121.716 262.621,116.812 267.157,111.664 271.694,111.562 276.231,100.552 280.768,105.119 285.305,101.715 289.841,99.052 294.378,101.976 298.915,100.035 303.452,100.143 307.989,99.654 312.525,98.334 317.062,94.789 321.599,100.800 326.136,101.067 330.673,102.775 335.209,103.037 339.746,105.349 344.283,106.657 348.820,112.801 353.357,114.694 357.894,114.378 362.430,118.524 366.967,120.816 371.504,123.580 376.041,124.380 380.578,128.234 385.114,133.770 389.651,134.235 394.188,138.796 398.725,142.596 403.262,143.932 407.798,149.045 412.335,149.544 416.872,155.052 421.409,154.474 425.946,158.366 430.482,159.765 435.019,161.340 439.556,165.328 444.093,167.043 448.630,168.464 453.166,168.799 457.703,173.397 462.240,177.245 466.777,176.618 471.314,180.360 475.851,181.003 480.387,181.518 484.924,185.345 489.461,186.426 493.998,186.251 498.535,189.818 503.071,192.757 507.608,193.309 507.608,178.779 503.071,177.219 498.535,175.425 493.998,173.330 489.461,173.788 484.924,170.404 480.387,166.643 475.851,165.456 471.314,166.200 466.777,160.394 462.240,160.086 457.703,159.688 453.166,154.140 448.630,152.078 444.093,151.920 439.556,146.701 435.019,143.423 430.482,140.482 425.946,137.046 421.409,134.941 416.872,137.941 412.335,133.543 407.798,133.643 403.262,126.595 398.725,127.434 394.188,125.077 389.651,120.610 385.114,117.856 380.578,113.655 376.041,107.646 371.504,106.591 366.967,102.208 362.430,99.451 357.894,95.109 353.357,93.156 348.820,91.281 344.283,84.707 339.746,80.669 335.209,77.909 330.673,75.488 326.136,71.645 321.599,67.608 317.062,65.925 312.525,66.446 307.989,65.767 303.452,66.147 298.915,64.147 294.378,67.931 289.841,67.520 285.305,68.399 280.768,73.071 276.231,75.240 271.694,78.597 267.157,80.477 262.621,84.820 258.084,87.717 253.547,92.119 249.010,95.383 244.473,100.264 239.937,105.541 235.400,111.902 230.863,117.075 226.326,122.977 221.789,124.749 217.252,129.162 212.716,129.151 208.179,129.240 203.642,128.472 199.105,125.742 194.568,126.497 190.032,125.645 185.495,126.423 180.958,127.939 176.421,133.746 171.884,135.886 167.348,140.703 162.811,148.539 158.274,152.819 153.737,153.653 149.200,154.976 144.664,155.490 140.127,156.205 135.590,155.547 131.053,156.631 126.516,155.676 121.980,155.994 117.443,155.727 112.906,154.449 108.369,154.519 103.832,153.477 99.295,152.364 94.759,152.348 90.222,150.586 85.685,155.068 81.148,154.076 76.611,153.013 72.075,151.468 67.538,150.607 63.001,153.050 58.464,154.835 53.927,150.237 49.391,152.471 44.854,150.724 "/>
</g>
<g id="ID000003" clip-path="url(#ID000001)" >
      <polyline fill="none" stroke="#69bd45" stroke-width="2.0pt" stroke-dasharray="none" points="44.854,157.605 49.391,157.791 53.927,156.152 58.464,159.145 63.001,158.137 67.538,157.260 72.075,158.511 76.611,159.491 81.148,160.417 85.685,160.911 90.222,155.907 94.759,157.319 99.295,158.551 103.832,159.451 108.369,161.643 112.906,161.182 117.443,162.293 121.980,162.445 126.516,161.027 131.053,162.661 135.590,160.927 140.127,162.357 144.664,161.821 149.200,163.071 153.737,160.931 158.274,159.422 162.811,156.474 167.348,147.712 171.884,144.580 176.421,142.475 180.958,139.029 185.495,138.690 190.032,136.854 194.568,137.446 199.105,137.101 203.642,139.459 208.179,139.459 212.716,140.496 217.252,138.338 221.789,136.370 226.326,133.480 230.863,128.412 235.400,123.817 239.937,118.158 244.473,113.150 249.010,109.405 253.547,106.560 258.084,104.716 262.621,100.816 267.157,96.071 271.694,95.079 276.231,87.896 280.768,89.095 285.305,85.057 289.841,83.286 294.378,84.953 298.915,82.091 303.452,83.145 307.989,82.710 312.525,82.390 317.062,80.357 321.599,84.204 326.136,86.356 330.673,89.132 335.209,90.473 339.746,93.009 344.283,95.682 348.820,102.041 353.357,103.925 357.894,104.744 362.430,108.987 366.967,111.512 371.504,115.085 376.041,116.013 380.578,120.945 385.114,125.813 389.651,127.422 394.188,131.937 398.725,135.015 403.262,135.263 407.798,141.344 412.335,141.544 416.872,146.496 421.409,144.707 425.946,147.706 430.482,150.124 435.019,152.382 439.556,156.015 444.093,159.482 448.630,160.271 453.166,161.470 457.703,166.543 462.240,168.666 466.777,168.506 471.314,173.280 475.851,173.230 480.387,174.081 484.924,177.875 489.461,180.107 493.998,179.790 498.535,182.621 503.071,184.988 507.608,186.044 "/>
<g>
</g>
</g>
<g id="ID000004" clip-path="url(#ID000001)" >
<rect x="137.858" y="94.326" width="91.708" height="7.991" rx="0.000" ry="0.000" fill="#ffff00" stroke="#000000" stroke-width="0.5pt" stroke-dasharray="none" />
</g>
<g id="ID000005" >
  <g transform="translate(229.567,25.781)">
    <g transform="rotate(-0.0)">
      <text x="0.000" y="0.000" font-family="Helvetica" text-anchor="start" font-size="8pt" fill="#e5e5e5" >n = 5 mice</text>
    </g>
  </g>
</g>
<g id="ID000006" >
  <g transform="translate(229.567,41.763)">
    <g transform="rotate(-0.0)">
      <text x="0.000" y="0.000" font-family="Helvetica" text-anchor="start" font-size="8pt" fill="#e5e5e5" >n = 1720 trials</text>
    </g>
  </g>
</g>
<g id="ID000007" >
  <g transform="translate(229.567,57.745)">
    <g transform="rotate(-0.0)">
      <text x="0.000" y="0.000" font-family="Helvetica" text-anchor="start" font-size="8pt" fill="#e5e5e5" >Across 17 sessions</text>
    </g>
  </g>
</g>
<g id="ID000008" clip-path="url(#ID000001)" >
      <polygon fill="#b32800" fill-opacity="0.15" stroke="none" stroke-width="0.5pt" stroke-opacity="1.00" stroke-dasharray="none" points="44.854,173.958 49.391,180.143 53.927,179.560 58.464,170.669 63.001,175.552 67.538,172.317 72.075,166.386 76.611,165.346 81.148,164.417 85.685,164.531 90.222,164.933 94.759,172.045 99.295,172.061 103.832,183.287 108.369,173.320 112.906,172.810 117.443,173.489 121.980,175.263 126.516,170.247 131.053,173.493 135.590,173.753 140.127,174.974 144.664,174.436 149.200,174.427 153.737,181.071 158.274,178.966 162.811,171.492 167.348,156.130 171.884,160.735 176.421,152.212 180.958,153.240 185.495,156.320 190.032,153.488 194.568,146.359 199.105,153.524 203.642,145.626 208.179,143.951 212.716,144.537 217.252,151.170 221.789,153.267 226.326,145.198 230.863,156.445 235.400,160.958 239.937,151.686 244.473,148.790 249.010,155.456 253.547,149.934 258.084,144.819 262.621,157.324 267.157,156.344 271.694,159.546 276.231,152.919 280.768,162.545 285.305,152.172 289.841,160.744 294.378,151.810 298.915,156.430 303.452,156.190 307.989,154.979 312.525,159.294 317.062,156.719 321.599,158.002 326.136,165.705 330.673,171.479 335.209,172.842 339.746,174.733 344.283,171.023 348.820,170.307 353.357,171.160 357.894,168.818 362.430,169.756 366.967,173.270 371.504,174.691 376.041,176.644 380.578,169.699 385.114,172.812 389.651,173.702 394.188,175.228 398.725,170.395 403.262,174.514 407.798,178.555 412.335,178.692 416.872,181.523 421.409,187.319 425.946,175.852 430.482,182.477 435.019,177.982 439.556,174.053 444.093,178.719 448.630,177.468 453.166,184.392 457.703,181.637 462.240,184.901 466.777,187.643 471.314,188.649 475.851,189.330 480.387,184.822 484.924,185.521 489.461,191.305 493.998,188.432 498.535,181.980 503.071,188.089 507.608,182.297 507.608,155.970 503.071,163.049 498.535,153.348 493.998,166.458 489.461,168.960 484.924,159.724 480.387,168.627 475.851,168.347 471.314,169.468 466.777,168.262 462.240,164.212 457.703,164.140 453.166,163.197 448.630,162.454 444.093,163.079 439.556,161.406 435.019,158.462 430.482,162.416 425.946,166.249 421.409,165.759 416.872,165.259 412.335,165.661 407.798,167.303 403.262,167.320 398.725,161.896 394.188,167.431 389.651,161.305 385.114,156.913 380.578,153.719 376.041,160.976 371.504,162.788 366.967,160.184 362.430,158.304 357.894,157.426 353.357,161.417 348.820,164.095 344.283,164.318 339.746,158.766 335.209,160.045 330.673,161.397 326.136,155.917 321.599,146.952 317.062,150.300 312.525,149.937 307.989,149.763 303.452,152.344 298.915,148.999 294.378,142.094 289.841,148.767 285.305,142.393 280.768,144.698 276.231,137.409 271.694,138.070 267.157,136.265 262.621,140.552 258.084,134.332 253.547,136.241 249.010,140.586 244.473,135.541 239.937,136.603 235.400,140.520 230.863,136.993 226.326,132.760 221.789,136.120 217.252,135.513 212.716,125.832 208.179,128.800 203.642,128.013 199.105,134.427 194.568,133.141 190.032,131.977 185.495,133.912 180.958,134.495 176.421,140.478 171.884,150.343 167.348,145.547 162.811,162.567 158.274,165.780 153.737,166.460 149.200,160.002 144.664,163.529 140.127,165.012 135.590,165.319 131.053,164.827 126.516,163.156 121.980,161.961 117.443,159.490 112.906,159.366 108.369,160.808 103.832,166.405 99.295,160.709 94.759,156.649 90.222,153.184 85.685,153.305 81.148,155.789 76.611,157.890 72.075,157.917 67.538,160.376 63.001,160.981 58.464,156.642 53.927,168.428 49.391,171.991 44.854,165.005 "/>
</g>
<g id="ID000009" clip-path="url(#ID000001)" >
      <polyline fill="none" stroke="#b32800" stroke-width="2.0pt" stroke-dasharray="none" points="44.854,169.481 49.391,176.067 53.927,173.994 58.464,163.655 63.001,168.266 67.538,166.347 72.075,162.151 76.611,161.618 81.148,160.103 85.685,158.918 90.222,159.058 94.759,164.347 99.295,166.385 103.832,174.846 108.369,167.064 112.906,166.088 117.443,166.489 121.980,168.612 126.516,166.702 131.053,169.160 135.590,169.536 140.127,169.993 144.664,168.982 149.200,167.215 153.737,173.766 158.274,172.373 162.811,167.030 167.348,150.838 171.884,155.539 176.421,146.345 180.958,143.868 185.495,145.116 190.032,142.732 194.568,139.750 199.105,143.976 203.642,136.819 208.179,136.375 212.716,135.185 217.252,143.341 221.789,144.693 226.326,138.979 230.863,146.719 235.400,150.739 239.937,144.144 244.473,142.166 249.010,148.021 253.547,143.088 258.084,139.576 262.621,148.938 267.157,146.305 271.694,148.808 276.231,145.164 280.768,153.621 285.305,147.283 289.841,154.756 294.378,146.952 298.915,152.714 303.452,154.267 307.989,152.371 312.525,154.616 317.062,153.509 321.599,152.477 326.136,160.811 330.673,166.438 335.209,166.443 339.746,166.749 344.283,167.671 348.820,167.201 353.357,166.289 357.894,163.122 362.430,164.030 366.967,166.727 371.504,168.740 376.041,168.810 380.578,161.709 385.114,164.863 389.651,167.504 394.188,171.330 398.725,166.145 403.262,170.917 407.798,172.929 412.335,172.177 416.872,173.391 421.409,176.539 425.946,171.051 430.482,172.446 435.019,168.222 439.556,167.729 444.093,170.899 448.630,169.961 453.166,173.795 457.703,172.889 462.240,174.557 466.777,177.953 471.314,179.059 475.851,178.839 480.387,176.724 484.924,172.622 489.461,180.133 493.998,177.445 498.535,167.664 503.071,175.569 507.608,169.134 "/>
<g>
</g>
</g>
<g id="ID000010" clip-path="url(#ID000001)" >
<rect x="137.858" y="94.326" width="91.708" height="7.991" rx="0.000" ry="0.000" fill="#ffff00" stroke="#000000" stroke-width="0.5pt" stroke-dasharray="none" />
</g>
<g id="ID000011" >
  <g transform="translate(229.567,25.781)">
    <g transform="rotate(-0.0)">
      <text x="0.000" y="0.000" font-family="Helvetica" text-anchor="start" font-size="8pt" fill="#e5e5e5" >n = 5 mice</text>
    </g>
  </g>
</g>
<g id="ID000012" >
  <g transform="translate(229.567,41.763)">
    <g transform="rotate(-0.0)">
      <text x="0.000" y="0.000" font-family="Helvetica" text-anchor="start" font-size="8pt" fill="#e5e5e5" >n = 1720 trials</text>
    </g>
  </g>
</g>
<g id="ID000013" >
  <g transform="translate(229.567,57.745)">
    <g transform="rotate(-0.0)">
      <text x="0.000" y="0.000" font-family="Helvetica" text-anchor="start" font-size="8pt" fill="#e5e5e5" >Across 17 sessions</text>
    </g>
  </g>
</g>
<g id="ID000014" clip-path="url(#ID000001)" >
      <polygon fill="#000000" fill-opacity="0.15" stroke="none" stroke-width="0.5pt" stroke-opacity="1.00" stroke-dasharray="none" points="44.854,173.761 49.391,176.484 53.927,176.410 58.464,173.955 63.001,176.393 67.538,175.682 72.075,175.622 76.611,175.762 81.148,176.066 85.685,177.845 90.222,178.584 94.759,176.820 99.295,182.918 103.832,177.233 108.369,176.809 112.906,177.989 117.443,177.165 121.980,177.821 126.516,176.780 131.053,177.637 135.590,178.823 140.127,179.054 144.664,177.119 149.200,177.395 153.737,177.441 158.274,179.386 162.811,174.125 167.348,165.119 171.884,162.019 176.421,155.621 180.958,154.475 185.495,156.094 190.032,151.795 194.568,151.164 199.105,149.977 203.642,150.942 208.179,148.690 212.716,150.475 217.252,149.837 221.789,147.880 226.326,149.873 230.863,148.485 235.400,148.923 239.937,150.198 244.473,147.829 249.010,149.272 253.547,152.521 258.084,150.972 262.621,151.415 267.157,152.590 271.694,155.564 276.231,158.144 280.768,159.020 285.305,157.932 289.841,160.706 294.378,161.501 298.915,162.352 303.452,165.122 307.989,163.862 312.525,165.663 317.062,164.284 321.599,171.898 326.136,170.701 330.673,173.422 335.209,171.833 339.746,174.509 344.283,173.859 348.820,176.978 353.357,175.675 357.894,177.161 362.430,178.466 366.967,179.220 371.504,180.193 376.041,180.402 380.578,179.940 385.114,180.036 389.651,180.374 394.188,180.300 398.725,182.210 403.262,183.257 407.798,186.241 412.335,184.915 416.872,183.821 421.409,183.121 425.946,182.961 430.482,182.329 435.019,186.252 439.556,182.958 444.093,182.937 448.630,183.673 453.166,185.427 457.703,184.001 462.240,184.949 466.777,184.652 471.314,185.925 475.851,183.147 480.387,183.938 484.924,187.162 489.461,186.079 493.998,185.558 498.535,186.323 503.071,185.728 507.608,184.542 507.608,179.814 503.071,179.299 498.535,181.571 493.998,179.086 489.461,181.227 484.924,182.125 480.387,182.232 475.851,180.632 471.314,181.777 466.777,180.907 462.240,179.547 457.703,180.828 453.166,182.494 448.630,178.350 444.093,178.601 439.556,179.763 435.019,181.560 430.482,179.859 425.946,179.466 421.409,178.723 416.872,179.995 412.335,180.115 407.798,182.429 403.262,179.329 398.725,176.902 394.188,176.475 389.651,174.723 385.114,175.219 380.578,175.986 376.041,175.255 371.504,173.545 366.967,172.501 362.430,172.161 357.894,172.080 353.357,170.347 348.820,171.201 344.283,168.032 339.746,167.695 335.209,167.123 330.673,167.160 326.136,166.294 321.599,166.494 317.062,161.172 312.525,162.158 307.989,160.162 303.452,159.634 298.915,156.665 294.378,156.180 289.841,155.529 285.305,153.711 280.768,150.905 276.231,149.022 271.694,145.290 267.157,144.043 262.621,140.728 258.084,140.754 253.547,139.771 249.010,137.508 244.473,136.493 239.937,136.747 235.400,134.191 230.863,136.207 226.326,134.951 221.789,132.957 217.252,135.917 212.716,134.639 208.179,135.170 203.642,136.990 199.105,136.544 194.568,137.502 190.032,138.731 185.495,142.003 180.958,144.379 176.421,147.989 171.884,152.824 167.348,159.984 162.811,166.772 158.274,171.727 153.737,172.171 149.200,172.504 144.664,171.234 140.127,172.259 135.590,173.380 131.053,171.787 126.516,172.820 121.980,173.633 117.443,175.915 112.906,175.397 108.369,172.590 103.832,174.237 99.295,173.654 94.759,172.469 90.222,174.245 85.685,172.478 81.148,173.006 76.611,171.654 72.075,171.822 67.538,171.580 63.001,169.692 58.464,170.343 53.927,171.491 49.391,170.248 44.854,168.135 "/>
</g>
<g id="ID000015" clip-path="url(#ID000001)" >
      <polyline fill="none" stroke="#000000" stroke-width="2.0pt" stroke-dasharray="none" points="44.854,170.948 49.391,173.366 53.927,173.951 58.464,172.149 63.001,173.043 67.538,173.631 72.075,173.722 76.611,173.708 81.148,174.536 85.685,175.162 90.222,176.415 94.759,174.644 99.295,178.286 103.832,175.735 108.369,174.699 112.906,176.693 117.443,176.540 121.980,175.727 126.516,174.800 131.053,174.712 135.590,176.101 140.127,175.656 144.664,174.177 149.200,174.950 153.737,174.806 158.274,175.556 162.811,170.448 167.348,162.551 171.884,157.421 176.421,151.805 180.958,149.427 185.495,149.049 190.032,145.263 194.568,144.333 199.105,143.260 203.642,143.966 208.179,141.930 212.716,142.557 217.252,142.877 221.789,140.419 226.326,142.412 230.863,142.346 235.400,141.557 239.937,143.473 244.473,142.161 249.010,143.390 253.547,146.146 258.084,145.863 262.621,146.072 267.157,148.317 271.694,150.427 276.231,153.583 280.768,154.962 285.305,155.821 289.841,158.118 294.378,158.841 298.915,159.509 303.452,162.378 307.989,162.012 312.525,163.911 317.062,162.728 321.599,169.196 326.136,168.498 330.673,170.291 335.209,169.478 339.746,171.102 344.283,170.946 348.820,174.090 353.357,173.011 357.894,174.620 362.430,175.314 366.967,175.860 371.504,176.869 376.041,177.829 380.578,177.963 385.114,177.628 389.651,177.549 394.188,178.387 398.725,179.556 403.262,181.293 407.798,184.335 412.335,182.515 416.872,181.908 421.409,180.922 425.946,181.214 430.482,181.094 435.019,183.906 439.556,181.360 444.093,180.769 448.630,181.012 453.166,183.961 457.703,182.415 462.240,182.248 466.777,182.780 471.314,183.851 475.851,181.889 480.387,183.085 484.924,184.644 489.461,183.653 493.998,182.322 498.535,183.947 503.071,182.513 507.608,182.178 "/>
<g>
</g>
</g>
<g id="ID000016" clip-path="url(#ID000001)" >
<rect x="137.858" y="94.326" width="91.708" height="7.991" rx="0.000" ry="0.000" fill="#ffff00" stroke="#000000" stroke-width="0.5pt" stroke-dasharray="none" />
</g>
<g id="ID000017" >
  <g transform="translate(229.567,25.781)">
    <g transform="rotate(-0.0)">
      <text x="0.000" y="0.000" font-family="Helvetica" text-anchor="start" font-size="8pt" fill="#e5e5e5" >n = 5 mice</text>
    </g>
  </g>
</g>
<g id="ID000018" >
  <g transform="translate(229.567,41.763)">
    <g transform="rotate(-0.0)">
      <text x="0.000" y="0.000" font-family="Helvetica" text-anchor="start" font-size="8pt" fill="#e5e5e5" >n = 1720 trials</text>
    </g>
  </g>
</g>
<g id="ID000019" >
  <g transform="translate(229.567,57.745)">
    <g transform="rotate(-0.0)">
      <text x="0.000" y="0.000" font-family="Helvetica" text-anchor="start" font-size="8pt" fill="#e5e5e5" >Across 17 sessions</text>
    </g>
  </g>
</g>
<g id="ID000020" clip-path="url(#ID000001)" >
<g>
</g>
</g>
<g id="ID000021" clip-path="url(#ID000001)" >
<rect x="137.858" y="94.326" width="91.708" height="7.991" rx="0.000" ry="0.000" fill="#ffff00" stroke="#000000" stroke-width="0.5pt" stroke-dasharray="none" />
</g>
<g id="ID000022" >
  <g transform="translate(229.567,25.781)">
    <g transform="rotate(-0.0)">
      <text x="0.000" y="0.000" font-family="Helvetica" text-anchor="start" font-size="8pt" fill="#e5e5e5" >n = 5 mice</text>
    </g>
  </g>
</g>
<g id="ID000023" >
  <g transform="translate(229.567,41.763)">
    <g transform="rotate(-0.0)">
      <text x="0.000" y="0.000" font-family="Helvetica" text-anchor="start" font-size="8pt" fill="#e5e5e5" >n = 1720 trials</text>
    </g>
  </g>
</g>
<g id="ID000024" >
  <g transform="translate(229.567,57.745)">
    <g transform="rotate(-0.0)">
      <text x="0.000" y="0.000" font-family="Helvetica" text-anchor="start" font-size="8pt" fill="#e5e5e5" >Across 17 sessions</text>
    </g>
  </g>
</g>
    </g>
    <g>
      <polyline fill="none" stroke="#262626" stroke-width="3.0pt" stroke-dasharray="none" points="46.150,262.137 46.150,267.640 "/>
      <polyline fill="none" stroke="#262626" stroke-width="3.0pt" stroke-dasharray="none" points="137.858,262.137 137.858,267.640 "/>
      <polyline fill="none" stroke="#262626" stroke-width="3.0pt" stroke-dasharray="none" points="229.567,262.137 229.567,267.640 "/>
      <polyline fill="none" stroke="#262626" stroke-width="3.0pt" stroke-dasharray="none" points="321.275,262.137 321.275,267.640 "/>
      <polyline fill="none" stroke="#262626" stroke-width="3.0pt" stroke-dasharray="none" points="46.150,262.137 321.275,262.137 "/>
  <g transform="translate(46.150,298.277)">
    <g transform="rotate(-0.0)">
      <text x="0.000" y="0.000" font-family="Helvetica" text-anchor="middle" font-size="22pt" fill="#262626" >-1</text>
    </g>
  </g>
  <g transform="translate(137.858,298.277)">
    <g transform="rotate(-0.0)">
      <text x="0.000" y="0.000" font-family="Helvetica" text-anchor="middle" font-size="22pt" fill="#262626" >0</text>
    </g>
  </g>
  <g transform="translate(229.567,298.277)">
    <g transform="rotate(-0.0)">
      <text x="0.000" y="0.000" font-family="Helvetica" text-anchor="middle" font-size="22pt" fill="#262626" >1</text>
    </g>
  </g>
  <g transform="translate(321.275,298.277)">
    <g transform="rotate(-0.0)">
      <text x="0.000" y="0.000" font-family="Helvetica" text-anchor="middle" font-size="22pt" fill="#262626" >2</text>
    </g>
  </g>
      <polyline fill="none" stroke="#262626" stroke-width="3.0pt" stroke-dasharray="none" points="46.150,262.137 40.648,262.137 "/>
      <polyline fill="none" stroke="#262626" stroke-width="3.0pt" stroke-dasharray="none" points="46.150,182.227 40.648,182.227 "/>
      <polyline fill="none" stroke="#262626" stroke-width="3.0pt" stroke-dasharray="none" points="46.150,102.317 40.648,102.317 "/>
      <polyline fill="none" stroke="#262626" stroke-width="3.0pt" stroke-dasharray="none" points="46.150,22.406 40.648,22.406 "/>
      <polyline fill="none" stroke="#262626" stroke-width="3.0pt" stroke-dasharray="none" points="46.150,262.137 46.150,22.406 "/>
  <g transform="translate(35.145,272.262)">
    <g transform="rotate(-0.0)">
      <text x="0.000" y="0.000" font-family="Helvetica" text-anchor="end" font-size="22pt" fill="#262626" >-1</text>
    </g>
  </g>
  <g transform="translate(35.145,192.352)">
    <g transform="rotate(-0.0)">
      <text x="0.000" y="0.000" font-family="Helvetica" text-anchor="end" font-size="22pt" fill="#262626" >0</text>
    </g>
  </g>
  <g transform="translate(35.145,112.442)">
    <g transform="rotate(-0.0)">
      <text x="0.000" y="0.000" font-family="Helvetica" text-anchor="end" font-size="22pt" fill="#262626" >1</text>
    </g>
  </g>
  <g transform="translate(35.145,32.531)">
    <g transform="rotate(-0.0)">
      <text x="0.000" y="0.000" font-family="Helvetica" text-anchor="end" font-size="22pt" fill="#262626" >2</text>
    </g>
  </g>
      <polyline fill="none" stroke="#262626" stroke-width="3.0pt" stroke-dasharray="none" points="46.150,262.137 46.150,266.932 "/>
      <polyline fill="none" stroke="#262626" stroke-width="3.0pt" stroke-dasharray="none" points="46.150,262.137 46.150,266.932 "/>
      <polyline fill="none" stroke="#262626" stroke-width="3.0pt" stroke-dasharray="none" points="46.150,262.137 46.150,266.932 "/>
      <polyline fill="none" stroke="#262626" stroke-width="3.0pt" stroke-dasharray="none" points="46.150,262.137 46.150,262.137 "/>
    </g>
  </g>
  </g>
</svg>
