<?xml version="1.0" encoding="utf-8" standalone="no"?><!DOCTYPE svg PUBLIC "-//W3C//DTD SVG 1.1//EN" "http://www.w3.org/Graphics/SVG/1.1/DTD/svg11.dtd">
<svg preserveAspectRatio="xMinYMin meet" width="100%" height="100%" viewBox="0 0 355.000 298.750"  version="1.1" xmlns="http://www.w3.org/2000/svg" xmlns:xlink="http://www.w3.org/1999/xlink">
  <desc>Matlab Figure Converted by PLOT2SVG written by Juerg Schwizer</desc>
  <g id="topgroup">
  <rect x="0" y="0" width="355.000" height="298.750" fill="#ffffff" stroke="none" />
  <g id ="ID000000">
  <clipPath id="ID000001">
    <rect x="46.150" y="22.406" width="275.125" height="239.731"/>
  </clipPath>
      <polygon fill="#ffffff" fill-opacity="1.00" stroke="none" stroke-width="3.0pt" stroke-opacity="1.00" stroke-dasharray="none" points="46.150,262.137 321.275,262.137 321.275,22.406 46.150,22.406 "/>
      <polygon fill="#ffffff" fill-opacity="1.00" stroke="none" stroke-width="3.0pt" stroke-opacity="1.00" stroke-dasharray="none" points="46.150,262.137 321.275,262.137 321.275,262.137 46.150,262.137 "/>
      <polygon fill="#ffffff" fill-opacity="1.00" stroke="none" stroke-width="3.0pt" stroke-opacity="1.00" stroke-dasharray="none" points="46.150,262.137 46.150,262.137 46.150,22.406 46.150,22.406 "/>
    <g>
<g id="ID000002" clip-path="url(#ID000001)" >
      <polygon fill="#69bd45" fill-opacity="0.15" stroke="none" stroke-width="0.5pt" stroke-opacity="1.00" stroke-dasharray="none" points="44.854,163.507 49.391,164.756 53.927,162.125 58.464,163.449 63.001,158.800 67.538,159.824 72.075,162.501 76.611,161.924 81.148,159.558 85.685,157.834 90.222,159.167 94.759,161.401 99.295,162.153 103.832,160.702 108.369,159.151 112.906,157.679 117.443,155.455 121.980,155.395 126.516,153.683 131.053,153.623 135.590,155.510 140.127,153.591 144.664,148.998 149.200,153.179 153.737,152.302 158.274,152.590 162.811,162.045 167.348,162.499 171.884,161.210 176.421,165.273 180.958,159.040 185.495,153.864 190.032,147.503 194.568,139.398 199.105,130.689 203.642,120.894 208.179,112.309 212.716,100.247 217.252,93.768 221.789,90.961 226.326,86.735 230.863,82.147 235.400,79.727 239.937,78.825 244.473,78.215 249.010,76.354 253.547,81.259 258.084,82.450 262.621,82.670 267.157,88.097 271.694,89.775 276.231,93.306 280.768,94.651 285.305,95.665 289.841,98.301 294.378,102.697 298.915,107.248 303.452,110.215 307.989,114.719 312.525,118.979 317.062,123.124 321.599,124.715 326.136,129.267 330.673,130.196 335.209,135.338 339.746,139.391 344.283,143.415 348.820,144.301 353.357,148.949 357.894,152.163 362.430,155.828 366.967,159.382 371.504,160.965 376.041,162.850 380.578,167.149 385.114,169.332 389.651,174.419 394.188,173.401 398.725,176.945 403.262,177.830 407.798,179.742 412.335,181.694 416.872,185.188 421.409,188.115 425.946,187.998 430.482,190.858 435.019,196.433 439.556,194.461 444.093,195.719 448.630,197.049 453.166,199.262 457.703,200.746 462.240,202.915 466.777,203.119 471.314,203.294 475.851,205.104 480.387,207.837 484.924,208.164 489.461,209.460 493.998,208.824 498.535,210.515 503.071,213.549 507.608,213.543 507.608,204.031 503.071,200.328 498.535,200.324 493.998,200.245 489.461,198.999 484.924,197.267 480.387,196.799 475.851,193.847 471.314,191.198 466.777,189.040 462.240,189.709 457.703,187.836 453.166,187.097 448.630,183.884 444.093,183.570 439.556,181.070 435.019,182.462 430.482,178.569 425.946,177.168 421.409,176.374 416.872,174.639 412.335,170.656 407.798,168.754 403.262,167.092 398.725,164.692 394.188,162.799 389.651,163.002 385.114,157.884 380.578,159.150 376.041,153.894 371.504,152.398 366.967,149.697 362.430,147.009 357.894,144.602 353.357,140.230 348.820,136.310 344.283,133.779 339.746,128.996 335.209,125.843 330.673,118.797 326.136,116.869 321.599,111.349 317.062,107.980 312.525,103.259 307.989,97.614 303.452,91.976 298.915,86.506 294.378,82.056 289.841,78.682 285.305,74.085 280.768,69.435 276.231,66.595 271.694,62.499 267.157,58.493 262.621,54.076 258.084,50.733 253.547,50.692 249.010,46.515 244.473,46.332 239.937,46.140 235.400,45.120 230.863,46.353 226.326,49.233 221.789,49.718 217.252,54.675 212.716,59.503 208.179,71.365 203.642,80.929 199.105,96.037 194.568,109.323 190.032,124.011 185.495,132.207 180.958,139.279 176.421,140.242 171.884,138.509 167.348,136.430 162.811,133.634 158.274,129.066 153.737,123.698 149.200,125.916 144.664,126.668 140.127,131.657 135.590,134.472 131.053,134.538 126.516,134.180 121.980,138.460 117.443,139.326 112.906,141.312 108.369,142.481 103.832,143.184 99.295,144.207 94.759,146.664 90.222,147.165 85.685,145.576 81.148,146.577 76.611,149.653 72.075,150.496 67.538,148.180 63.001,150.641 58.464,149.899 53.927,151.649 49.391,150.969 44.854,150.987 "/>
</g>
<g id="ID000003" clip-path="url(#ID000001)" >
      <polyline fill="none" stroke="#69bd45" stroke-width="2.0pt" stroke-dasharray="none" points="44.854,157.247 49.391,157.862 53.927,156.887 58.464,156.674 63.001,154.720 67.538,154.002 72.075,156.499 76.611,155.788 81.148,153.067 85.685,151.705 90.222,153.166 94.759,154.033 99.295,153.180 103.832,151.943 108.369,150.816 112.906,149.496 117.443,147.391 121.980,146.928 126.516,143.932 131.053,144.080 135.590,144.991 140.127,142.624 144.664,137.833 149.200,139.547 153.737,138.000 158.274,140.828 162.811,147.839 167.348,149.465 171.884,149.859 176.421,152.757 180.958,149.160 185.495,143.036 190.032,135.757 194.568,124.361 199.105,113.363 203.642,100.912 208.179,91.837 212.716,79.875 217.252,74.222 221.789,70.340 226.326,67.984 230.863,64.250 235.400,62.423 239.937,62.482 244.473,62.274 249.010,61.434 253.547,65.976 258.084,66.591 262.621,68.373 267.157,73.295 271.694,76.137 276.231,79.951 280.768,82.043 285.305,84.875 289.841,88.491 294.378,92.377 298.915,96.877 303.452,101.095 307.989,106.166 312.525,111.119 317.062,115.552 321.599,118.032 326.136,123.068 330.673,124.496 335.209,130.590 339.746,134.193 344.283,138.597 348.820,140.306 353.357,144.590 357.894,148.382 362.430,151.419 366.967,154.540 371.504,156.682 376.041,158.372 380.578,163.149 385.114,163.608 389.651,168.711 394.188,168.100 398.725,170.819 403.262,172.461 407.798,174.248 412.335,176.175 416.872,179.913 421.409,182.244 425.946,182.583 430.482,184.714 435.019,189.447 439.556,187.765 444.093,189.644 448.630,190.467 453.166,193.179 457.703,194.291 462.240,196.312 466.777,196.079 471.314,197.246 475.851,199.475 480.387,202.318 484.924,202.716 489.461,204.230 493.998,204.535 498.535,205.419 503.071,206.939 507.608,208.787 "/>
<g>
</g>
</g>
<g id="ID000004" clip-path="url(#ID000001)" >
      <polyline fill="none" stroke="#000000" stroke-width="1.5pt" stroke-dasharray="8.0,2.0" points="137.858,581.779 137.858,-1415.981 "/>
<g>
</g>
</g>
<g id="ID000005" >
  <g transform="translate(229.567,25.781)">
    <g transform="rotate(-0.0)">
      <text x="0.000" y="0.000" font-family="Helvetica" text-anchor="start" font-size="8pt" fill="#e5e5e5" >n = 5 mice</text>
    </g>
  </g>
</g>
<g id="ID000006" >
  <g transform="translate(229.567,41.763)">
    <g transform="rotate(-0.0)">
      <text x="0.000" y="0.000" font-family="Helvetica" text-anchor="start" font-size="8pt" fill="#e5e5e5" >n = 1720 trials</text>
    </g>
  </g>
</g>
<g id="ID000007" >
  <g transform="translate(229.567,57.745)">
    <g transform="rotate(-0.0)">
      <text x="0.000" y="0.000" font-family="Helvetica" text-anchor="start" font-size="8pt" fill="#e5e5e5" >Across 17 sessions</text>
    </g>
  </g>
</g>
<g id="ID000008" clip-path="url(#ID000001)" >
      <polygon fill="#b32800" fill-opacity="0.15" stroke="none" stroke-width="0.5pt" stroke-opacity="1.00" stroke-dasharray="none" points="44.854,154.766 49.391,166.575 53.927,160.516 58.464,163.599 63.001,167.341 67.538,167.402 72.075,164.550 76.611,163.953 81.148,163.228 85.685,164.954 90.222,170.932 94.759,173.710 99.295,168.067 103.832,179.038 108.369,178.899 112.906,182.172 117.443,178.234 121.980,182.069 126.516,176.229 131.053,175.803 135.590,179.396 140.127,179.588 144.664,176.766 149.200,176.448 153.737,178.708 158.274,183.972 162.811,185.727 167.348,190.105 171.884,198.290 176.421,198.263 180.958,196.771 185.495,197.198 190.032,193.395 194.568,190.927 199.105,185.901 203.642,192.652 208.179,192.476 212.716,190.673 217.252,190.396 221.789,188.220 226.326,185.191 230.863,184.798 235.400,184.306 239.937,174.459 244.473,184.257 249.010,179.988 253.547,189.129 258.084,176.858 262.621,179.664 267.157,181.323 271.694,175.320 276.231,171.400 280.768,181.920 285.305,172.379 289.841,172.204 294.378,166.168 298.915,170.950 303.452,180.028 307.989,171.469 312.525,173.962 317.062,177.180 321.599,179.199 326.136,172.411 330.673,178.374 335.209,175.535 339.746,169.558 344.283,176.010 348.820,173.203 353.357,177.822 357.894,183.937 362.430,174.626 366.967,176.306 371.504,188.859 376.041,182.888 380.578,185.677 385.114,180.996 389.651,190.081 394.188,193.231 398.725,190.003 403.262,193.448 407.798,197.177 412.335,182.945 416.872,199.462 421.409,187.821 425.946,186.524 430.482,185.779 435.019,194.329 439.556,191.362 444.093,189.075 448.630,190.971 453.166,192.896 457.703,193.291 462.240,195.823 466.777,194.058 471.314,192.552 475.851,192.526 480.387,183.180 484.924,192.350 489.461,197.483 493.998,187.224 498.535,193.966 503.071,193.417 507.608,197.542 507.608,171.659 503.071,171.802 498.535,176.963 493.998,168.028 489.461,177.052 484.924,174.963 480.387,168.616 475.851,171.205 471.314,172.702 466.777,171.042 462.240,172.788 457.703,171.042 453.166,170.798 448.630,170.137 444.093,168.622 439.556,172.763 435.019,172.197 430.482,162.302 425.946,161.818 421.409,160.197 416.872,163.078 412.335,156.869 407.798,161.036 403.262,155.875 398.725,155.502 394.188,155.042 389.651,153.684 385.114,149.432 380.578,153.627 376.041,153.086 371.504,151.652 366.967,145.897 362.430,147.891 357.894,152.062 353.357,150.834 348.820,149.662 344.283,155.160 339.746,153.468 335.209,156.053 330.673,154.352 326.136,152.821 321.599,158.062 317.062,154.972 312.525,159.430 307.989,153.369 303.452,156.288 298.915,154.816 294.378,152.898 289.841,151.179 285.305,159.183 280.768,164.463 276.231,159.728 271.694,160.415 267.157,166.306 262.621,172.371 258.084,171.273 253.547,172.409 249.010,173.467 244.473,174.453 239.937,164.720 235.400,178.082 230.863,173.595 226.326,172.914 221.789,170.448 217.252,177.821 212.716,173.581 208.179,176.997 203.642,180.058 199.105,167.660 194.568,175.352 190.032,180.370 185.495,188.569 180.958,180.650 176.421,190.331 171.884,187.596 167.348,177.664 162.811,172.564 158.274,167.239 153.737,156.536 149.200,162.575 144.664,163.949 140.127,165.668 135.590,160.700 131.053,152.761 126.516,158.725 121.980,162.261 117.443,162.071 112.906,169.126 108.369,161.727 103.832,169.911 99.295,156.824 94.759,159.026 90.222,162.003 85.685,153.294 81.148,147.325 76.611,146.544 72.075,147.352 67.538,151.233 63.001,149.549 58.464,149.449 53.927,143.264 49.391,152.475 44.854,142.161 "/>
</g>
<g id="ID000009" clip-path="url(#ID000001)" >
      <polyline fill="none" stroke="#b32800" stroke-width="2.0pt" stroke-dasharray="none" points="44.854,148.463 49.391,159.525 53.927,151.890 58.464,156.524 63.001,158.445 67.538,159.317 72.075,155.951 76.611,155.249 81.148,155.276 85.685,159.124 90.222,166.468 94.759,166.368 99.295,162.446 103.832,174.475 108.369,170.313 112.906,175.649 117.443,170.153 121.980,172.165 126.516,167.477 131.053,164.282 135.590,170.048 140.127,172.628 144.664,170.357 149.200,169.511 153.737,167.622 158.274,175.606 162.811,179.146 167.348,183.885 171.884,192.943 176.421,194.297 180.958,188.711 185.495,192.883 190.032,186.883 194.568,183.140 199.105,176.781 203.642,186.355 208.179,184.737 212.716,182.127 217.252,184.108 221.789,179.334 226.326,179.053 230.863,179.196 235.400,181.194 239.937,169.590 244.473,179.355 249.010,176.728 253.547,180.769 258.084,174.065 262.621,176.017 267.157,173.814 271.694,167.867 276.231,165.564 280.768,173.192 285.305,165.781 289.841,161.692 294.378,159.533 298.915,162.883 303.452,168.158 307.989,162.419 312.525,166.696 317.062,166.076 321.599,168.631 326.136,162.616 330.673,166.363 335.209,165.794 339.746,161.513 344.283,165.585 348.820,161.432 353.357,164.328 357.894,167.999 362.430,161.259 366.967,161.102 371.504,170.255 376.041,167.987 380.578,169.652 385.114,165.214 389.651,171.882 394.188,174.137 398.725,172.753 403.262,174.662 407.798,179.106 412.335,169.907 416.872,181.270 421.409,174.009 425.946,174.171 430.482,174.040 435.019,183.263 439.556,182.063 444.093,178.848 448.630,180.554 453.166,181.847 457.703,182.167 462.240,184.305 466.777,182.550 471.314,182.627 475.851,181.865 480.387,175.898 484.924,183.656 489.461,187.267 493.998,177.626 498.535,185.464 503.071,182.610 507.608,184.601 "/>
<g>
</g>
</g>
<g id="ID000010" clip-path="url(#ID000001)" >
      <polyline fill="none" stroke="#000000" stroke-width="1.5pt" stroke-dasharray="8.0,2.0" points="137.858,581.779 137.858,-1415.981 "/>
<g>
</g>
</g>
<g id="ID000011" >
  <g transform="translate(229.567,25.781)">
    <g transform="rotate(-0.0)">
      <text x="0.000" y="0.000" font-family="Helvetica" text-anchor="start" font-size="8pt" fill="#e5e5e5" >n = 5 mice</text>
    </g>
  </g>
</g>
<g id="ID000012" >
  <g transform="translate(229.567,41.763)">
    <g transform="rotate(-0.0)">
      <text x="0.000" y="0.000" font-family="Helvetica" text-anchor="start" font-size="8pt" fill="#e5e5e5" >n = 1720 trials</text>
    </g>
  </g>
</g>
<g id="ID000013" >
  <g transform="translate(229.567,57.745)">
    <g transform="rotate(-0.0)">
      <text x="0.000" y="0.000" font-family="Helvetica" text-anchor="start" font-size="8pt" fill="#e5e5e5" >Across 17 sessions</text>
    </g>
  </g>
</g>
<g id="ID000014" clip-path="url(#ID000001)" >
<g>
</g>
</g>
<g id="ID000015" clip-path="url(#ID000001)" >
      <polyline fill="none" stroke="#000000" stroke-width="1.5pt" stroke-dasharray="8.0,2.0" points="137.858,581.779 137.858,-1415.981 "/>
<g>
</g>
</g>
<g id="ID000016" >
  <g transform="translate(229.567,25.781)">
    <g transform="rotate(-0.0)">
      <text x="0.000" y="0.000" font-family="Helvetica" text-anchor="start" font-size="8pt" fill="#e5e5e5" >n = 5 mice</text>
    </g>
  </g>
</g>
<g id="ID000017" >
  <g transform="translate(229.567,41.763)">
    <g transform="rotate(-0.0)">
      <text x="0.000" y="0.000" font-family="Helvetica" text-anchor="start" font-size="8pt" fill="#e5e5e5" >n = 1720 trials</text>
    </g>
  </g>
</g>
<g id="ID000018" >
  <g transform="translate(229.567,57.745)">
    <g transform="rotate(-0.0)">
      <text x="0.000" y="0.000" font-family="Helvetica" text-anchor="start" font-size="8pt" fill="#e5e5e5" >Across 17 sessions</text>
    </g>
  </g>
</g>
<g id="ID000019" clip-path="url(#ID000001)" >
      <polygon fill="#15e1ff" fill-opacity="0.15" stroke="none" stroke-width="0.5pt" stroke-opacity="1.00" stroke-dasharray="none" points="44.854,153.691 49.391,156.186 53.927,159.787 58.464,166.359 63.001,169.246 67.538,165.856 72.075,171.377 76.611,171.373 81.148,169.568 85.685,170.293 90.222,176.879 94.759,169.765 99.295,169.030 103.832,178.741 108.369,176.834 112.906,175.177 117.443,176.763 121.980,174.800 126.516,190.455 131.053,182.518 135.590,184.514 140.127,178.769 144.664,177.649 149.200,180.359 153.737,184.984 158.274,183.438 162.811,196.361 167.348,187.188 171.884,195.010 176.421,199.280 180.958,197.058 185.495,199.201 190.032,194.510 194.568,193.251 199.105,188.867 203.642,186.025 208.179,178.438 212.716,178.374 217.252,178.105 221.789,176.517 226.326,170.280 230.863,168.779 235.400,171.570 239.937,175.680 244.473,172.472 249.010,177.119 253.547,167.964 258.084,169.299 262.621,166.306 267.157,168.684 271.694,166.606 276.231,161.526 280.768,168.866 285.305,169.917 289.841,163.919 294.378,171.041 298.915,171.622 303.452,172.128 307.989,169.235 312.525,169.125 317.062,165.882 321.599,168.336 326.136,167.694 330.673,164.379 335.209,168.581 339.746,175.871 344.283,172.796 348.820,169.056 353.357,168.524 357.894,171.310 362.430,171.819 366.967,173.429 371.504,172.273 376.041,173.341 380.578,172.429 385.114,169.421 389.651,175.434 394.188,167.615 398.725,173.849 403.262,175.558 407.798,172.614 412.335,176.389 416.872,178.942 421.409,175.549 425.946,177.950 430.482,175.366 435.019,179.667 439.556,175.144 444.093,182.538 448.630,187.302 453.166,186.481 457.703,184.289 462.240,186.125 466.777,183.882 471.314,188.441 475.851,187.409 480.387,188.961 484.924,189.993 489.461,189.942 493.998,188.577 498.535,186.701 503.071,188.495 507.608,187.224 507.608,178.045 503.071,183.036 498.535,183.738 493.998,184.224 489.461,181.483 484.924,184.013 480.387,180.121 475.851,178.114 471.314,175.993 466.777,171.587 462.240,172.745 457.703,176.907 453.166,174.809 448.630,174.282 444.093,172.962 439.556,167.623 435.019,175.874 430.482,166.977 425.946,170.478 421.409,170.074 416.872,165.790 412.335,164.324 407.798,161.038 403.262,157.954 398.725,161.588 394.188,153.179 389.651,166.049 385.114,155.921 380.578,161.821 376.041,165.653 371.504,161.635 366.967,162.249 362.430,160.632 357.894,156.939 353.357,159.551 348.820,158.272 344.283,163.337 339.746,158.795 335.209,155.327 330.673,151.567 326.136,155.344 321.599,154.473 317.062,148.916 312.525,153.170 307.989,156.422 303.452,158.351 298.915,159.403 294.378,157.228 289.841,150.793 285.305,152.109 280.768,149.747 276.231,145.469 271.694,146.667 267.157,151.167 262.621,151.706 258.084,145.560 253.547,146.729 249.010,152.348 244.473,148.646 239.937,153.996 235.400,154.666 230.863,149.796 226.326,156.033 221.789,155.022 217.252,157.553 212.716,160.349 208.179,162.410 203.642,165.037 199.105,173.293 194.568,179.208 190.032,178.027 185.495,184.821 180.958,176.786 176.421,180.571 171.884,174.591 167.348,170.734 162.811,174.218 158.274,164.398 153.737,161.805 149.200,154.148 144.664,155.502 140.127,159.063 135.590,162.406 131.053,164.215 126.516,164.973 121.980,156.251 117.443,154.899 112.906,149.260 108.369,155.235 103.832,157.748 99.295,146.392 94.759,148.680 90.222,154.013 85.685,151.593 81.148,151.907 76.611,143.930 72.075,148.666 67.538,147.292 63.001,146.549 58.464,142.281 53.927,135.182 49.391,129.660 44.854,131.136 "/>
</g>
<g id="ID000020" clip-path="url(#ID000001)" >
      <polyline fill="none" stroke="#15e1ff" stroke-width="2.0pt" stroke-dasharray="none" points="44.854,142.413 49.391,142.923 53.927,147.484 58.464,154.320 63.001,157.897 67.538,156.574 72.075,160.022 76.611,157.652 81.148,160.738 85.685,160.943 90.222,165.446 94.759,159.222 99.295,157.711 103.832,168.245 108.369,166.035 112.906,162.218 117.443,165.831 121.980,165.525 126.516,177.714 131.053,173.366 135.590,173.460 140.127,168.916 144.664,166.576 149.200,167.253 153.737,173.394 158.274,173.918 162.811,185.289 167.348,178.961 171.884,184.800 176.421,189.926 180.958,186.922 185.495,192.011 190.032,186.269 194.568,186.230 199.105,181.080 203.642,175.531 208.179,170.424 212.716,169.362 217.252,167.829 221.789,165.770 226.326,163.157 230.863,159.288 235.400,163.118 239.937,164.838 244.473,160.559 249.010,164.733 253.547,157.346 258.084,157.430 262.621,159.006 267.157,159.925 271.694,156.636 276.231,153.497 280.768,159.307 285.305,161.013 289.841,157.356 294.378,164.135 298.915,165.513 303.452,165.239 307.989,162.828 312.525,161.147 317.062,157.399 321.599,161.405 326.136,161.519 330.673,157.973 335.209,161.954 339.746,167.333 344.283,168.066 348.820,163.664 353.357,164.038 357.894,164.125 362.430,166.225 366.967,167.839 371.504,166.954 376.041,169.497 380.578,167.125 385.114,162.671 389.651,170.741 394.188,160.397 398.725,167.719 403.262,166.756 407.798,166.826 412.335,170.357 416.872,172.366 421.409,172.811 425.946,174.214 430.482,171.171 435.019,177.770 439.556,171.383 444.093,177.750 448.630,180.792 453.166,180.645 457.703,180.598 462.240,179.435 466.777,177.734 471.314,182.217 475.851,182.761 480.387,184.541 484.924,187.003 489.461,185.712 493.998,186.400 498.535,185.219 503.071,185.765 507.608,182.634 "/>
<g>
</g>
</g>
<g id="ID000021" clip-path="url(#ID000001)" >
      <polyline fill="none" stroke="#000000" stroke-width="1.5pt" stroke-dasharray="8.0,2.0" points="137.858,581.779 137.858,-1415.981 "/>
<g>
</g>
</g>
<g id="ID000022" >
  <g transform="translate(229.567,25.781)">
    <g transform="rotate(-0.0)">
      <text x="0.000" y="0.000" font-family="Helvetica" text-anchor="start" font-size="8pt" fill="#e5e5e5" >n = 5 mice</text>
    </g>
  </g>
</g>
<g id="ID000023" >
  <g transform="translate(229.567,41.763)">
    <g transform="rotate(-0.0)">
      <text x="0.000" y="0.000" font-family="Helvetica" text-anchor="start" font-size="8pt" fill="#e5e5e5" >n = 1720 trials</text>
    </g>
  </g>
</g>
<g id="ID000024" >
  <g transform="translate(229.567,57.745)">
    <g transform="rotate(-0.0)">
      <text x="0.000" y="0.000" font-family="Helvetica" text-anchor="start" font-size="8pt" fill="#e5e5e5" >Across 17 sessions</text>
    </g>
  </g>
</g>
    </g>
    <g>
      <polyline fill="none" stroke="#262626" stroke-width="3.0pt" stroke-dasharray="none" points="46.150,262.137 46.150,267.640 "/>
      <polyline fill="none" stroke="#262626" stroke-width="3.0pt" stroke-dasharray="none" points="137.858,262.137 137.858,267.640 "/>
      <polyline fill="none" stroke="#262626" stroke-width="3.0pt" stroke-dasharray="none" points="229.567,262.137 229.567,267.640 "/>
      <polyline fill="none" stroke="#262626" stroke-width="3.0pt" stroke-dasharray="none" points="321.275,262.137 321.275,267.640 "/>
      <polyline fill="none" stroke="#262626" stroke-width="3.0pt" stroke-dasharray="none" points="46.150,262.137 321.275,262.137 "/>
  <g transform="translate(46.150,298.277)">
    <g transform="rotate(-0.0)">
      <text x="0.000" y="0.000" font-family="Helvetica" text-anchor="middle" font-size="22pt" fill="#262626" >-1</text>
    </g>
  </g>
  <g transform="translate(137.858,298.277)">
    <g transform="rotate(-0.0)">
      <text x="0.000" y="0.000" font-family="Helvetica" text-anchor="middle" font-size="22pt" fill="#262626" >0</text>
    </g>
  </g>
  <g transform="translate(229.567,298.277)">
    <g transform="rotate(-0.0)">
      <text x="0.000" y="0.000" font-family="Helvetica" text-anchor="middle" font-size="22pt" fill="#262626" >1</text>
    </g>
  </g>
  <g transform="translate(321.275,298.277)">
    <g transform="rotate(-0.0)">
      <text x="0.000" y="0.000" font-family="Helvetica" text-anchor="middle" font-size="22pt" fill="#262626" >2</text>
    </g>
  </g>
      <polyline fill="none" stroke="#262626" stroke-width="3.0pt" stroke-dasharray="none" points="46.150,262.137 40.648,262.137 "/>
      <polyline fill="none" stroke="#262626" stroke-width="3.0pt" stroke-dasharray="none" points="46.150,182.227 40.648,182.227 "/>
      <polyline fill="none" stroke="#262626" stroke-width="3.0pt" stroke-dasharray="none" points="46.150,102.317 40.648,102.317 "/>
      <polyline fill="none" stroke="#262626" stroke-width="3.0pt" stroke-dasharray="none" points="46.150,22.406 40.648,22.406 "/>
      <polyline fill="none" stroke="#262626" stroke-width="3.0pt" stroke-dasharray="none" points="46.150,262.137 46.150,22.406 "/>
  <g transform="translate(35.145,272.262)">
    <g transform="rotate(-0.0)">
      <text x="0.000" y="0.000" font-family="Helvetica" text-anchor="end" font-size="22pt" fill="#262626" >-1</text>
    </g>
  </g>
  <g transform="translate(35.145,192.352)">
    <g transform="rotate(-0.0)">
      <text x="0.000" y="0.000" font-family="Helvetica" text-anchor="end" font-size="22pt" fill="#262626" >0</text>
    </g>
  </g>
  <g transform="translate(35.145,112.442)">
    <g transform="rotate(-0.0)">
      <text x="0.000" y="0.000" font-family="Helvetica" text-anchor="end" font-size="22pt" fill="#262626" >1</text>
    </g>
  </g>
  <g transform="translate(35.145,32.531)">
    <g transform="rotate(-0.0)">
      <text x="0.000" y="0.000" font-family="Helvetica" text-anchor="end" font-size="22pt" fill="#262626" >2</text>
    </g>
  </g>
      <polyline fill="none" stroke="#262626" stroke-width="3.0pt" stroke-dasharray="none" points="46.150,262.137 46.150,266.932 "/>
      <polyline fill="none" stroke="#262626" stroke-width="3.0pt" stroke-dasharray="none" points="46.150,262.137 46.150,266.932 "/>
      <polyline fill="none" stroke="#262626" stroke-width="3.0pt" stroke-dasharray="none" points="46.150,262.137 46.150,266.932 "/>
      <polyline fill="none" stroke="#262626" stroke-width="3.0pt" stroke-dasharray="none" points="46.150,262.137 46.150,262.137 "/>
    </g>
  </g>
  </g>
</svg>
