<?xml version="1.0" encoding="utf-8" standalone="no"?><!DOCTYPE svg PUBLIC "-//W3C//DTD SVG 1.1//EN" "http://www.w3.org/Graphics/SVG/1.1/DTD/svg11.dtd">
<svg preserveAspectRatio="xMinYMin meet" width="100%" height="100%" viewBox="0 0 208.750 237.500"  version="1.1" xmlns="http://www.w3.org/2000/svg" xmlns:xlink="http://www.w3.org/1999/xlink">
  <desc>Matlab Figure Converted by PLOT2SVG written by Juerg Schwizer</desc>
  <g id="topgroup">
  <rect x="0" y="0" width="208.750" height="237.500" fill="#ffffff" stroke="none" />
  <g id ="ID000000">
  <clipPath id="ID000001">
    <rect x="68.762" y="17.812" width="120.156" height="168.188"/>
  </clipPath>
      <polygon fill="#ffffff" fill-opacity="1.00" stroke="none" stroke-width="2.0pt" stroke-opacity="1.00" stroke-dasharray="none" points="68.762,186.000 188.919,186.000 188.919,17.812 68.762,17.812 "/>
      <polygon fill="#ffffff" fill-opacity="1.00" stroke="none" stroke-width="2.0pt" stroke-opacity="1.00" stroke-dasharray="none" points="68.762,17.812 188.919,17.812 188.919,17.812 68.762,17.812 "/>
      <polygon fill="#ffffff" fill-opacity="1.00" stroke="none" stroke-width="2.0pt" stroke-opacity="1.00" stroke-dasharray="none" points="68.762,186.000 68.762,186.000 68.762,17.812 68.762,17.812 "/>
    <g>
<g id="ID000002" >
  <g transform="translate(128.841,104.001)">
    <g transform="rotate(-0.0)">
      <text x="0.000" y="0.000" font-family="Helvetica" text-anchor="start" font-size="12pt" fill="#000000" >* p=0.048</text>
    </g>
  </g>
</g>
    </g>
    <g>
      <polyline fill="none" stroke="#262626" stroke-width="2.0pt" stroke-dasharray="none" points="108.815,186.000 108.815,189.364 "/>
      <polyline fill="none" stroke="#262626" stroke-width="2.0pt" stroke-dasharray="none" points="148.867,186.000 148.867,189.364 "/>
      <polyline fill="none" stroke="#262626" stroke-width="2.0pt" stroke-dasharray="none" points="68.762,186.000 188.919,186.000 "/>
  <g transform="translate(108.815,216.328)">
    <g transform="rotate(-0.0)">
      <text x="0.000" y="0.000" font-family="Helvetica" text-anchor="middle" font-size="20pt" fill="#262626" >Pre</text>
    </g>
  </g>
  <g transform="translate(148.867,216.328)">
    <g transform="rotate(-0.0)">
      <text x="0.000" y="0.000" font-family="Helvetica" text-anchor="middle" font-size="20pt" fill="#262626" >Post</text>
    </g>
  </g>
      <polyline fill="none" stroke="#262626" stroke-width="2.0pt" stroke-dasharray="none" points="68.762,177.788 65.399,177.788 "/>
      <polyline fill="none" stroke="#262626" stroke-width="2.0pt" stroke-dasharray="none" points="68.762,97.800 65.399,97.800 "/>
      <polyline fill="none" stroke="#262626" stroke-width="2.0pt" stroke-dasharray="none" points="68.762,17.812 65.399,17.812 "/>
      <polyline fill="none" stroke="#262626" stroke-width="2.0pt" stroke-dasharray="none" points="68.762,186.000 68.762,17.812 "/>
  <g transform="translate(63.956,186.788)">
    <g transform="rotate(-0.0)">
      <text x="0.000" y="0.000" font-family="Helvetica" text-anchor="end" font-size="20pt" fill="#262626" >0</text>
    </g>
  </g>
  <g transform="translate(63.956,106.800)">
    <g transform="rotate(-0.0)">
      <text x="0.000" y="0.000" font-family="Helvetica" text-anchor="end" font-size="20pt" fill="#262626" >0.5</text>
    </g>
  </g>
  <g transform="translate(63.956,26.812)">
    <g transform="rotate(-0.0)">
      <text x="0.000" y="0.000" font-family="Helvetica" text-anchor="end" font-size="20pt" fill="#262626" >1</text>
    </g>
  </g>
      <polyline fill="none" stroke="#262626" stroke-width="2.0pt" stroke-dasharray="none" points="68.762,186.000 68.762,189.364 "/>
      <polyline fill="none" stroke="#262626" stroke-width="2.0pt" stroke-dasharray="none" points="68.762,186.000 68.762,189.364 "/>
      <polyline fill="none" stroke="#262626" stroke-width="2.0pt" stroke-dasharray="none" points="68.762,186.000 68.762,189.364 "/>
      <polyline fill="none" stroke="#262626" stroke-width="2.0pt" stroke-dasharray="none" points="68.762,186.000 68.762,186.000 "/>
    </g>
  </g>
  </g>
</svg>
