<?xml version="1.0" encoding="utf-8" standalone="no"?><!DOCTYPE svg PUBLIC "-//W3C//DTD SVG 1.1//EN" "http://www.w3.org/Graphics/SVG/1.1/DTD/svg11.dtd">
<svg preserveAspectRatio="xMinYMin meet" width="100%" height="100%" viewBox="0 0 355.000 298.750"  version="1.1" xmlns="http://www.w3.org/2000/svg" xmlns:xlink="http://www.w3.org/1999/xlink">
  <desc>Matlab Figure Converted by PLOT2SVG written by Juerg Schwizer</desc>
  <g id="topgroup">
  <rect x="0" y="0" width="355.000" height="298.750" fill="#ffffff" stroke="none" />
  <g id ="ID000000">
  <clipPath id="ID000001">
    <rect x="46.150" y="22.406" width="275.125" height="239.731"/>
  </clipPath>
      <polygon fill="#ffffff" fill-opacity="1.00" stroke="none" stroke-width="3.0pt" stroke-opacity="1.00" stroke-dasharray="none" points="46.150,262.137 321.275,262.137 321.275,22.406 46.150,22.406 "/>
      <polygon fill="#ffffff" fill-opacity="1.00" stroke="none" stroke-width="3.0pt" stroke-opacity="1.00" stroke-dasharray="none" points="46.150,262.137 321.275,262.137 321.275,262.137 46.150,262.137 "/>
      <polygon fill="#ffffff" fill-opacity="1.00" stroke="none" stroke-width="3.0pt" stroke-opacity="1.00" stroke-dasharray="none" points="46.150,262.137 46.150,262.137 46.150,22.406 46.150,22.406 "/>
    <g>
<g id="ID000002" clip-path="url(#ID000001)" >
      <polygon fill="#69bd45" fill-opacity="0.15" stroke="none" stroke-width="0.5pt" stroke-opacity="1.00" stroke-dasharray="none" points="45.372,136.944 48.094,128.526 50.816,123.715 53.539,112.242 56.261,109.485 58.983,101.521 61.705,90.532 64.427,85.152 67.149,79.355 69.871,72.112 72.593,65.888 75.315,67.645 78.037,63.025 80.759,64.355 83.481,67.244 86.204,68.255 88.926,70.815 91.648,72.815 94.370,76.909 97.092,80.713 99.814,82.382 102.536,85.668 105.258,87.796 107.980,96.310 110.702,93.998 113.424,102.115 116.146,108.695 118.869,111.489 121.591,120.595 124.313,129.020 127.035,132.683 129.757,141.534 132.479,145.582 135.201,148.731 137.923,154.488 140.645,161.493 143.367,163.488 146.089,164.866 148.811,169.134 151.534,172.116 154.256,172.049 156.978,176.421 159.700,174.334 162.422,179.126 165.144,182.646 167.866,184.353 170.588,187.700 173.310,187.293 176.032,192.223 178.754,195.996 181.477,196.065 184.199,196.392 186.921,196.817 189.643,197.997 192.365,202.801 195.087,200.528 197.809,204.225 200.531,203.824 203.253,204.891 205.975,206.246 208.697,207.270 211.419,206.246 214.142,208.106 216.864,209.030 219.586,214.882 222.308,209.756 225.030,211.928 227.752,217.415 230.474,216.108 233.196,216.512 235.918,216.569 238.640,220.194 241.362,218.444 244.084,220.246 246.807,221.983 249.529,222.837 252.251,222.083 254.973,226.611 257.695,226.285 260.417,223.973 263.139,226.073 265.861,225.768 268.583,231.425 271.305,227.223 274.027,229.027 276.749,227.552 279.472,232.446 282.194,227.947 284.916,231.965 287.638,235.025 290.360,234.382 293.082,233.756 295.804,233.950 298.526,234.499 301.248,235.265 303.970,235.911 306.692,235.201 309.414,239.452 312.137,240.422 314.859,238.381 317.581,238.992 320.303,241.619 323.025,244.520 323.025,226.300 320.303,223.196 317.581,224.424 314.859,223.271 312.137,224.173 309.414,224.027 306.692,220.751 303.970,222.373 301.248,221.150 298.526,220.006 295.804,220.610 293.082,220.356 290.360,220.919 287.638,221.289 284.916,219.585 282.194,218.786 279.472,218.985 276.749,216.586 274.027,215.499 271.305,216.456 268.583,216.025 265.861,213.704 263.139,212.961 260.417,211.468 257.695,211.928 254.973,210.810 252.251,209.309 249.529,209.527 246.807,208.884 244.084,209.534 241.362,205.821 238.640,206.922 235.918,204.818 233.196,204.075 230.474,202.644 227.752,202.462 225.030,197.612 222.308,196.542 219.586,198.141 216.864,192.949 214.142,192.766 211.419,191.709 208.697,191.120 205.975,188.912 203.253,188.742 200.531,187.834 197.809,185.263 195.087,183.334 192.365,183.687 189.643,180.893 186.921,179.775 184.199,178.240 181.477,176.777 178.754,178.215 176.032,174.704 173.310,170.822 170.588,171.106 167.866,167.362 165.144,166.439 162.422,165.207 159.700,162.137 156.978,163.260 154.256,159.987 151.534,157.989 148.811,155.128 146.089,151.340 143.367,149.075 140.645,148.095 137.923,142.469 135.201,134.761 132.479,129.994 129.757,124.483 127.035,115.065 124.313,107.864 121.591,96.885 118.869,86.287 116.146,80.878 113.424,72.226 110.702,61.406 107.980,59.766 105.258,50.507 102.536,50.999 99.814,49.438 97.092,50.360 94.370,49.897 91.648,46.794 88.926,45.858 86.204,45.799 83.481,43.923 80.759,42.239 78.037,43.137 75.315,47.842 72.593,48.292 69.871,54.969 67.149,60.452 64.427,68.779 61.705,75.987 58.983,86.259 56.261,93.704 53.539,100.871 50.816,107.991 48.094,114.874 45.372,115.748 "/>
</g>
<g id="ID000003" clip-path="url(#ID000001)" >
      <polyline fill="none" stroke="#69bd45" stroke-width="2.0pt" stroke-dasharray="none" points="45.372,126.346 48.094,121.700 50.816,115.853 53.539,106.557 56.261,101.595 58.983,93.890 61.705,83.259 64.427,76.966 67.149,69.903 69.871,63.540 72.593,57.090 75.315,57.743 78.037,53.081 80.759,53.297 83.481,55.583 86.204,57.027 88.926,58.337 91.648,59.804 94.370,63.403 97.092,65.537 99.814,65.910 102.536,68.334 105.258,69.151 107.980,78.038 110.702,77.702 113.424,87.171 116.146,94.787 118.869,98.888 121.591,108.740 124.313,118.442 127.035,123.874 129.757,133.008 132.479,137.788 135.201,141.746 137.923,148.479 140.645,154.794 143.367,156.282 146.089,158.103 148.811,162.131 151.534,165.053 154.256,166.018 156.978,169.841 159.700,168.235 162.422,172.167 165.144,174.543 167.866,175.857 170.588,179.403 173.310,179.057 176.032,183.463 178.754,187.106 181.477,186.421 184.199,187.316 186.921,188.296 189.643,189.445 192.365,193.244 195.087,191.931 197.809,194.744 200.531,195.829 203.253,196.816 205.975,197.579 208.697,199.195 211.419,198.977 214.142,200.436 216.864,200.990 219.586,206.512 222.308,203.149 225.030,204.770 227.752,209.938 230.474,209.376 233.196,210.294 235.918,210.694 238.640,213.558 241.362,212.133 244.084,214.890 246.807,215.433 249.529,216.182 252.251,215.696 254.973,218.710 257.695,219.107 260.417,217.720 263.139,219.517 265.861,219.736 268.583,223.725 271.305,221.840 274.027,222.263 276.749,222.069 279.472,225.716 282.194,223.367 284.916,225.775 287.638,228.157 290.360,227.650 293.082,227.056 295.804,227.280 298.526,227.252 301.248,228.208 303.970,229.142 306.692,227.976 309.414,231.740 312.137,232.297 314.859,230.826 317.581,231.708 320.303,232.407 323.025,235.410 "/>
<g>
</g>
</g>
<g id="ID000004" clip-path="url(#ID000001)" >
      <polyline fill="none" stroke="#000000" stroke-width="1.5pt" stroke-dasharray="8.0,2.0" points="101.175,581.779 101.175,-1415.981 "/>
<g>
</g>
</g>
<g id="ID000005" >
  <g transform="translate(156.200,25.781)">
    <g transform="rotate(-0.0)">
      <text x="0.000" y="0.000" font-family="Helvetica" text-anchor="start" font-size="8pt" fill="#e5e5e5" >n = 5 mice</text>
    </g>
  </g>
</g>
<g id="ID000006" >
  <g transform="translate(156.200,41.763)">
    <g transform="rotate(-0.0)">
      <text x="0.000" y="0.000" font-family="Helvetica" text-anchor="start" font-size="8pt" fill="#e5e5e5" >n = 1720 trials</text>
    </g>
  </g>
</g>
<g id="ID000007" >
  <g transform="translate(156.200,57.745)">
    <g transform="rotate(-0.0)">
      <text x="0.000" y="0.000" font-family="Helvetica" text-anchor="start" font-size="8pt" fill="#e5e5e5" >Across 17 sessions</text>
    </g>
  </g>
</g>
<g id="ID000008" clip-path="url(#ID000001)" >
<g>
</g>
</g>
<g id="ID000009" clip-path="url(#ID000001)" >
      <polyline fill="none" stroke="#000000" stroke-width="1.5pt" stroke-dasharray="8.0,2.0" points="101.175,581.779 101.175,-1415.981 "/>
<g>
</g>
</g>
<g id="ID000010" >
  <g transform="translate(156.200,25.781)">
    <g transform="rotate(-0.0)">
      <text x="0.000" y="0.000" font-family="Helvetica" text-anchor="start" font-size="8pt" fill="#e5e5e5" >n = 5 mice</text>
    </g>
  </g>
</g>
<g id="ID000011" >
  <g transform="translate(156.200,41.763)">
    <g transform="rotate(-0.0)">
      <text x="0.000" y="0.000" font-family="Helvetica" text-anchor="start" font-size="8pt" fill="#e5e5e5" >n = 1720 trials</text>
    </g>
  </g>
</g>
<g id="ID000012" >
  <g transform="translate(156.200,57.745)">
    <g transform="rotate(-0.0)">
      <text x="0.000" y="0.000" font-family="Helvetica" text-anchor="start" font-size="8pt" fill="#e5e5e5" >Across 17 sessions</text>
    </g>
  </g>
</g>
<g id="ID000013" clip-path="url(#ID000001)" >
<g>
</g>
</g>
<g id="ID000014" clip-path="url(#ID000001)" >
      <polyline fill="none" stroke="#000000" stroke-width="1.5pt" stroke-dasharray="8.0,2.0" points="101.175,581.779 101.175,-1415.981 "/>
<g>
</g>
</g>
<g id="ID000015" >
  <g transform="translate(156.200,25.781)">
    <g transform="rotate(-0.0)">
      <text x="0.000" y="0.000" font-family="Helvetica" text-anchor="start" font-size="8pt" fill="#e5e5e5" >n = 5 mice</text>
    </g>
  </g>
</g>
<g id="ID000016" >
  <g transform="translate(156.200,41.763)">
    <g transform="rotate(-0.0)">
      <text x="0.000" y="0.000" font-family="Helvetica" text-anchor="start" font-size="8pt" fill="#e5e5e5" >n = 1720 trials</text>
    </g>
  </g>
</g>
<g id="ID000017" >
  <g transform="translate(156.200,57.745)">
    <g transform="rotate(-0.0)">
      <text x="0.000" y="0.000" font-family="Helvetica" text-anchor="start" font-size="8pt" fill="#e5e5e5" >Across 17 sessions</text>
    </g>
  </g>
</g>
<g id="ID000018" clip-path="url(#ID000001)" >
<g>
</g>
</g>
<g id="ID000019" clip-path="url(#ID000001)" >
      <polyline fill="none" stroke="#000000" stroke-width="1.5pt" stroke-dasharray="8.0,2.0" points="101.175,581.779 101.175,-1415.981 "/>
<g>
</g>
</g>
<g id="ID000020" >
  <g transform="translate(156.200,25.781)">
    <g transform="rotate(-0.0)">
      <text x="0.000" y="0.000" font-family="Helvetica" text-anchor="start" font-size="8pt" fill="#e5e5e5" >n = 5 mice</text>
    </g>
  </g>
</g>
<g id="ID000021" >
  <g transform="translate(156.200,41.763)">
    <g transform="rotate(-0.0)">
      <text x="0.000" y="0.000" font-family="Helvetica" text-anchor="start" font-size="8pt" fill="#e5e5e5" >n = 1720 trials</text>
    </g>
  </g>
</g>
<g id="ID000022" >
  <g transform="translate(156.200,57.745)">
    <g transform="rotate(-0.0)">
      <text x="0.000" y="0.000" font-family="Helvetica" text-anchor="start" font-size="8pt" fill="#e5e5e5" >Across 17 sessions</text>
    </g>
  </g>
</g>
    </g>
    <g>
      <polyline fill="none" stroke="#262626" stroke-width="3.0pt" stroke-dasharray="none" points="101.175,262.137 101.175,267.640 "/>
      <polyline fill="none" stroke="#262626" stroke-width="3.0pt" stroke-dasharray="none" points="211.225,262.137 211.225,267.640 "/>
      <polyline fill="none" stroke="#262626" stroke-width="3.0pt" stroke-dasharray="none" points="321.275,262.137 321.275,267.640 "/>
      <polyline fill="none" stroke="#262626" stroke-width="3.0pt" stroke-dasharray="none" points="46.150,262.137 321.275,262.137 "/>
  <g transform="translate(101.175,298.277)">
    <g transform="rotate(-0.0)">
      <text x="0.000" y="0.000" font-family="Helvetica" text-anchor="middle" font-size="22pt" fill="#262626" >0</text>
    </g>
  </g>
  <g transform="translate(211.225,298.277)">
    <g transform="rotate(-0.0)">
      <text x="0.000" y="0.000" font-family="Helvetica" text-anchor="middle" font-size="22pt" fill="#262626" >2</text>
    </g>
  </g>
  <g transform="translate(321.275,298.277)">
    <g transform="rotate(-0.0)">
      <text x="0.000" y="0.000" font-family="Helvetica" text-anchor="middle" font-size="22pt" fill="#262626" >4</text>
    </g>
  </g>
      <polyline fill="none" stroke="#262626" stroke-width="3.0pt" stroke-dasharray="none" points="46.150,262.137 40.648,262.137 "/>
      <polyline fill="none" stroke="#262626" stroke-width="3.0pt" stroke-dasharray="none" points="46.150,182.227 40.648,182.227 "/>
      <polyline fill="none" stroke="#262626" stroke-width="3.0pt" stroke-dasharray="none" points="46.150,102.317 40.648,102.317 "/>
      <polyline fill="none" stroke="#262626" stroke-width="3.0pt" stroke-dasharray="none" points="46.150,22.406 40.648,22.406 "/>
      <polyline fill="none" stroke="#262626" stroke-width="3.0pt" stroke-dasharray="none" points="46.150,262.137 46.150,22.406 "/>
  <g transform="translate(35.145,272.262)">
    <g transform="rotate(-0.0)">
      <text x="0.000" y="0.000" font-family="Helvetica" text-anchor="end" font-size="22pt" fill="#262626" >-1</text>
    </g>
  </g>
  <g transform="translate(35.145,192.352)">
    <g transform="rotate(-0.0)">
      <text x="0.000" y="0.000" font-family="Helvetica" text-anchor="end" font-size="22pt" fill="#262626" >0</text>
    </g>
  </g>
  <g transform="translate(35.145,112.442)">
    <g transform="rotate(-0.0)">
      <text x="0.000" y="0.000" font-family="Helvetica" text-anchor="end" font-size="22pt" fill="#262626" >1</text>
    </g>
  </g>
  <g transform="translate(35.145,32.531)">
    <g transform="rotate(-0.0)">
      <text x="0.000" y="0.000" font-family="Helvetica" text-anchor="end" font-size="22pt" fill="#262626" >2</text>
    </g>
  </g>
      <polyline fill="none" stroke="#262626" stroke-width="3.0pt" stroke-dasharray="none" points="46.150,262.137 46.150,266.932 "/>
      <polyline fill="none" stroke="#262626" stroke-width="3.0pt" stroke-dasharray="none" points="46.150,262.137 46.150,266.932 "/>
      <polyline fill="none" stroke="#262626" stroke-width="3.0pt" stroke-dasharray="none" points="46.150,262.137 46.150,266.932 "/>
      <polyline fill="none" stroke="#262626" stroke-width="3.0pt" stroke-dasharray="none" points="46.150,262.137 46.150,262.137 "/>
    </g>
  </g>
  </g>
</svg>
