<?xml version="1.0" encoding="utf-8" standalone="no"?><!DOCTYPE svg PUBLIC "-//W3C//DTD SVG 1.1//EN" "http://www.w3.org/Graphics/SVG/1.1/DTD/svg11.dtd">
<svg preserveAspectRatio="xMinYMin meet" width="100%" height="100%" viewBox="0 0 355.000 298.750"  version="1.1" xmlns="http://www.w3.org/2000/svg" xmlns:xlink="http://www.w3.org/1999/xlink">
  <desc>Matlab Figure Converted by PLOT2SVG written by Juerg Schwizer</desc>
  <g id="topgroup">
  <rect x="0" y="0" width="355.000" height="298.750" fill="#ffffff" stroke="none" />
  <g id ="ID000000">
  <clipPath id="ID000001">
    <rect x="46.150" y="22.406" width="275.125" height="239.731"/>
  </clipPath>
      <polygon fill="#ffffff" fill-opacity="1.00" stroke="none" stroke-width="3.0pt" stroke-opacity="1.00" stroke-dasharray="none" points="46.150,262.137 321.275,262.137 321.275,22.406 46.150,22.406 "/>
      <polygon fill="#ffffff" fill-opacity="1.00" stroke="none" stroke-width="3.0pt" stroke-opacity="1.00" stroke-dasharray="none" points="46.150,262.137 321.275,262.137 321.275,262.137 46.150,262.137 "/>
      <polygon fill="#ffffff" fill-opacity="1.00" stroke="none" stroke-width="3.0pt" stroke-opacity="1.00" stroke-dasharray="none" points="46.150,262.137 46.150,262.137 46.150,22.406 46.150,22.406 "/>
    <g>
<g id="ID000002" clip-path="url(#ID000001)" >
      <polygon fill="#69bd45" fill-opacity="0.15" stroke="none" stroke-width="0.5pt" stroke-opacity="1.00" stroke-dasharray="none" points="45.372,228.853 48.094,229.073 50.816,231.952 53.539,233.020 56.261,234.047 58.983,233.884 61.705,237.232 64.427,238.999 67.149,240.145 69.871,241.400 72.593,244.014 75.315,245.400 78.037,246.595 80.759,246.997 83.481,246.929 86.204,245.403 88.926,245.988 91.648,243.956 94.370,243.711 97.092,243.533 99.814,243.837 102.536,245.824 105.258,245.743 107.980,241.208 110.702,234.000 113.424,226.403 116.146,219.645 118.869,214.713 121.591,209.548 124.313,205.735 127.035,204.302 129.757,203.048 132.479,202.160 135.201,202.408 137.923,198.980 140.645,197.048 143.367,191.618 146.089,191.384 148.811,186.989 151.534,184.366 154.256,180.545 156.978,177.897 159.700,172.997 162.422,169.225 165.144,166.537 167.866,162.168 170.588,160.951 173.310,156.541 176.032,153.470 178.754,149.720 181.477,147.787 184.199,144.759 186.921,143.339 189.643,137.967 192.365,136.322 195.087,132.736 197.809,130.507 200.531,129.150 203.253,125.294 205.975,124.131 208.697,122.016 211.419,118.934 214.142,117.868 216.864,115.893 219.586,114.319 222.308,112.791 225.030,110.556 227.752,109.708 230.474,108.474 233.196,108.494 235.918,107.781 238.640,106.269 241.362,105.694 244.084,105.402 246.807,103.947 249.529,104.372 252.251,103.372 254.973,105.469 257.695,104.974 260.417,106.514 263.139,105.217 265.861,106.149 268.583,106.137 271.305,107.012 274.027,107.781 276.749,106.918 279.472,109.190 282.194,110.520 284.916,107.852 287.638,111.324 290.360,111.112 293.082,113.009 295.804,112.688 298.526,113.937 301.248,115.067 303.970,115.854 306.692,117.463 309.414,119.499 312.137,119.515 314.859,120.414 317.581,122.462 320.303,121.723 323.025,124.003 323.025,77.709 320.303,76.072 317.581,76.344 314.859,73.782 312.137,73.435 309.414,72.547 306.692,71.371 303.970,69.968 301.248,68.114 298.526,66.044 295.804,64.296 293.082,63.621 290.360,62.605 287.638,61.888 284.916,60.052 282.194,61.396 279.472,59.662 276.749,58.414 274.027,58.321 271.305,57.234 268.583,56.575 265.861,56.422 263.139,55.980 260.417,56.651 257.695,56.618 254.973,56.177 252.251,56.723 249.529,56.564 246.807,57.149 244.084,59.354 241.362,59.581 238.640,60.479 235.918,61.915 233.196,63.126 230.474,64.945 227.752,66.952 225.030,67.544 222.308,70.863 219.586,73.523 216.864,75.076 214.142,78.767 211.419,81.704 208.697,85.749 205.975,88.587 203.253,92.498 200.531,96.346 197.809,98.730 195.087,102.421 192.365,106.734 189.643,110.183 186.921,113.593 184.199,118.352 181.477,120.870 178.754,123.787 176.032,127.552 173.310,130.975 170.588,133.864 167.866,135.930 165.144,140.538 162.422,141.556 159.700,146.966 156.978,149.851 154.256,151.858 151.534,155.288 148.811,158.699 146.089,160.393 143.367,161.333 140.645,164.324 137.923,166.519 135.201,168.802 132.479,168.577 129.757,168.227 127.035,167.121 124.313,168.953 121.591,171.728 118.869,180.285 116.146,184.801 113.424,194.366 110.702,204.627 107.980,213.902 105.258,219.751 102.536,219.929 99.814,217.101 97.092,218.884 94.370,219.537 91.648,219.626 88.926,221.081 86.204,221.078 83.481,221.454 80.759,220.846 78.037,220.415 75.315,220.270 72.593,218.271 69.871,216.747 67.149,215.503 64.427,214.301 61.705,212.460 58.983,209.627 56.261,209.938 53.539,209.106 50.816,208.455 48.094,206.361 45.372,206.546 "/>
</g>
<g id="ID000003" clip-path="url(#ID000001)" >
      <polyline fill="none" stroke="#69bd45" stroke-width="2.0pt" stroke-dasharray="none" points="45.372,217.700 48.094,217.717 50.816,220.203 53.539,221.063 56.261,221.992 58.983,221.755 61.705,224.846 64.427,226.650 67.149,227.824 69.871,229.073 72.593,231.143 75.315,232.835 78.037,233.505 80.759,233.922 83.481,234.191 86.204,233.240 88.926,233.534 91.648,231.791 94.370,231.624 97.092,231.209 99.814,230.469 102.536,232.876 105.258,232.747 107.980,227.555 110.702,219.313 113.424,210.384 116.146,202.223 118.869,197.499 121.591,190.638 124.313,187.344 127.035,185.712 129.757,185.638 132.479,185.369 135.201,185.605 137.923,182.750 140.645,180.686 143.367,176.476 146.089,175.888 148.811,172.844 151.534,169.827 154.256,166.201 156.978,163.874 159.700,159.981 162.422,155.390 165.144,153.537 167.866,149.049 170.588,147.408 173.310,143.758 176.032,140.511 178.754,136.753 181.477,134.329 184.199,131.555 186.921,128.466 189.643,124.075 192.365,121.528 195.087,117.578 197.809,114.619 200.531,112.748 203.253,108.896 205.975,106.359 208.697,103.882 211.419,100.319 214.142,98.318 216.864,95.484 219.586,93.921 222.308,91.827 225.030,89.050 227.752,88.330 230.474,86.710 233.196,85.810 235.918,84.848 238.640,83.374 241.362,82.637 244.084,82.378 246.807,80.548 249.529,80.468 252.251,80.048 254.973,80.823 257.695,80.796 260.417,81.583 263.139,80.599 265.861,81.285 268.583,81.356 271.305,82.123 274.027,83.051 276.749,82.666 279.472,84.426 282.194,85.958 284.916,83.952 287.638,86.606 290.360,86.858 293.082,88.315 295.804,88.492 298.526,89.990 301.248,91.591 303.970,92.911 306.692,94.417 309.414,96.023 312.137,96.475 314.859,97.098 317.581,99.403 320.303,98.898 323.025,100.856 "/>
<g>
</g>
</g>
<g id="ID000004" clip-path="url(#ID000001)" >
      <polyline fill="none" stroke="#000000" stroke-width="1.5pt" stroke-dasharray="8.0,2.0" points="101.175,581.779 101.175,-1415.981 "/>
<g>
</g>
</g>
<g id="ID000005" >
  <g transform="translate(156.200,25.781)">
    <g transform="rotate(-0.0)">
      <text x="0.000" y="0.000" font-family="Helvetica" text-anchor="start" font-size="8pt" fill="#e5e5e5" >n = 7 mice</text>
    </g>
  </g>
</g>
<g id="ID000006" >
  <g transform="translate(156.200,41.763)">
    <g transform="rotate(-0.0)">
      <text x="0.000" y="0.000" font-family="Helvetica" text-anchor="start" font-size="8pt" fill="#e5e5e5" >n = 2380 trials</text>
    </g>
  </g>
</g>
<g id="ID000007" >
  <g transform="translate(156.200,57.745)">
    <g transform="rotate(-0.0)">
      <text x="0.000" y="0.000" font-family="Helvetica" text-anchor="start" font-size="8pt" fill="#e5e5e5" >Across 21 sessions</text>
    </g>
  </g>
</g>
<g id="ID000008" clip-path="url(#ID000001)" >
<g>
</g>
</g>
<g id="ID000009" clip-path="url(#ID000001)" >
      <polyline fill="none" stroke="#000000" stroke-width="1.5pt" stroke-dasharray="8.0,2.0" points="101.175,581.779 101.175,-1415.981 "/>
<g>
</g>
</g>
<g id="ID000010" >
  <g transform="translate(156.200,25.781)">
    <g transform="rotate(-0.0)">
      <text x="0.000" y="0.000" font-family="Helvetica" text-anchor="start" font-size="8pt" fill="#e5e5e5" >n = 7 mice</text>
    </g>
  </g>
</g>
<g id="ID000011" >
  <g transform="translate(156.200,41.763)">
    <g transform="rotate(-0.0)">
      <text x="0.000" y="0.000" font-family="Helvetica" text-anchor="start" font-size="8pt" fill="#e5e5e5" >n = 2380 trials</text>
    </g>
  </g>
</g>
<g id="ID000012" >
  <g transform="translate(156.200,57.745)">
    <g transform="rotate(-0.0)">
      <text x="0.000" y="0.000" font-family="Helvetica" text-anchor="start" font-size="8pt" fill="#e5e5e5" >Across 21 sessions</text>
    </g>
  </g>
</g>
<g id="ID000013" clip-path="url(#ID000001)" >
<g>
</g>
</g>
<g id="ID000014" clip-path="url(#ID000001)" >
      <polyline fill="none" stroke="#000000" stroke-width="1.5pt" stroke-dasharray="8.0,2.0" points="101.175,581.779 101.175,-1415.981 "/>
<g>
</g>
</g>
<g id="ID000015" >
  <g transform="translate(156.200,25.781)">
    <g transform="rotate(-0.0)">
      <text x="0.000" y="0.000" font-family="Helvetica" text-anchor="start" font-size="8pt" fill="#e5e5e5" >n = 7 mice</text>
    </g>
  </g>
</g>
<g id="ID000016" >
  <g transform="translate(156.200,41.763)">
    <g transform="rotate(-0.0)">
      <text x="0.000" y="0.000" font-family="Helvetica" text-anchor="start" font-size="8pt" fill="#e5e5e5" >n = 2380 trials</text>
    </g>
  </g>
</g>
<g id="ID000017" >
  <g transform="translate(156.200,57.745)">
    <g transform="rotate(-0.0)">
      <text x="0.000" y="0.000" font-family="Helvetica" text-anchor="start" font-size="8pt" fill="#e5e5e5" >Across 21 sessions</text>
    </g>
  </g>
</g>
<g id="ID000018" clip-path="url(#ID000001)" >
<g>
</g>
</g>
<g id="ID000019" clip-path="url(#ID000001)" >
      <polyline fill="none" stroke="#000000" stroke-width="1.5pt" stroke-dasharray="8.0,2.0" points="101.175,581.779 101.175,-1415.981 "/>
<g>
</g>
</g>
<g id="ID000020" >
  <g transform="translate(156.200,25.781)">
    <g transform="rotate(-0.0)">
      <text x="0.000" y="0.000" font-family="Helvetica" text-anchor="start" font-size="8pt" fill="#e5e5e5" >n = 7 mice</text>
    </g>
  </g>
</g>
<g id="ID000021" >
  <g transform="translate(156.200,41.763)">
    <g transform="rotate(-0.0)">
      <text x="0.000" y="0.000" font-family="Helvetica" text-anchor="start" font-size="8pt" fill="#e5e5e5" >n = 2380 trials</text>
    </g>
  </g>
</g>
<g id="ID000022" >
  <g transform="translate(156.200,57.745)">
    <g transform="rotate(-0.0)">
      <text x="0.000" y="0.000" font-family="Helvetica" text-anchor="start" font-size="8pt" fill="#e5e5e5" >Across 21 sessions</text>
    </g>
  </g>
</g>
    </g>
    <g>
      <polyline fill="none" stroke="#262626" stroke-width="3.0pt" stroke-dasharray="none" points="101.175,262.137 101.175,267.640 "/>
      <polyline fill="none" stroke="#262626" stroke-width="3.0pt" stroke-dasharray="none" points="211.225,262.137 211.225,267.640 "/>
      <polyline fill="none" stroke="#262626" stroke-width="3.0pt" stroke-dasharray="none" points="321.275,262.137 321.275,267.640 "/>
      <polyline fill="none" stroke="#262626" stroke-width="3.0pt" stroke-dasharray="none" points="46.150,262.137 321.275,262.137 "/>
  <g transform="translate(101.175,298.277)">
    <g transform="rotate(-0.0)">
      <text x="0.000" y="0.000" font-family="Helvetica" text-anchor="middle" font-size="22pt" fill="#262626" >0</text>
    </g>
  </g>
  <g transform="translate(211.225,298.277)">
    <g transform="rotate(-0.0)">
      <text x="0.000" y="0.000" font-family="Helvetica" text-anchor="middle" font-size="22pt" fill="#262626" >2</text>
    </g>
  </g>
  <g transform="translate(321.275,298.277)">
    <g transform="rotate(-0.0)">
      <text x="0.000" y="0.000" font-family="Helvetica" text-anchor="middle" font-size="22pt" fill="#262626" >4</text>
    </g>
  </g>
      <polyline fill="none" stroke="#262626" stroke-width="3.0pt" stroke-dasharray="none" points="46.150,262.137 40.648,262.137 "/>
      <polyline fill="none" stroke="#262626" stroke-width="3.0pt" stroke-dasharray="none" points="46.150,182.227 40.648,182.227 "/>
      <polyline fill="none" stroke="#262626" stroke-width="3.0pt" stroke-dasharray="none" points="46.150,102.317 40.648,102.317 "/>
      <polyline fill="none" stroke="#262626" stroke-width="3.0pt" stroke-dasharray="none" points="46.150,22.406 40.648,22.406 "/>
      <polyline fill="none" stroke="#262626" stroke-width="3.0pt" stroke-dasharray="none" points="46.150,262.137 46.150,22.406 "/>
  <g transform="translate(35.145,272.262)">
    <g transform="rotate(-0.0)">
      <text x="0.000" y="0.000" font-family="Helvetica" text-anchor="end" font-size="22pt" fill="#262626" >-1</text>
    </g>
  </g>
  <g transform="translate(35.145,192.352)">
    <g transform="rotate(-0.0)">
      <text x="0.000" y="0.000" font-family="Helvetica" text-anchor="end" font-size="22pt" fill="#262626" >0</text>
    </g>
  </g>
  <g transform="translate(35.145,112.442)">
    <g transform="rotate(-0.0)">
      <text x="0.000" y="0.000" font-family="Helvetica" text-anchor="end" font-size="22pt" fill="#262626" >1</text>
    </g>
  </g>
  <g transform="translate(35.145,32.531)">
    <g transform="rotate(-0.0)">
      <text x="0.000" y="0.000" font-family="Helvetica" text-anchor="end" font-size="22pt" fill="#262626" >2</text>
    </g>
  </g>
      <polyline fill="none" stroke="#262626" stroke-width="3.0pt" stroke-dasharray="none" points="46.150,262.137 46.150,266.932 "/>
      <polyline fill="none" stroke="#262626" stroke-width="3.0pt" stroke-dasharray="none" points="46.150,262.137 46.150,266.932 "/>
      <polyline fill="none" stroke="#262626" stroke-width="3.0pt" stroke-dasharray="none" points="46.150,262.137 46.150,266.932 "/>
      <polyline fill="none" stroke="#262626" stroke-width="3.0pt" stroke-dasharray="none" points="46.150,262.137 46.150,262.137 "/>
    </g>
  </g>
  </g>
</svg>
