<?xml version="1.0" encoding="utf-8" standalone="no"?><!DOCTYPE svg PUBLIC "-//W3C//DTD SVG 1.1//EN" "http://www.w3.org/Graphics/SVG/1.1/DTD/svg11.dtd">
<svg preserveAspectRatio="xMinYMin meet" width="100%" height="100%" viewBox="0 0 355.000 298.750"  version="1.1" xmlns="http://www.w3.org/2000/svg" xmlns:xlink="http://www.w3.org/1999/xlink">
  <desc>Matlab Figure Converted by PLOT2SVG written by Juerg Schwizer</desc>
  <g id="topgroup">
  <rect x="0" y="0" width="355.000" height="298.750" fill="#ffffff" stroke="none" />
  <g id ="ID000000">
  <clipPath id="ID000001">
    <rect x="46.150" y="22.406" width="275.125" height="239.731"/>
  </clipPath>
      <polygon fill="#ffffff" fill-opacity="1.00" stroke="none" stroke-width="3.0pt" stroke-opacity="1.00" stroke-dasharray="none" points="46.150,262.137 321.275,262.137 321.275,22.406 46.150,22.406 "/>
      <polygon fill="#ffffff" fill-opacity="1.00" stroke="none" stroke-width="3.0pt" stroke-opacity="1.00" stroke-dasharray="none" points="46.150,262.137 321.275,262.137 321.275,262.137 46.150,262.137 "/>
      <polygon fill="#ffffff" fill-opacity="1.00" stroke="none" stroke-width="3.0pt" stroke-opacity="1.00" stroke-dasharray="none" points="46.150,262.137 46.150,262.137 46.150,22.406 46.150,22.406 "/>
    <g>
<g id="ID000002" clip-path="url(#ID000001)" >
      <polygon fill="#69bd45" fill-opacity="0.15" stroke="none" stroke-width="0.5pt" stroke-opacity="1.00" stroke-dasharray="none" points="44.854,217.233 49.391,216.539 53.927,216.520 58.464,217.667 63.001,217.055 67.538,218.441 72.075,217.259 76.611,218.594 81.148,217.680 85.685,218.288 90.222,218.913 94.759,218.424 99.295,218.503 103.832,218.328 108.369,216.884 112.906,215.505 117.443,216.428 121.980,217.040 126.516,216.947 131.053,218.312 135.590,218.811 140.127,219.551 144.664,219.812 149.200,219.191 153.737,216.697 158.274,217.726 162.811,220.542 167.348,225.251 171.884,228.695 176.421,233.948 180.958,237.844 185.495,242.038 190.032,243.656 194.568,245.490 199.105,245.390 203.642,246.112 208.179,245.560 212.716,244.409 217.252,244.777 221.789,244.176 226.326,244.044 230.863,245.088 235.400,243.743 239.937,241.925 244.473,241.180 249.010,239.549 253.547,236.948 258.084,234.310 262.621,233.480 267.157,230.009 271.694,228.083 276.231,225.205 280.768,223.720 285.305,221.142 289.841,217.588 294.378,217.917 298.915,213.912 303.452,212.450 307.989,211.179 312.525,209.283 317.062,208.233 321.599,205.448 326.136,201.447 330.673,197.778 335.209,196.582 339.746,194.549 344.283,189.819 348.820,188.549 353.357,184.004 357.894,180.937 362.430,177.709 366.967,173.926 371.504,170.733 376.041,167.625 380.578,164.829 385.114,161.576 389.651,159.167 394.188,156.309 398.725,151.736 403.262,149.025 407.798,147.105 412.335,143.841 416.872,141.438 421.409,140.313 425.946,135.871 430.482,135.224 435.019,132.260 439.556,130.315 444.093,127.526 448.630,124.820 453.166,123.061 457.703,121.724 462.240,120.314 466.777,117.613 471.314,117.499 475.851,116.851 480.387,115.629 484.924,114.350 489.461,114.008 493.998,110.279 498.535,110.558 503.071,109.087 507.608,109.787 507.608,67.578 503.071,67.663 498.535,69.749 493.998,70.470 489.461,74.086 484.924,75.845 480.387,77.873 475.851,79.329 471.314,81.665 466.777,83.075 462.240,85.811 457.703,87.462 453.166,89.999 448.630,94.029 444.093,97.597 439.556,99.451 435.019,103.624 430.482,106.404 425.946,108.380 421.409,111.870 416.872,115.075 412.335,117.574 407.798,122.262 403.262,123.800 398.725,128.265 394.188,131.964 389.651,135.061 385.114,137.345 380.578,140.085 376.041,142.838 371.504,146.195 366.967,149.693 362.430,152.219 357.894,155.684 353.357,157.240 348.820,161.011 344.283,162.479 339.746,166.651 335.209,167.729 330.673,168.090 326.136,172.413 321.599,175.524 317.062,177.068 312.525,178.019 307.989,179.253 303.452,180.008 298.915,182.750 294.378,186.420 289.841,185.061 285.305,191.092 280.768,191.661 276.231,195.110 271.694,195.230 267.157,199.135 262.621,203.049 258.084,204.935 253.547,209.748 249.010,212.523 244.473,215.915 239.937,214.972 235.400,216.158 230.863,218.189 226.326,215.449 221.789,215.840 217.252,215.586 212.716,216.193 208.179,219.199 203.642,219.877 199.105,218.324 194.568,220.581 190.032,220.625 185.495,220.883 180.958,217.337 176.421,215.818 171.884,210.386 167.348,206.241 162.811,202.082 158.274,199.210 153.737,197.776 149.200,200.112 144.664,201.776 140.127,202.734 135.590,202.292 131.053,203.823 126.516,202.315 121.980,202.492 117.443,202.110 112.906,202.057 108.369,203.405 103.832,203.920 99.295,203.167 94.759,203.123 90.222,204.409 85.685,202.643 81.148,202.667 76.611,202.914 72.075,200.813 67.538,201.664 63.001,201.126 58.464,202.622 53.927,200.495 49.391,202.260 44.854,203.314 "/>
</g>
<g id="ID000003" clip-path="url(#ID000001)" >
      <polyline fill="none" stroke="#69bd45" stroke-width="2.0pt" stroke-dasharray="none" points="44.854,210.273 49.391,209.400 53.927,208.508 58.464,210.145 63.001,209.090 67.538,210.053 72.075,209.036 76.611,210.754 81.148,210.174 85.685,210.465 90.222,211.661 94.759,210.774 99.295,210.835 103.832,211.124 108.369,210.144 112.906,208.781 117.443,209.269 121.980,209.766 126.516,209.631 131.053,211.068 135.590,210.551 140.127,211.143 144.664,210.794 149.200,209.651 153.737,207.236 158.274,208.468 162.811,211.312 167.348,215.746 171.884,219.540 176.421,224.883 180.958,227.591 185.495,231.461 190.032,232.140 194.568,233.036 199.105,231.857 203.642,232.995 208.179,232.379 212.716,230.301 217.252,230.182 221.789,230.008 226.326,229.747 230.863,231.638 235.400,229.951 239.937,228.448 244.473,228.548 249.010,226.036 253.547,223.348 258.084,219.623 262.621,218.264 267.157,214.572 271.694,211.657 276.231,210.157 280.768,207.690 285.305,206.117 289.841,201.325 294.378,202.169 298.915,198.331 303.452,196.229 307.989,195.216 312.525,193.651 317.062,192.651 321.599,190.486 326.136,186.930 330.673,182.934 335.209,182.155 339.746,180.600 344.283,176.149 348.820,174.780 353.357,170.622 357.894,168.311 362.430,164.964 366.967,161.809 371.504,158.464 376.041,155.231 380.578,152.457 385.114,149.461 389.651,147.114 394.188,144.136 398.725,140.000 403.262,136.412 407.798,134.684 412.335,130.707 416.872,128.256 421.409,126.091 425.946,122.125 430.482,120.814 435.019,117.942 439.556,114.883 444.093,112.561 448.630,109.424 453.166,106.530 457.703,104.593 462.240,103.062 466.777,100.344 471.314,99.582 475.851,98.090 480.387,96.751 484.924,95.097 489.461,94.047 493.998,90.375 498.535,90.154 503.071,88.375 507.608,88.683 "/>
<g>
</g>
</g>
<g id="ID000004" clip-path="url(#ID000001)" >
      <polyline fill="none" stroke="#000000" stroke-width="1.5pt" stroke-dasharray="8.0,2.0" points="137.858,581.779 137.858,-1415.981 "/>
<g>
</g>
</g>
<g id="ID000005" >
  <g transform="translate(229.567,25.781)">
    <g transform="rotate(-0.0)">
      <text x="0.000" y="0.000" font-family="Helvetica" text-anchor="start" font-size="8pt" fill="#e5e5e5" >n = 7 mice</text>
    </g>
  </g>
</g>
<g id="ID000006" >
  <g transform="translate(229.567,41.763)">
    <g transform="rotate(-0.0)">
      <text x="0.000" y="0.000" font-family="Helvetica" text-anchor="start" font-size="8pt" fill="#e5e5e5" >n = 2380 trials</text>
    </g>
  </g>
</g>
<g id="ID000007" >
  <g transform="translate(229.567,57.745)">
    <g transform="rotate(-0.0)">
      <text x="0.000" y="0.000" font-family="Helvetica" text-anchor="start" font-size="8pt" fill="#e5e5e5" >Across 21 sessions</text>
    </g>
  </g>
</g>
<g id="ID000008" clip-path="url(#ID000001)" >
      <polygon fill="#b32800" fill-opacity="0.15" stroke="none" stroke-width="0.5pt" stroke-opacity="1.00" stroke-dasharray="none" points="44.854,204.562 49.391,210.417 53.927,215.550 58.464,204.286 63.001,203.472 67.538,203.292 72.075,200.163 76.611,200.474 81.148,201.182 85.685,197.478 90.222,198.490 94.759,198.195 99.295,200.142 103.832,198.467 108.369,200.381 112.906,199.384 117.443,198.295 121.980,196.650 126.516,196.067 131.053,196.358 135.590,195.181 140.127,193.686 144.664,195.184 149.200,188.099 153.737,188.664 158.274,185.343 162.811,181.867 167.348,174.388 171.884,175.268 176.421,176.871 180.958,172.755 185.495,168.013 190.032,161.409 194.568,153.350 199.105,151.928 203.642,142.161 208.179,142.000 212.716,135.053 217.252,138.961 221.789,135.522 226.326,142.179 230.863,142.160 235.400,144.571 239.937,141.956 244.473,143.818 249.010,146.770 253.547,145.877 258.084,155.499 262.621,150.369 267.157,157.524 271.694,153.212 276.231,155.106 280.768,153.091 285.305,151.480 289.841,154.748 294.378,154.602 298.915,151.374 303.452,151.398 307.989,153.821 312.525,153.644 317.062,159.232 321.599,156.761 326.136,150.186 330.673,155.984 335.209,159.869 339.746,157.535 344.283,158.069 348.820,161.099 353.357,165.031 357.894,171.473 362.430,165.384 366.967,168.436 371.504,164.546 376.041,160.329 380.578,165.505 385.114,156.812 389.651,156.612 394.188,163.502 398.725,162.261 403.262,156.009 407.798,151.893 412.335,156.996 416.872,154.988 421.409,158.066 425.946,160.191 430.482,164.553 435.019,166.611 439.556,166.712 444.093,166.865 448.630,162.529 453.166,161.896 457.703,163.217 462.240,163.991 466.777,166.430 471.314,168.553 475.851,170.149 480.387,168.168 484.924,170.199 489.461,168.228 493.998,168.382 498.535,170.997 503.071,170.524 507.608,171.786 507.608,153.831 503.071,153.913 498.535,150.694 493.998,147.909 489.461,145.355 484.924,151.612 480.387,150.895 475.851,152.669 471.314,149.477 466.777,145.494 462.240,139.037 457.703,140.014 453.166,134.910 448.630,133.819 444.093,146.407 439.556,145.064 435.019,144.147 430.482,141.309 425.946,135.948 421.409,134.422 416.872,127.661 412.335,131.961 407.798,125.780 403.262,132.928 398.725,133.067 394.188,138.170 389.651,132.755 385.114,131.852 380.578,142.931 376.041,137.349 371.504,137.849 366.967,143.636 362.430,139.735 357.894,141.348 353.357,139.059 348.820,137.292 344.283,130.706 339.746,131.979 335.209,129.251 330.673,127.102 326.136,119.255 321.599,131.860 317.062,131.393 312.525,126.651 307.989,125.258 303.452,119.832 298.915,118.258 294.378,123.077 289.841,124.423 285.305,122.273 280.768,124.378 276.231,125.964 271.694,122.017 267.157,126.317 262.621,120.932 258.084,121.892 253.547,111.394 249.010,112.033 244.473,106.656 239.937,104.450 235.400,108.711 230.863,108.771 226.326,107.943 221.789,98.777 217.252,103.111 212.716,88.781 208.179,107.994 203.642,112.634 199.105,124.534 194.568,119.738 190.032,132.905 185.495,140.986 180.958,143.813 176.421,149.291 171.884,144.480 167.348,135.716 162.811,149.665 158.274,155.944 153.737,158.224 149.200,151.674 144.664,163.157 140.127,161.739 135.590,170.406 131.053,177.719 126.516,170.796 121.980,173.478 117.443,177.718 112.906,178.056 108.369,182.645 103.832,174.583 99.295,182.346 94.759,174.661 90.222,173.823 85.685,171.899 81.148,177.416 76.611,171.864 72.075,168.840 67.538,176.204 63.001,175.582 58.464,176.735 53.927,179.893 49.391,180.797 44.854,182.145 "/>
</g>
<g id="ID000009" clip-path="url(#ID000001)" >
      <polyline fill="none" stroke="#b32800" stroke-width="2.0pt" stroke-dasharray="none" points="44.854,193.353 49.391,195.607 53.927,197.721 58.464,190.510 63.001,189.527 67.538,189.748 72.075,184.502 76.611,186.169 81.148,189.299 85.685,184.689 90.222,186.157 94.759,186.428 99.295,191.244 103.832,186.525 108.369,191.513 112.906,188.720 117.443,188.006 121.980,185.064 126.516,183.431 131.053,187.038 135.590,182.793 140.127,177.712 144.664,179.170 149.200,169.887 153.737,173.444 158.274,170.643 162.811,165.766 167.348,155.052 171.884,159.874 176.421,163.081 180.958,158.284 185.495,154.499 190.032,147.157 194.568,136.544 199.105,138.231 203.642,127.398 208.179,124.997 212.716,111.917 217.252,121.036 221.789,117.149 226.326,125.061 230.863,125.466 235.400,126.641 239.937,123.203 244.473,125.237 249.010,129.401 253.547,128.635 258.084,138.696 262.621,135.650 267.157,141.920 271.694,137.614 276.231,140.535 280.768,138.734 285.305,136.877 289.841,139.586 294.378,138.840 298.915,134.816 303.452,135.615 307.989,139.540 312.525,140.148 317.062,145.313 321.599,144.310 326.136,134.721 330.673,141.543 335.209,144.560 339.746,144.757 344.283,144.387 348.820,149.196 353.357,152.045 357.894,156.411 362.430,152.559 366.967,156.036 371.504,151.198 376.041,148.839 380.578,154.218 385.114,144.332 389.651,144.683 394.188,150.836 398.725,147.664 403.262,144.468 407.798,138.836 412.335,144.478 416.872,141.324 421.409,146.244 425.946,148.069 430.482,152.931 435.019,155.379 439.556,155.888 444.093,156.636 448.630,148.174 453.166,148.403 457.703,151.616 462.240,151.514 466.777,155.962 471.314,159.015 475.851,161.409 480.387,159.532 484.924,160.906 489.461,156.791 493.998,158.146 498.535,160.845 503.071,162.218 507.608,162.809 "/>
<g>
</g>
</g>
<g id="ID000010" clip-path="url(#ID000001)" >
      <polyline fill="none" stroke="#000000" stroke-width="1.5pt" stroke-dasharray="8.0,2.0" points="137.858,581.779 137.858,-1415.981 "/>
<g>
</g>
</g>
<g id="ID000011" >
  <g transform="translate(229.567,25.781)">
    <g transform="rotate(-0.0)">
      <text x="0.000" y="0.000" font-family="Helvetica" text-anchor="start" font-size="8pt" fill="#e5e5e5" >n = 7 mice</text>
    </g>
  </g>
</g>
<g id="ID000012" >
  <g transform="translate(229.567,41.763)">
    <g transform="rotate(-0.0)">
      <text x="0.000" y="0.000" font-family="Helvetica" text-anchor="start" font-size="8pt" fill="#e5e5e5" >n = 2380 trials</text>
    </g>
  </g>
</g>
<g id="ID000013" >
  <g transform="translate(229.567,57.745)">
    <g transform="rotate(-0.0)">
      <text x="0.000" y="0.000" font-family="Helvetica" text-anchor="start" font-size="8pt" fill="#e5e5e5" >Across 21 sessions</text>
    </g>
  </g>
</g>
<g id="ID000014" clip-path="url(#ID000001)" >
<g>
</g>
</g>
<g id="ID000015" clip-path="url(#ID000001)" >
      <polyline fill="none" stroke="#000000" stroke-width="1.5pt" stroke-dasharray="8.0,2.0" points="137.858,581.779 137.858,-1415.981 "/>
<g>
</g>
</g>
<g id="ID000016" >
  <g transform="translate(229.567,25.781)">
    <g transform="rotate(-0.0)">
      <text x="0.000" y="0.000" font-family="Helvetica" text-anchor="start" font-size="8pt" fill="#e5e5e5" >n = 7 mice</text>
    </g>
  </g>
</g>
<g id="ID000017" >
  <g transform="translate(229.567,41.763)">
    <g transform="rotate(-0.0)">
      <text x="0.000" y="0.000" font-family="Helvetica" text-anchor="start" font-size="8pt" fill="#e5e5e5" >n = 2380 trials</text>
    </g>
  </g>
</g>
<g id="ID000018" >
  <g transform="translate(229.567,57.745)">
    <g transform="rotate(-0.0)">
      <text x="0.000" y="0.000" font-family="Helvetica" text-anchor="start" font-size="8pt" fill="#e5e5e5" >Across 21 sessions</text>
    </g>
  </g>
</g>
<g id="ID000019" clip-path="url(#ID000001)" >
      <polygon fill="#15e1ff" fill-opacity="0.15" stroke="none" stroke-width="0.5pt" stroke-opacity="1.00" stroke-dasharray="none" points="44.854,215.600 49.391,215.354 53.927,216.616 58.464,214.936 63.001,215.573 67.538,218.581 72.075,214.086 76.611,217.038 81.148,215.612 85.685,216.380 90.222,210.937 94.759,210.278 99.295,210.867 103.832,213.310 108.369,210.975 112.906,208.368 117.443,210.858 121.980,207.295 126.516,208.786 131.053,206.612 135.590,208.353 140.127,207.260 144.664,207.807 149.200,205.174 153.737,197.644 158.274,195.589 162.811,194.968 167.348,191.541 171.884,191.343 176.421,191.873 180.958,187.862 185.495,191.176 190.032,177.155 194.568,175.113 199.105,169.728 203.642,173.285 208.179,170.313 212.716,159.714 217.252,157.908 221.789,160.385 226.326,159.789 230.863,155.723 235.400,155.647 239.937,158.390 244.473,162.989 249.010,164.439 253.547,164.716 258.084,160.854 262.621,163.364 267.157,169.844 271.694,168.082 276.231,170.727 280.768,174.296 285.305,167.520 289.841,171.056 294.378,168.281 298.915,169.848 303.452,170.781 307.989,171.349 312.525,173.418 317.062,172.013 321.599,176.615 326.136,170.723 330.673,175.325 335.209,173.220 339.746,175.283 344.283,174.558 348.820,177.615 353.357,175.044 357.894,176.812 362.430,173.960 366.967,177.600 371.504,170.885 376.041,170.604 380.578,176.800 385.114,170.275 389.651,173.594 394.188,173.334 398.725,174.731 403.262,171.670 407.798,172.983 412.335,170.911 416.872,174.431 421.409,174.292 425.946,173.147 430.482,172.329 435.019,172.229 439.556,173.382 444.093,172.503 448.630,171.869 453.166,173.609 457.703,173.202 462.240,174.404 466.777,180.040 471.314,179.062 475.851,180.238 480.387,178.886 484.924,178.178 489.461,175.203 493.998,176.979 498.535,174.496 503.071,179.322 507.608,176.829 507.608,151.768 503.071,159.362 498.535,150.503 493.998,156.347 489.461,151.501 484.924,156.033 480.387,157.487 475.851,156.559 471.314,154.793 466.777,156.149 462.240,150.179 457.703,148.981 453.166,151.002 448.630,150.884 444.093,150.555 439.556,149.480 435.019,147.867 430.482,148.381 425.946,148.414 421.409,148.351 416.872,147.720 412.335,145.394 407.798,148.290 403.262,146.996 398.725,148.028 394.188,147.156 389.651,146.645 385.114,146.745 380.578,151.198 376.041,145.564 371.504,146.161 366.967,152.557 362.430,148.540 357.894,150.873 353.357,146.974 348.820,147.745 344.283,144.811 339.746,144.064 335.209,140.927 330.673,140.696 326.136,139.344 321.599,140.230 317.062,134.664 312.525,133.839 307.989,130.858 303.452,133.396 298.915,133.793 294.378,132.425 289.841,138.625 285.305,137.649 280.768,140.431 276.231,137.918 271.694,137.173 267.157,138.634 262.621,134.307 258.084,130.966 253.547,133.478 249.010,132.751 244.473,132.256 239.937,127.155 235.400,125.756 230.863,124.944 226.326,125.212 221.789,126.248 217.252,126.593 212.716,128.685 208.179,133.646 203.642,137.232 199.105,137.178 194.568,142.917 190.032,144.022 185.495,155.173 180.958,156.326 176.421,162.281 171.884,161.552 167.348,165.270 162.811,171.663 158.274,173.049 153.737,173.635 149.200,185.748 144.664,188.075 140.127,187.863 135.590,192.078 131.053,190.777 126.516,194.983 121.980,194.346 117.443,197.620 112.906,194.726 108.369,199.958 103.832,202.672 99.295,196.492 94.759,189.777 90.222,196.586 85.685,206.661 81.148,203.815 76.611,204.527 72.075,193.857 67.538,205.353 63.001,200.899 58.464,198.557 53.927,201.665 49.391,195.204 44.854,195.818 "/>
</g>
<g id="ID000020" clip-path="url(#ID000001)" >
      <polyline fill="none" stroke="#15e1ff" stroke-width="2.0pt" stroke-dasharray="none" points="44.854,205.709 49.391,205.279 53.927,209.141 58.464,206.746 63.001,208.236 67.538,211.967 72.075,203.971 76.611,210.782 81.148,209.714 85.685,211.520 90.222,203.762 94.759,200.028 99.295,203.680 103.832,207.991 108.369,205.467 112.906,201.547 117.443,204.239 121.980,200.820 126.516,201.885 131.053,198.694 135.590,200.215 140.127,197.561 144.664,197.941 149.200,195.461 153.737,185.639 158.274,184.319 162.811,183.315 167.348,178.405 171.884,176.447 176.421,177.077 180.958,172.094 185.495,173.174 190.032,160.589 194.568,159.015 199.105,153.453 203.642,155.259 208.179,151.980 212.716,144.199 217.252,142.250 221.789,143.316 226.326,142.501 230.863,140.333 235.400,140.701 239.937,142.772 244.473,147.622 249.010,148.595 253.547,149.097 258.084,145.910 262.621,148.836 267.157,154.239 271.694,152.627 276.231,154.323 280.768,157.363 285.305,152.585 289.841,154.841 294.378,150.353 298.915,151.821 303.452,152.089 307.989,151.104 312.525,153.629 317.062,153.338 321.599,158.422 326.136,155.034 330.673,158.011 335.209,157.073 339.746,159.673 344.283,159.684 348.820,162.680 353.357,161.009 357.894,163.843 362.430,161.250 366.967,165.079 371.504,158.523 376.041,158.084 380.578,163.999 385.114,158.510 389.651,160.119 394.188,160.245 398.725,161.380 403.262,159.333 407.798,160.636 412.335,158.152 416.872,161.076 421.409,161.321 425.946,160.781 430.482,160.355 435.019,160.048 439.556,161.431 444.093,161.529 448.630,161.377 453.166,162.306 457.703,161.092 462.240,162.291 466.777,168.094 471.314,166.927 475.851,168.398 480.387,168.187 484.924,167.105 489.461,163.352 493.998,166.663 498.535,162.499 503.071,169.342 507.608,164.298 "/>
<g>
</g>
</g>
<g id="ID000021" clip-path="url(#ID000001)" >
      <polyline fill="none" stroke="#000000" stroke-width="1.5pt" stroke-dasharray="8.0,2.0" points="137.858,581.779 137.858,-1415.981 "/>
<g>
</g>
</g>
<g id="ID000022" >
  <g transform="translate(229.567,25.781)">
    <g transform="rotate(-0.0)">
      <text x="0.000" y="0.000" font-family="Helvetica" text-anchor="start" font-size="8pt" fill="#e5e5e5" >n = 7 mice</text>
    </g>
  </g>
</g>
<g id="ID000023" >
  <g transform="translate(229.567,41.763)">
    <g transform="rotate(-0.0)">
      <text x="0.000" y="0.000" font-family="Helvetica" text-anchor="start" font-size="8pt" fill="#e5e5e5" >n = 2380 trials</text>
    </g>
  </g>
</g>
<g id="ID000024" >
  <g transform="translate(229.567,57.745)">
    <g transform="rotate(-0.0)">
      <text x="0.000" y="0.000" font-family="Helvetica" text-anchor="start" font-size="8pt" fill="#e5e5e5" >Across 21 sessions</text>
    </g>
  </g>
</g>
    </g>
    <g>
      <polyline fill="none" stroke="#262626" stroke-width="3.0pt" stroke-dasharray="none" points="46.150,262.137 46.150,267.640 "/>
      <polyline fill="none" stroke="#262626" stroke-width="3.0pt" stroke-dasharray="none" points="137.858,262.137 137.858,267.640 "/>
      <polyline fill="none" stroke="#262626" stroke-width="3.0pt" stroke-dasharray="none" points="229.567,262.137 229.567,267.640 "/>
      <polyline fill="none" stroke="#262626" stroke-width="3.0pt" stroke-dasharray="none" points="321.275,262.137 321.275,267.640 "/>
      <polyline fill="none" stroke="#262626" stroke-width="3.0pt" stroke-dasharray="none" points="46.150,262.137 321.275,262.137 "/>
  <g transform="translate(46.150,298.277)">
    <g transform="rotate(-0.0)">
      <text x="0.000" y="0.000" font-family="Helvetica" text-anchor="middle" font-size="22pt" fill="#262626" >-1</text>
    </g>
  </g>
  <g transform="translate(137.858,298.277)">
    <g transform="rotate(-0.0)">
      <text x="0.000" y="0.000" font-family="Helvetica" text-anchor="middle" font-size="22pt" fill="#262626" >0</text>
    </g>
  </g>
  <g transform="translate(229.567,298.277)">
    <g transform="rotate(-0.0)">
      <text x="0.000" y="0.000" font-family="Helvetica" text-anchor="middle" font-size="22pt" fill="#262626" >1</text>
    </g>
  </g>
  <g transform="translate(321.275,298.277)">
    <g transform="rotate(-0.0)">
      <text x="0.000" y="0.000" font-family="Helvetica" text-anchor="middle" font-size="22pt" fill="#262626" >2</text>
    </g>
  </g>
      <polyline fill="none" stroke="#262626" stroke-width="3.0pt" stroke-dasharray="none" points="46.150,262.137 40.648,262.137 "/>
      <polyline fill="none" stroke="#262626" stroke-width="3.0pt" stroke-dasharray="none" points="46.150,182.227 40.648,182.227 "/>
      <polyline fill="none" stroke="#262626" stroke-width="3.0pt" stroke-dasharray="none" points="46.150,102.317 40.648,102.317 "/>
      <polyline fill="none" stroke="#262626" stroke-width="3.0pt" stroke-dasharray="none" points="46.150,22.406 40.648,22.406 "/>
      <polyline fill="none" stroke="#262626" stroke-width="3.0pt" stroke-dasharray="none" points="46.150,262.137 46.150,22.406 "/>
  <g transform="translate(35.145,272.262)">
    <g transform="rotate(-0.0)">
      <text x="0.000" y="0.000" font-family="Helvetica" text-anchor="end" font-size="22pt" fill="#262626" >-1</text>
    </g>
  </g>
  <g transform="translate(35.145,192.352)">
    <g transform="rotate(-0.0)">
      <text x="0.000" y="0.000" font-family="Helvetica" text-anchor="end" font-size="22pt" fill="#262626" >0</text>
    </g>
  </g>
  <g transform="translate(35.145,112.442)">
    <g transform="rotate(-0.0)">
      <text x="0.000" y="0.000" font-family="Helvetica" text-anchor="end" font-size="22pt" fill="#262626" >1</text>
    </g>
  </g>
  <g transform="translate(35.145,32.531)">
    <g transform="rotate(-0.0)">
      <text x="0.000" y="0.000" font-family="Helvetica" text-anchor="end" font-size="22pt" fill="#262626" >2</text>
    </g>
  </g>
      <polyline fill="none" stroke="#262626" stroke-width="3.0pt" stroke-dasharray="none" points="46.150,262.137 46.150,266.932 "/>
      <polyline fill="none" stroke="#262626" stroke-width="3.0pt" stroke-dasharray="none" points="46.150,262.137 46.150,266.932 "/>
      <polyline fill="none" stroke="#262626" stroke-width="3.0pt" stroke-dasharray="none" points="46.150,262.137 46.150,266.932 "/>
      <polyline fill="none" stroke="#262626" stroke-width="3.0pt" stroke-dasharray="none" points="46.150,262.137 46.150,262.137 "/>
    </g>
  </g>
  </g>
</svg>
