<?xml version="1.0" encoding="utf-8" standalone="no"?><!DOCTYPE svg PUBLIC "-//W3C//DTD SVG 1.1//EN" "http://www.w3.org/Graphics/SVG/1.1/DTD/svg11.dtd">
<svg preserveAspectRatio="xMinYMin meet" width="100%" height="100%" viewBox="0 0 355.000 298.750"  version="1.1" xmlns="http://www.w3.org/2000/svg" xmlns:xlink="http://www.w3.org/1999/xlink">
  <desc>Matlab Figure Converted by PLOT2SVG written by Juerg Schwizer</desc>
  <g id="topgroup">
  <rect x="0" y="0" width="355.000" height="298.750" fill="#ffffff" stroke="none" />
  <g id ="ID000000">
  <clipPath id="ID000001">
    <rect x="46.150" y="22.406" width="275.125" height="239.731"/>
  </clipPath>
      <polygon fill="#ffffff" fill-opacity="1.00" stroke="none" stroke-width="3.0pt" stroke-opacity="1.00" stroke-dasharray="none" points="46.150,262.137 321.275,262.137 321.275,22.406 46.150,22.406 "/>
      <polygon fill="#ffffff" fill-opacity="1.00" stroke="none" stroke-width="3.0pt" stroke-opacity="1.00" stroke-dasharray="none" points="46.150,262.137 321.275,262.137 321.275,262.137 46.150,262.137 "/>
      <polygon fill="#ffffff" fill-opacity="1.00" stroke="none" stroke-width="3.0pt" stroke-opacity="1.00" stroke-dasharray="none" points="46.150,262.137 46.150,262.137 46.150,22.406 46.150,22.406 "/>
    <g>
<g id="ID000002" clip-path="url(#ID000001)" >
      <polygon fill="#69bd45" fill-opacity="0.15" stroke="none" stroke-width="0.5pt" stroke-opacity="1.00" stroke-dasharray="none" points="44.854,217.459 49.391,216.867 53.927,216.683 58.464,215.738 63.001,216.403 67.538,215.989 72.075,216.627 76.611,216.263 81.148,216.096 85.685,215.121 90.222,215.279 94.759,213.426 99.295,213.222 103.832,213.243 108.369,213.072 112.906,212.385 117.443,212.900 121.980,211.894 126.516,213.464 131.053,212.200 135.590,212.024 140.127,211.698 144.664,211.745 149.200,210.781 153.737,210.898 158.274,210.488 162.811,213.962 167.348,218.159 171.884,219.333 176.421,221.140 180.958,221.635 185.495,223.224 190.032,224.004 194.568,224.971 199.105,226.693 203.642,227.215 208.179,228.967 212.716,230.550 217.252,231.248 221.789,233.491 226.326,233.632 230.863,235.482 235.400,236.661 239.937,236.630 244.473,237.333 249.010,236.286 253.547,237.403 258.084,236.757 262.621,235.594 267.157,234.851 271.694,234.747 276.231,233.536 280.768,232.892 285.305,231.744 289.841,232.516 294.378,230.690 298.915,229.218 303.452,228.151 307.989,226.054 312.525,224.788 317.062,224.389 321.599,224.142 326.136,223.353 330.673,222.148 335.209,221.499 339.746,219.651 344.283,217.654 348.820,215.703 353.357,214.021 357.894,212.589 362.430,210.553 366.967,209.867 371.504,206.905 376.041,204.877 380.578,203.204 385.114,202.988 389.651,200.479 394.188,198.384 398.725,197.532 403.262,195.458 407.798,193.437 412.335,192.091 416.872,189.683 421.409,187.197 425.946,184.328 430.482,184.074 435.019,181.175 439.556,178.845 444.093,176.326 448.630,172.648 453.166,169.817 457.703,168.823 462.240,165.644 466.777,165.326 471.314,161.756 475.851,160.418 480.387,159.231 484.924,157.758 489.461,155.437 493.998,153.337 498.535,152.092 503.071,149.194 507.608,147.657 507.608,115.944 503.071,118.242 498.535,121.216 493.998,123.685 489.461,124.797 484.924,127.374 480.387,130.076 475.851,130.746 471.314,133.060 466.777,136.446 462.240,136.546 457.703,140.601 453.166,139.766 448.630,143.756 444.093,146.632 439.556,149.206 435.019,152.568 430.482,155.048 425.946,155.014 421.409,157.906 416.872,159.682 412.335,163.213 407.798,165.782 403.262,166.270 398.725,169.920 394.188,171.364 389.651,172.867 385.114,173.832 380.578,176.752 376.041,177.310 371.504,178.233 366.967,181.653 362.430,182.996 357.894,183.663 353.357,185.160 348.820,185.273 344.283,188.207 339.746,189.179 335.209,193.558 330.673,192.387 326.136,195.669 321.599,195.991 317.062,196.026 312.525,198.271 307.989,198.889 303.452,201.450 298.915,203.179 294.378,205.947 289.841,208.696 285.305,206.942 280.768,209.729 276.231,210.585 271.694,211.780 267.157,210.884 262.621,211.949 258.084,214.463 253.547,213.111 249.010,210.571 244.473,213.293 239.937,212.944 235.400,212.080 230.863,212.438 226.326,211.518 221.789,212.958 217.252,211.185 212.716,210.864 208.179,209.692 203.642,208.044 199.105,206.392 194.568,206.096 190.032,205.037 185.495,204.221 180.958,204.302 176.421,202.804 171.884,202.535 167.348,201.930 162.811,198.356 158.274,195.066 153.737,196.428 149.200,196.928 144.664,196.811 140.127,197.616 135.590,197.520 131.053,197.784 126.516,197.943 121.980,197.201 117.443,198.027 112.906,196.522 108.369,198.371 103.832,197.601 99.295,197.576 94.759,197.621 90.222,199.764 85.685,199.027 81.148,201.234 76.611,201.164 72.075,202.328 67.538,201.459 63.001,202.414 58.464,201.464 53.927,202.577 49.391,201.966 44.854,203.786 "/>
</g>
<g id="ID000003" clip-path="url(#ID000001)" >
      <polyline fill="none" stroke="#69bd45" stroke-width="2.0pt" stroke-dasharray="none" points="44.854,210.622 49.391,209.416 53.927,209.630 58.464,208.601 63.001,209.408 67.538,208.724 72.075,209.477 76.611,208.714 81.148,208.665 85.685,207.074 90.222,207.522 94.759,205.523 99.295,205.399 103.832,205.422 108.369,205.722 112.906,204.453 117.443,205.463 121.980,204.547 126.516,205.704 131.053,204.992 135.590,204.772 140.127,204.657 144.664,204.278 149.200,203.854 153.737,203.663 158.274,202.777 162.811,206.159 167.348,210.044 171.884,210.934 176.421,211.972 180.958,212.969 185.495,213.722 190.032,214.521 194.568,215.533 199.105,216.543 203.642,217.629 208.179,219.330 212.716,220.707 217.252,221.216 221.789,223.224 226.326,222.575 230.863,223.960 235.400,224.370 239.937,224.787 244.473,225.313 249.010,223.429 253.547,225.257 258.084,225.610 262.621,223.771 267.157,222.868 271.694,223.263 276.231,222.061 280.768,221.311 285.305,219.343 289.841,220.606 294.378,218.319 298.915,216.198 303.452,214.800 307.989,212.472 312.525,211.529 317.062,210.207 321.599,210.067 326.136,209.511 330.673,207.267 335.209,207.529 339.746,204.415 344.283,202.930 348.820,200.488 353.357,199.591 357.894,198.126 362.430,196.775 366.967,195.760 371.504,192.569 376.041,191.094 380.578,189.978 385.114,188.410 389.651,186.673 394.188,184.874 398.725,183.726 403.262,180.864 407.798,179.610 412.335,177.652 416.872,174.682 421.409,172.551 425.946,169.671 430.482,169.561 435.019,166.872 439.556,164.025 444.093,161.479 448.630,158.202 453.166,154.791 457.703,154.712 462.240,151.095 466.777,150.886 471.314,147.408 475.851,145.582 480.387,144.654 484.924,142.566 489.461,140.117 493.998,138.511 498.535,136.654 503.071,133.718 507.608,131.800 "/>
<g>
</g>
</g>
<g id="ID000004" clip-path="url(#ID000001)" >
<rect x="137.858" y="94.326" width="91.708" height="7.991" rx="0.000" ry="0.000" fill="#ffff00" stroke="#000000" stroke-width="0.5pt" stroke-dasharray="none" />
</g>
<g id="ID000005" >
  <g transform="translate(229.567,25.781)">
    <g transform="rotate(-0.0)">
      <text x="0.000" y="0.000" font-family="Helvetica" text-anchor="start" font-size="8pt" fill="#e5e5e5" >n = 7 mice</text>
    </g>
  </g>
</g>
<g id="ID000006" >
  <g transform="translate(229.567,41.763)">
    <g transform="rotate(-0.0)">
      <text x="0.000" y="0.000" font-family="Helvetica" text-anchor="start" font-size="8pt" fill="#e5e5e5" >n = 2380 trials</text>
    </g>
  </g>
</g>
<g id="ID000007" >
  <g transform="translate(229.567,57.745)">
    <g transform="rotate(-0.0)">
      <text x="0.000" y="0.000" font-family="Helvetica" text-anchor="start" font-size="8pt" fill="#e5e5e5" >Across 21 sessions</text>
    </g>
  </g>
</g>
<g id="ID000008" clip-path="url(#ID000001)" >
      <polygon fill="#b32800" fill-opacity="0.15" stroke="none" stroke-width="0.5pt" stroke-opacity="1.00" stroke-dasharray="none" points="44.854,208.972 49.391,212.846 53.927,227.518 58.464,219.174 63.001,209.557 67.538,208.927 72.075,209.394 76.611,205.157 81.148,208.864 85.685,211.720 90.222,209.498 94.759,209.949 99.295,208.257 103.832,212.066 108.369,210.289 112.906,208.461 117.443,208.467 121.980,209.015 126.516,204.120 131.053,206.761 135.590,205.716 140.127,204.501 144.664,205.122 149.200,201.275 153.737,200.972 158.274,199.841 162.811,200.688 167.348,201.672 171.884,202.039 176.421,201.826 180.958,201.671 185.495,202.734 190.032,202.234 194.568,203.170 199.105,197.914 203.642,199.918 208.179,197.182 212.716,195.195 217.252,193.593 221.789,192.348 226.326,194.946 230.863,189.025 235.400,188.366 239.937,187.524 244.473,189.308 249.010,190.218 253.547,189.587 258.084,189.256 262.621,197.377 267.157,189.682 271.694,193.952 276.231,188.091 280.768,184.415 285.305,186.532 289.841,183.998 294.378,186.609 298.915,181.449 303.452,180.839 307.989,180.734 312.525,175.591 317.062,180.844 321.599,182.470 326.136,178.867 330.673,177.530 335.209,181.405 339.746,182.202 344.283,177.063 348.820,181.802 353.357,176.955 357.894,181.097 362.430,178.961 366.967,177.053 371.504,178.309 376.041,172.667 380.578,168.997 385.114,175.708 389.651,169.032 394.188,176.924 398.725,179.672 403.262,179.762 407.798,171.528 412.335,164.770 416.872,165.294 421.409,165.440 425.946,162.702 430.482,162.262 435.019,159.625 439.556,166.258 444.093,163.577 448.630,160.551 453.166,160.573 457.703,157.323 462.240,158.350 466.777,158.955 471.314,161.261 475.851,160.426 480.387,160.835 484.924,161.665 489.461,163.269 493.998,163.474 498.535,157.330 503.071,159.170 507.608,157.264 507.608,135.185 503.071,134.967 498.535,133.504 493.998,140.946 489.461,135.832 484.924,137.154 480.387,136.369 475.851,134.848 471.314,133.447 466.777,122.589 462.240,125.895 457.703,119.334 453.166,128.845 448.630,130.481 444.093,135.292 439.556,140.261 435.019,123.768 430.482,122.444 425.946,126.825 421.409,131.426 416.872,134.990 412.335,132.248 407.798,146.576 403.262,153.506 398.725,149.404 394.188,150.346 389.651,141.265 385.114,148.910 380.578,142.816 376.041,149.052 371.504,151.084 366.967,153.957 362.430,155.801 357.894,153.812 353.357,149.859 348.820,155.148 344.283,151.373 339.746,153.699 335.209,157.167 330.673,147.792 326.136,154.523 321.599,159.913 317.062,155.594 312.525,143.179 307.989,157.428 303.452,157.082 298.915,158.544 294.378,165.776 289.841,162.574 285.305,164.867 280.768,162.859 276.231,167.695 271.694,172.318 267.157,167.260 262.621,177.944 258.084,165.509 253.547,168.392 249.010,165.976 244.473,163.709 239.937,162.489 235.400,164.828 230.863,162.692 226.326,171.446 221.789,161.532 217.252,154.742 212.716,162.783 208.179,169.475 203.642,174.954 199.105,168.813 194.568,182.542 190.032,173.038 185.495,173.402 180.958,176.358 176.421,176.600 171.884,177.958 167.348,172.405 162.811,173.834 158.274,175.392 153.737,172.518 149.200,174.172 144.664,180.122 140.127,185.264 135.590,186.734 131.053,184.862 126.516,183.155 121.980,188.503 117.443,187.473 112.906,184.478 108.369,177.520 103.832,183.575 99.295,181.399 94.759,180.097 90.222,183.748 85.685,186.226 81.148,186.973 76.611,185.870 72.075,191.244 67.538,184.816 63.001,190.551 58.464,194.356 53.927,203.210 49.391,201.948 44.854,192.353 "/>
</g>
<g id="ID000009" clip-path="url(#ID000001)" >
      <polyline fill="none" stroke="#b32800" stroke-width="2.0pt" stroke-dasharray="none" points="44.854,200.662 49.391,207.397 53.927,215.364 58.464,206.765 63.001,200.054 67.538,196.872 72.075,200.319 76.611,195.513 81.148,197.919 85.685,198.973 90.222,196.623 94.759,195.023 99.295,194.828 103.832,197.820 108.369,193.904 112.906,196.470 117.443,197.970 121.980,198.759 126.516,193.638 131.053,195.812 135.590,196.225 140.127,194.883 144.664,192.622 149.200,187.724 153.737,186.745 158.274,187.616 162.811,187.261 167.348,187.039 171.884,189.999 176.421,189.213 180.958,189.015 185.495,188.068 190.032,187.636 194.568,192.856 199.105,183.364 203.642,187.436 208.179,183.328 212.716,178.989 217.252,174.168 221.789,176.940 226.326,183.196 230.863,175.858 235.400,176.597 239.937,175.006 244.473,176.509 249.010,178.097 253.547,178.990 258.084,177.382 262.621,187.661 267.157,178.471 271.694,183.135 276.231,177.893 280.768,173.637 285.305,175.700 289.841,173.286 294.378,176.192 298.915,169.997 303.452,168.960 307.989,169.081 312.525,159.385 317.062,168.219 321.599,171.191 326.136,166.695 330.673,162.661 335.209,169.286 339.746,167.950 344.283,164.218 348.820,168.475 353.357,163.407 357.894,167.454 362.430,167.381 366.967,165.505 371.504,164.696 376.041,160.859 380.578,155.906 385.114,162.309 389.651,155.148 394.188,163.635 398.725,164.538 403.262,166.634 407.798,159.052 412.335,148.509 416.872,150.142 421.409,148.433 425.946,144.763 430.482,142.353 435.019,141.697 439.556,153.259 444.093,149.434 448.630,145.516 453.166,144.709 457.703,138.328 462.240,142.122 466.777,140.772 471.314,147.354 475.851,147.637 480.387,148.602 484.924,149.410 489.461,149.550 493.998,152.210 498.535,145.417 503.071,147.069 507.608,146.224 "/>
<g>
</g>
</g>
<g id="ID000010" clip-path="url(#ID000001)" >
<rect x="137.858" y="94.326" width="91.708" height="7.991" rx="0.000" ry="0.000" fill="#ffff00" stroke="#000000" stroke-width="0.5pt" stroke-dasharray="none" />
</g>
<g id="ID000011" >
  <g transform="translate(229.567,25.781)">
    <g transform="rotate(-0.0)">
      <text x="0.000" y="0.000" font-family="Helvetica" text-anchor="start" font-size="8pt" fill="#e5e5e5" >n = 7 mice</text>
    </g>
  </g>
</g>
<g id="ID000012" >
  <g transform="translate(229.567,41.763)">
    <g transform="rotate(-0.0)">
      <text x="0.000" y="0.000" font-family="Helvetica" text-anchor="start" font-size="8pt" fill="#e5e5e5" >n = 2380 trials</text>
    </g>
  </g>
</g>
<g id="ID000013" >
  <g transform="translate(229.567,57.745)">
    <g transform="rotate(-0.0)">
      <text x="0.000" y="0.000" font-family="Helvetica" text-anchor="start" font-size="8pt" fill="#e5e5e5" >Across 21 sessions</text>
    </g>
  </g>
</g>
<g id="ID000014" clip-path="url(#ID000001)" >
      <polygon fill="#000000" fill-opacity="0.15" stroke="none" stroke-width="0.5pt" stroke-opacity="1.00" stroke-dasharray="none" points="44.854,193.440 49.391,193.304 53.927,193.441 58.464,193.502 63.001,195.590 67.538,192.951 72.075,191.022 76.611,192.519 81.148,193.196 85.685,191.958 90.222,193.454 94.759,192.846 99.295,192.407 103.832,194.472 108.369,192.013 112.906,191.766 117.443,192.064 121.980,191.455 126.516,192.220 131.053,192.730 135.590,192.961 140.127,192.252 144.664,191.059 149.200,189.194 153.737,189.776 158.274,191.067 162.811,190.545 167.348,192.300 171.884,190.173 176.421,192.542 180.958,194.581 185.495,196.130 190.032,193.563 194.568,192.735 199.105,193.838 203.642,195.289 208.179,193.486 212.716,192.584 217.252,192.239 221.789,193.423 226.326,192.456 230.863,190.211 235.400,191.498 239.937,191.148 244.473,190.793 249.010,189.283 253.547,188.763 258.084,189.855 262.621,188.830 267.157,188.243 271.694,189.326 276.231,187.810 280.768,187.562 285.305,185.544 289.841,185.516 294.378,183.197 298.915,181.929 303.452,181.593 307.989,181.110 312.525,180.745 317.062,177.635 321.599,178.478 326.136,176.757 330.673,177.890 335.209,175.725 339.746,177.823 344.283,177.198 348.820,177.056 353.357,177.594 357.894,176.920 362.430,176.494 366.967,174.261 371.504,174.907 376.041,174.168 380.578,174.539 385.114,173.741 389.651,174.869 394.188,173.853 398.725,176.082 403.262,175.034 407.798,175.475 412.335,174.427 416.872,176.095 421.409,176.165 425.946,176.181 430.482,176.425 435.019,175.528 439.556,176.841 444.093,175.394 448.630,174.716 453.166,173.911 457.703,176.547 462.240,175.561 466.777,177.087 471.314,176.603 475.851,175.225 480.387,174.907 484.924,172.485 489.461,175.018 493.998,171.496 498.535,172.932 503.071,174.309 507.608,173.529 507.608,154.693 503.071,155.287 498.535,153.868 493.998,153.308 489.461,154.858 484.924,154.598 480.387,156.398 475.851,156.514 471.314,158.282 466.777,157.296 462.240,157.073 457.703,156.908 453.166,155.909 448.630,157.021 444.093,157.560 439.556,158.976 435.019,158.558 430.482,159.815 425.946,159.463 421.409,159.850 416.872,159.052 412.335,159.116 407.798,159.303 403.262,159.071 398.725,159.293 394.188,158.723 389.651,158.805 385.114,157.345 380.578,158.129 376.041,157.909 371.504,157.791 366.967,157.296 362.430,159.671 357.894,160.338 353.357,162.026 348.820,163.078 344.283,163.159 339.746,163.874 335.209,162.798 330.673,165.365 326.136,165.322 321.599,166.841 317.062,167.077 312.525,170.104 307.989,170.881 303.452,172.368 298.915,173.172 294.378,174.639 289.841,175.898 285.305,176.991 280.768,178.396 276.231,179.053 271.694,179.643 267.157,179.379 262.621,179.025 258.084,180.244 253.547,179.555 249.010,180.122 244.473,181.023 239.937,180.885 235.400,181.198 230.863,179.807 226.326,181.241 221.789,183.199 217.252,182.435 212.716,182.346 208.179,183.462 203.642,185.036 199.105,183.948 194.568,182.000 190.032,182.815 185.495,184.417 180.958,182.308 176.421,181.453 171.884,180.498 167.348,181.238 162.811,180.026 158.274,179.555 153.737,179.019 149.200,178.437 144.664,180.562 140.127,181.252 135.590,181.312 131.053,181.006 126.516,180.322 121.980,180.005 117.443,179.853 112.906,179.858 108.369,180.038 103.832,181.531 99.295,180.544 94.759,180.804 90.222,180.407 85.685,180.214 81.148,180.934 76.611,180.762 72.075,180.348 67.538,181.266 63.001,183.366 58.464,182.454 53.927,182.236 49.391,182.425 44.854,182.173 "/>
</g>
<g id="ID000015" clip-path="url(#ID000001)" >
      <polyline fill="none" stroke="#000000" stroke-width="2.0pt" stroke-dasharray="none" points="44.854,187.806 49.391,187.865 53.927,187.839 58.464,187.978 63.001,189.478 67.538,187.109 72.075,185.685 76.611,186.640 81.148,187.065 85.685,186.086 90.222,186.930 94.759,186.825 99.295,186.475 103.832,188.002 108.369,186.025 112.906,185.812 117.443,185.959 121.980,185.730 126.516,186.271 131.053,186.868 135.590,187.137 140.127,186.752 144.664,185.811 149.200,183.816 153.737,184.397 158.274,185.311 162.811,185.285 167.348,186.769 171.884,185.336 176.421,186.998 180.958,188.444 185.495,190.273 190.032,188.189 194.568,187.368 199.105,188.893 203.642,190.163 208.179,188.474 212.716,187.465 217.252,187.337 221.789,188.311 226.326,186.849 230.863,185.009 235.400,186.348 239.937,186.016 244.473,185.908 249.010,184.703 253.547,184.159 258.084,185.049 262.621,183.927 267.157,183.811 271.694,184.484 276.231,183.432 280.768,182.979 285.305,181.268 289.841,180.707 294.378,178.918 298.915,177.550 303.452,176.981 307.989,175.996 312.525,175.424 317.062,172.356 321.599,172.659 326.136,171.040 330.673,171.627 335.209,169.261 339.746,170.849 344.283,170.179 348.820,170.067 353.357,169.810 357.894,168.629 362.430,168.082 366.967,165.779 371.504,166.349 376.041,166.038 380.578,166.334 385.114,165.543 389.651,166.837 394.188,166.288 398.725,167.688 403.262,167.052 407.798,167.389 412.335,166.772 416.872,167.573 421.409,168.008 425.946,167.822 430.482,168.120 435.019,167.043 439.556,167.909 444.093,166.477 448.630,165.868 453.166,164.910 457.703,166.728 462.240,166.317 466.777,167.192 471.314,167.442 475.851,165.869 480.387,165.653 484.924,163.542 489.461,164.938 493.998,162.402 498.535,163.400 503.071,164.798 507.608,164.111 "/>
<g>
</g>
</g>
<g id="ID000016" clip-path="url(#ID000001)" >
<rect x="137.858" y="94.326" width="91.708" height="7.991" rx="0.000" ry="0.000" fill="#ffff00" stroke="#000000" stroke-width="0.5pt" stroke-dasharray="none" />
</g>
<g id="ID000017" >
  <g transform="translate(229.567,25.781)">
    <g transform="rotate(-0.0)">
      <text x="0.000" y="0.000" font-family="Helvetica" text-anchor="start" font-size="8pt" fill="#e5e5e5" >n = 7 mice</text>
    </g>
  </g>
</g>
<g id="ID000018" >
  <g transform="translate(229.567,41.763)">
    <g transform="rotate(-0.0)">
      <text x="0.000" y="0.000" font-family="Helvetica" text-anchor="start" font-size="8pt" fill="#e5e5e5" >n = 2380 trials</text>
    </g>
  </g>
</g>
<g id="ID000019" >
  <g transform="translate(229.567,57.745)">
    <g transform="rotate(-0.0)">
      <text x="0.000" y="0.000" font-family="Helvetica" text-anchor="start" font-size="8pt" fill="#e5e5e5" >Across 21 sessions</text>
    </g>
  </g>
</g>
<g id="ID000020" clip-path="url(#ID000001)" >
<g>
</g>
</g>
<g id="ID000021" clip-path="url(#ID000001)" >
<rect x="137.858" y="94.326" width="91.708" height="7.991" rx="0.000" ry="0.000" fill="#ffff00" stroke="#000000" stroke-width="0.5pt" stroke-dasharray="none" />
</g>
<g id="ID000022" >
  <g transform="translate(229.567,25.781)">
    <g transform="rotate(-0.0)">
      <text x="0.000" y="0.000" font-family="Helvetica" text-anchor="start" font-size="8pt" fill="#e5e5e5" >n = 7 mice</text>
    </g>
  </g>
</g>
<g id="ID000023" >
  <g transform="translate(229.567,41.763)">
    <g transform="rotate(-0.0)">
      <text x="0.000" y="0.000" font-family="Helvetica" text-anchor="start" font-size="8pt" fill="#e5e5e5" >n = 2380 trials</text>
    </g>
  </g>
</g>
<g id="ID000024" >
  <g transform="translate(229.567,57.745)">
    <g transform="rotate(-0.0)">
      <text x="0.000" y="0.000" font-family="Helvetica" text-anchor="start" font-size="8pt" fill="#e5e5e5" >Across 21 sessions</text>
    </g>
  </g>
</g>
    </g>
    <g>
      <polyline fill="none" stroke="#262626" stroke-width="3.0pt" stroke-dasharray="none" points="46.150,262.137 46.150,267.640 "/>
      <polyline fill="none" stroke="#262626" stroke-width="3.0pt" stroke-dasharray="none" points="137.858,262.137 137.858,267.640 "/>
      <polyline fill="none" stroke="#262626" stroke-width="3.0pt" stroke-dasharray="none" points="229.567,262.137 229.567,267.640 "/>
      <polyline fill="none" stroke="#262626" stroke-width="3.0pt" stroke-dasharray="none" points="321.275,262.137 321.275,267.640 "/>
      <polyline fill="none" stroke="#262626" stroke-width="3.0pt" stroke-dasharray="none" points="46.150,262.137 321.275,262.137 "/>
  <g transform="translate(46.150,298.277)">
    <g transform="rotate(-0.0)">
      <text x="0.000" y="0.000" font-family="Helvetica" text-anchor="middle" font-size="22pt" fill="#262626" >-1</text>
    </g>
  </g>
  <g transform="translate(137.858,298.277)">
    <g transform="rotate(-0.0)">
      <text x="0.000" y="0.000" font-family="Helvetica" text-anchor="middle" font-size="22pt" fill="#262626" >0</text>
    </g>
  </g>
  <g transform="translate(229.567,298.277)">
    <g transform="rotate(-0.0)">
      <text x="0.000" y="0.000" font-family="Helvetica" text-anchor="middle" font-size="22pt" fill="#262626" >1</text>
    </g>
  </g>
  <g transform="translate(321.275,298.277)">
    <g transform="rotate(-0.0)">
      <text x="0.000" y="0.000" font-family="Helvetica" text-anchor="middle" font-size="22pt" fill="#262626" >2</text>
    </g>
  </g>
      <polyline fill="none" stroke="#262626" stroke-width="3.0pt" stroke-dasharray="none" points="46.150,262.137 40.648,262.137 "/>
      <polyline fill="none" stroke="#262626" stroke-width="3.0pt" stroke-dasharray="none" points="46.150,182.227 40.648,182.227 "/>
      <polyline fill="none" stroke="#262626" stroke-width="3.0pt" stroke-dasharray="none" points="46.150,102.317 40.648,102.317 "/>
      <polyline fill="none" stroke="#262626" stroke-width="3.0pt" stroke-dasharray="none" points="46.150,22.406 40.648,22.406 "/>
      <polyline fill="none" stroke="#262626" stroke-width="3.0pt" stroke-dasharray="none" points="46.150,262.137 46.150,22.406 "/>
  <g transform="translate(35.145,272.262)">
    <g transform="rotate(-0.0)">
      <text x="0.000" y="0.000" font-family="Helvetica" text-anchor="end" font-size="22pt" fill="#262626" >-1</text>
    </g>
  </g>
  <g transform="translate(35.145,192.352)">
    <g transform="rotate(-0.0)">
      <text x="0.000" y="0.000" font-family="Helvetica" text-anchor="end" font-size="22pt" fill="#262626" >0</text>
    </g>
  </g>
  <g transform="translate(35.145,112.442)">
    <g transform="rotate(-0.0)">
      <text x="0.000" y="0.000" font-family="Helvetica" text-anchor="end" font-size="22pt" fill="#262626" >1</text>
    </g>
  </g>
  <g transform="translate(35.145,32.531)">
    <g transform="rotate(-0.0)">
      <text x="0.000" y="0.000" font-family="Helvetica" text-anchor="end" font-size="22pt" fill="#262626" >2</text>
    </g>
  </g>
      <polyline fill="none" stroke="#262626" stroke-width="3.0pt" stroke-dasharray="none" points="46.150,262.137 46.150,266.932 "/>
      <polyline fill="none" stroke="#262626" stroke-width="3.0pt" stroke-dasharray="none" points="46.150,262.137 46.150,266.932 "/>
      <polyline fill="none" stroke="#262626" stroke-width="3.0pt" stroke-dasharray="none" points="46.150,262.137 46.150,266.932 "/>
      <polyline fill="none" stroke="#262626" stroke-width="3.0pt" stroke-dasharray="none" points="46.150,262.137 46.150,262.137 "/>
    </g>
  </g>
  </g>
</svg>
